%TF.GenerationSoftware,KiCad,Pcbnew,(6.0.9)*%
%TF.CreationDate,2022-12-09T14:18:12+01:00*%
%TF.ProjectId,seq,7365712e-6b69-4636-9164-5f7063625858,rev?*%
%TF.SameCoordinates,Original*%
%TF.FileFunction,Copper,L1,Top*%
%TF.FilePolarity,Positive*%
%FSLAX46Y46*%
G04 Gerber Fmt 4.6, Leading zero omitted, Abs format (unit mm)*
G04 Created by KiCad (PCBNEW (6.0.9)) date 2022-12-09 14:18:12*
%MOMM*%
%LPD*%
G01*
G04 APERTURE LIST*
G04 Aperture macros list*
%AMRoundRect*
0 Rectangle with rounded corners*
0 $1 Rounding radius*
0 $2 $3 $4 $5 $6 $7 $8 $9 X,Y pos of 4 corners*
0 Add a 4 corners polygon primitive as box body*
4,1,4,$2,$3,$4,$5,$6,$7,$8,$9,$2,$3,0*
0 Add four circle primitives for the rounded corners*
1,1,$1+$1,$2,$3*
1,1,$1+$1,$4,$5*
1,1,$1+$1,$6,$7*
1,1,$1+$1,$8,$9*
0 Add four rect primitives between the rounded corners*
20,1,$1+$1,$2,$3,$4,$5,0*
20,1,$1+$1,$4,$5,$6,$7,0*
20,1,$1+$1,$6,$7,$8,$9,0*
20,1,$1+$1,$8,$9,$2,$3,0*%
G04 Aperture macros list end*
%TA.AperFunction,NonConductor*%
%ADD10C,0.200000*%
%TD*%
%TA.AperFunction,ComponentPad*%
%ADD11C,1.400000*%
%TD*%
%TA.AperFunction,ComponentPad*%
%ADD12R,1.828800X1.828800*%
%TD*%
%TA.AperFunction,ComponentPad*%
%ADD13C,1.828800*%
%TD*%
%TA.AperFunction,ComponentPad*%
%ADD14O,1.400000X1.400000*%
%TD*%
%TA.AperFunction,ComponentPad*%
%ADD15RoundRect,0.250000X-0.600000X-0.600000X0.600000X-0.600000X0.600000X0.600000X-0.600000X0.600000X0*%
%TD*%
%TA.AperFunction,ComponentPad*%
%ADD16C,1.700000*%
%TD*%
%TA.AperFunction,ComponentPad*%
%ADD17C,8.000000*%
%TD*%
%TA.AperFunction,Conductor*%
%ADD18C,0.250000*%
%TD*%
G04 APERTURE END LIST*
D10*
X-20090000Y-136640000D02*
X-19980000Y-41400000D01*
X-20080127Y-136660000D02*
G75*
G03*
X-16510000Y-140200000I3540127J0D01*
G01*
X351740000Y-41600000D02*
X351940000Y-136670000D01*
X348470000Y-140080000D02*
X-16810000Y-140200000D01*
X-16552453Y-38140023D02*
G75*
G03*
X-19959999Y-41610000I32455J-3439979D01*
G01*
X351709937Y-41588517D02*
G75*
G03*
X348420000Y-38290000I-3269937J28517D01*
G01*
X348461756Y-140099989D02*
G75*
G03*
X351949999Y-136610000I-21756J3509989D01*
G01*
X-16470000Y-38100000D02*
X348390000Y-38280000D01*
D11*
%TO.P,3.3v1,1,Pin_1*%
%TO.N,+3.3V*%
X-16010000Y-58210000D03*
%TD*%
D12*
%TO.P,J5,1,1*%
%TO.N,+3.3V*%
X182060000Y-58290500D03*
D13*
%TO.P,J5,2,2*%
%TO.N,Net-(J17-Pad9)*%
X182060000Y-54290000D03*
%TO.P,J5,3,3*%
%TO.N,GND*%
X182060000Y-50289500D03*
%TD*%
D12*
%TO.P,J4,1,1*%
%TO.N,+3.3V*%
X137020000Y-58340500D03*
D13*
%TO.P,J4,2,2*%
%TO.N,Net-(J17-Pad4)*%
X137020000Y-54340000D03*
%TO.P,J4,3,3*%
%TO.N,GND*%
X137020000Y-50339500D03*
%TD*%
D12*
%TO.P,J8,1,1*%
%TO.N,+3.3V*%
X317020000Y-58260500D03*
D13*
%TO.P,J8,2,2*%
%TO.N,Net-(J17-Pad12)*%
X317020000Y-54260000D03*
%TO.P,J8,3,3*%
%TO.N,GND*%
X317020000Y-50259500D03*
%TD*%
D12*
%TO.P,J14,1,1*%
%TO.N,+3.3V*%
X226990000Y-128400500D03*
D13*
%TO.P,J14,2,2*%
%TO.N,Net-(J14-Pad2)*%
X226990000Y-124400000D03*
%TO.P,J14,3,3*%
%TO.N,GND*%
X226990000Y-120399500D03*
%TD*%
D12*
%TO.P,J11,1,1*%
%TO.N,+3.3V*%
X92060000Y-128300500D03*
D13*
%TO.P,J11,2,2*%
%TO.N,Net-(J11-Pad2)*%
X92060000Y-124300000D03*
%TO.P,J11,3,3*%
%TO.N,GND*%
X92060000Y-120299500D03*
%TD*%
D11*
%TO.P,R16,1*%
%TO.N,Net-(J16-Pad2)*%
X325410000Y-124265000D03*
D14*
%TO.P,R16,2*%
%TO.N,+3.3V*%
X325410000Y-126165000D03*
%TD*%
D15*
%TO.P,J17,1,Pin_1*%
%TO.N,Net-(J1-Pad2)*%
X340297500Y-70680000D03*
D16*
%TO.P,J17,2,Pin_2*%
%TO.N,Net-(J17-Pad2)*%
X342837500Y-70680000D03*
%TO.P,J17,3,Pin_3*%
%TO.N,Net-(J17-Pad3)*%
X340297500Y-73220000D03*
%TO.P,J17,4,Pin_4*%
%TO.N,Net-(J17-Pad4)*%
X342837500Y-73220000D03*
%TO.P,J17,5,Pin_5*%
%TO.N,GND*%
X340297500Y-75760000D03*
%TO.P,J17,6,Pin_6*%
%TO.N,unconnected-(J17-Pad6)*%
X342837500Y-75760000D03*
%TO.P,J17,7,Pin_7*%
%TO.N,unconnected-(J17-Pad7)*%
X340297500Y-78300000D03*
%TO.P,J17,8,Pin_8*%
%TO.N,unconnected-(J17-Pad8)*%
X342837500Y-78300000D03*
%TO.P,J17,9,Pin_9*%
%TO.N,Net-(J17-Pad9)*%
X340297500Y-80840000D03*
%TO.P,J17,10,Pin_10*%
%TO.N,Net-(J17-Pad10)*%
X342837500Y-80840000D03*
%TO.P,J17,11,Pin_11*%
%TO.N,Net-(J17-Pad11)*%
X340297500Y-83380000D03*
%TO.P,J17,12,Pin_12*%
%TO.N,Net-(J17-Pad12)*%
X342837500Y-83380000D03*
%TO.P,J17,13,Pin_13*%
%TO.N,unconnected-(J17-Pad13)*%
X340297500Y-85920000D03*
%TO.P,J17,14,Pin_14*%
%TO.N,unconnected-(J17-Pad14)*%
X342837500Y-85920000D03*
%TO.P,J17,15,Pin_15*%
%TO.N,unconnected-(J17-Pad15)*%
X340297500Y-88460000D03*
%TO.P,J17,16,Pin_16*%
%TO.N,unconnected-(J17-Pad16)*%
X342837500Y-88460000D03*
%TO.P,J17,17,Pin_17*%
%TO.N,Net-(J17-Pad17)*%
X340297500Y-91000000D03*
%TO.P,J17,18,Pin_18*%
%TO.N,Net-(J10-Pad2)*%
X342837500Y-91000000D03*
%TO.P,J17,19,Pin_19*%
%TO.N,Net-(J11-Pad2)*%
X340297500Y-93540000D03*
%TO.P,J17,20,Pin_20*%
%TO.N,Net-(J12-Pad2)*%
X342837500Y-93540000D03*
%TO.P,J17,21,Pin_21*%
%TO.N,unconnected-(J17-Pad21)*%
X340297500Y-96080000D03*
%TO.P,J17,22,Pin_22*%
%TO.N,unconnected-(J17-Pad22)*%
X342837500Y-96080000D03*
%TO.P,J17,23,Pin_23*%
%TO.N,unconnected-(J17-Pad23)*%
X340297500Y-98620000D03*
%TO.P,J17,24,Pin_24*%
%TO.N,unconnected-(J17-Pad24)*%
X342837500Y-98620000D03*
%TO.P,J17,25,Pin_25*%
%TO.N,Net-(J13-Pad2)*%
X340297500Y-101160000D03*
%TO.P,J17,26,Pin_26*%
%TO.N,Net-(J14-Pad2)*%
X342837500Y-101160000D03*
%TO.P,J17,27,Pin_27*%
%TO.N,Net-(J15-Pad2)*%
X340297500Y-103700000D03*
%TO.P,J17,28,Pin_28*%
%TO.N,Net-(J16-Pad2)*%
X342837500Y-103700000D03*
%TO.P,J17,29,Pin_29*%
%TO.N,unconnected-(J17-Pad29)*%
X340297500Y-106240000D03*
%TO.P,J17,30,Pin_30*%
%TO.N,unconnected-(J17-Pad30)*%
X342837500Y-106240000D03*
%TO.P,J17,31,Pin_31*%
%TO.N,unconnected-(J17-Pad31)*%
X340297500Y-108780000D03*
%TO.P,J17,32,Pin_32*%
%TO.N,unconnected-(J17-Pad32)*%
X342837500Y-108780000D03*
%TO.P,J17,33,Pin_33*%
%TO.N,unconnected-(J17-Pad33)*%
X340297500Y-111320000D03*
%TO.P,J17,34,Pin_34*%
%TO.N,unconnected-(J17-Pad34)*%
X342837500Y-111320000D03*
D17*
%TO.P,J17,MP*%
%TO.N,N/C*%
X341317500Y-61740000D03*
X341317500Y-120260000D03*
%TD*%
D11*
%TO.P,R15,1*%
%TO.N,Net-(J15-Pad2)*%
X279630000Y-124395000D03*
D14*
%TO.P,R15,2*%
%TO.N,+3.3V*%
X279630000Y-126295000D03*
%TD*%
D11*
%TO.P,R11,1*%
%TO.N,Net-(J11-Pad2)*%
X99850000Y-124370000D03*
D14*
%TO.P,R11,2*%
%TO.N,+3.3V*%
X99850000Y-126270000D03*
%TD*%
D12*
%TO.P,J13,1,1*%
%TO.N,+3.3V*%
X182000000Y-128190500D03*
D13*
%TO.P,J13,2,2*%
%TO.N,Net-(J13-Pad2)*%
X182000000Y-124190000D03*
%TO.P,J13,3,3*%
%TO.N,GND*%
X182000000Y-120189500D03*
%TD*%
D11*
%TO.P,R6,1*%
%TO.N,+3.3V*%
X235100000Y-56240000D03*
D14*
%TO.P,R6,2*%
%TO.N,Net-(J17-Pad10)*%
X235100000Y-54340000D03*
%TD*%
D11*
%TO.P,R3,1*%
%TO.N,+3.3V*%
X99700000Y-56120000D03*
D14*
%TO.P,R3,2*%
%TO.N,Net-(J17-Pad3)*%
X99700000Y-54220000D03*
%TD*%
D12*
%TO.P,J9,1,1*%
%TO.N,+3.3V*%
X2010000Y-128300500D03*
D13*
%TO.P,J9,2,2*%
%TO.N,Net-(J17-Pad17)*%
X2010000Y-124300000D03*
%TO.P,J9,3,3*%
%TO.N,GND*%
X2010000Y-120299500D03*
%TD*%
D12*
%TO.P,J3,1,1*%
%TO.N,+3.3V*%
X92110000Y-58270500D03*
D13*
%TO.P,J3,2,2*%
%TO.N,Net-(J17-Pad3)*%
X92110000Y-54270000D03*
%TO.P,J3,3,3*%
%TO.N,GND*%
X92110000Y-50269500D03*
%TD*%
D12*
%TO.P,J10,1,1*%
%TO.N,+3.3V*%
X47000000Y-128240500D03*
D13*
%TO.P,J10,2,2*%
%TO.N,Net-(J10-Pad2)*%
X47000000Y-124240000D03*
%TO.P,J10,3,3*%
%TO.N,GND*%
X47000000Y-120239500D03*
%TD*%
D11*
%TO.P,R5,1*%
%TO.N,Net-(J17-Pad9)*%
X189830000Y-54260000D03*
D14*
%TO.P,R5,2*%
%TO.N,+3.3V*%
X189830000Y-56160000D03*
%TD*%
D11*
%TO.P,R9,1*%
%TO.N,Net-(J17-Pad17)*%
X9980000Y-124255000D03*
D14*
%TO.P,R9,2*%
%TO.N,+3.3V*%
X9980000Y-126155000D03*
%TD*%
D11*
%TO.P,R12,1*%
%TO.N,Net-(J12-Pad2)*%
X144850000Y-124470000D03*
D14*
%TO.P,R12,2*%
%TO.N,+3.3V*%
X144850000Y-126370000D03*
%TD*%
D12*
%TO.P,J7,1,1*%
%TO.N,+3.3V*%
X272000000Y-58270500D03*
D13*
%TO.P,J7,2,2*%
%TO.N,Net-(J17-Pad11)*%
X272000000Y-54270000D03*
%TO.P,J7,3,3*%
%TO.N,GND*%
X272000000Y-50269500D03*
%TD*%
D11*
%TO.P,R7,1*%
%TO.N,Net-(J17-Pad11)*%
X279830000Y-54470000D03*
D14*
%TO.P,R7,2*%
%TO.N,+3.3V*%
X279830000Y-56370000D03*
%TD*%
D11*
%TO.P,R1,1*%
%TO.N,+3.3V*%
X9590000Y-56750000D03*
D14*
%TO.P,R1,2*%
%TO.N,Net-(J1-Pad2)*%
X9590000Y-54850000D03*
%TD*%
D11*
%TO.P,R14,1*%
%TO.N,Net-(J14-Pad2)*%
X235080000Y-124435000D03*
D14*
%TO.P,R14,2*%
%TO.N,+3.3V*%
X235080000Y-126335000D03*
%TD*%
D12*
%TO.P,J6,1,1*%
%TO.N,+3.3V*%
X227010000Y-58360500D03*
D13*
%TO.P,J6,2,2*%
%TO.N,Net-(J17-Pad10)*%
X227010000Y-54360000D03*
%TO.P,J6,3,3*%
%TO.N,GND*%
X227010000Y-50359500D03*
%TD*%
D12*
%TO.P,J16,1,1*%
%TO.N,+3.3V*%
X317000000Y-128320500D03*
D13*
%TO.P,J16,2,2*%
%TO.N,Net-(J16-Pad2)*%
X317000000Y-124320000D03*
%TO.P,J16,3,3*%
%TO.N,GND*%
X317000000Y-120319500D03*
%TD*%
D11*
%TO.P,R13,1*%
%TO.N,Net-(J13-Pad2)*%
X190380000Y-124305000D03*
D14*
%TO.P,R13,2*%
%TO.N,+3.3V*%
X190380000Y-126205000D03*
%TD*%
D12*
%TO.P,J15,1,1*%
%TO.N,+3.3V*%
X271990000Y-128410500D03*
D13*
%TO.P,J15,2,2*%
%TO.N,Net-(J15-Pad2)*%
X271990000Y-124410000D03*
%TO.P,J15,3,3*%
%TO.N,GND*%
X271990000Y-120409500D03*
%TD*%
D12*
%TO.P,J1,1,1*%
%TO.N,+3.3V*%
X2020000Y-58310500D03*
D13*
%TO.P,J1,2,2*%
%TO.N,Net-(J1-Pad2)*%
X2020000Y-54310000D03*
%TO.P,J1,3,3*%
%TO.N,GND*%
X2020000Y-50309500D03*
%TD*%
D11*
%TO.P,R10,1*%
%TO.N,Net-(J10-Pad2)*%
X55190000Y-124265000D03*
D14*
%TO.P,R10,2*%
%TO.N,+3.3V*%
X55190000Y-126165000D03*
%TD*%
D11*
%TO.P,R2,1*%
%TO.N,+3.3V*%
X54520000Y-56230000D03*
D14*
%TO.P,R2,2*%
%TO.N,Net-(J17-Pad2)*%
X54520000Y-54330000D03*
%TD*%
D12*
%TO.P,J2,1,1*%
%TO.N,+3.3V*%
X47030000Y-58300500D03*
D13*
%TO.P,J2,2,2*%
%TO.N,Net-(J17-Pad2)*%
X47030000Y-54300000D03*
%TO.P,J2,3,3*%
%TO.N,GND*%
X47030000Y-50299500D03*
%TD*%
D11*
%TO.P,R8,1*%
%TO.N,Net-(J17-Pad12)*%
X325590000Y-54220000D03*
D14*
%TO.P,R8,2*%
%TO.N,+3.3V*%
X325590000Y-56120000D03*
%TD*%
D11*
%TO.P,R4,1*%
%TO.N,+3.3V*%
X144570000Y-57040000D03*
D14*
%TO.P,R4,2*%
%TO.N,Net-(J17-Pad4)*%
X144570000Y-55140000D03*
%TD*%
D12*
%TO.P,J12,1,1*%
%TO.N,+3.3V*%
X137050000Y-128410500D03*
D13*
%TO.P,J12,2,2*%
%TO.N,Net-(J12-Pad2)*%
X137050000Y-124410000D03*
%TO.P,J12,3,3*%
%TO.N,GND*%
X137050000Y-120409500D03*
%TD*%
D18*
%TO.N,GND*%
X340027500Y-75490000D02*
X340297500Y-75760000D01*
X339250000Y-75490000D02*
X340027500Y-75490000D01*
X339272500Y-74577500D02*
X338805000Y-75045000D01*
X341480000Y-74577500D02*
X339272500Y-74577500D01*
X334790499Y-71030499D02*
X338805000Y-75045000D01*
X338805000Y-75045000D02*
X339250000Y-75490000D01*
%TO.N,+3.3V*%
X-590000Y-127650000D02*
X60500Y-128300500D01*
X-590000Y-60920500D02*
X-590000Y-127650000D01*
X60500Y-128300500D02*
X2010000Y-128300500D01*
X2020000Y-58310500D02*
X-590000Y-60920500D01*
%TO.N,GND*%
X342351006Y-72045500D02*
X341480000Y-72916506D01*
X343324701Y-72045500D02*
X342351006Y-72045500D01*
X344012500Y-92297500D02*
X344012500Y-72733299D01*
X343945000Y-92365000D02*
X344012500Y-92297500D01*
X341480000Y-72916506D02*
X341480000Y-74577500D01*
X342335000Y-92365000D02*
X343945000Y-92365000D01*
X341662500Y-93037500D02*
X342335000Y-92365000D01*
X341662500Y-96376701D02*
X341662500Y-93037500D01*
X340599201Y-97440000D02*
X341662500Y-96376701D01*
X339815799Y-97440000D02*
X340599201Y-97440000D01*
%TO.N,Net-(J17-Pad4)*%
X341516189Y-75177001D02*
X342837500Y-73855690D01*
X340784201Y-76935000D02*
X341516189Y-76203012D01*
X339810799Y-76935000D02*
X340784201Y-76935000D01*
X326346140Y-51619501D02*
X334340998Y-59614359D01*
X148090499Y-51619501D02*
X326346140Y-51619501D01*
X144570000Y-55140000D02*
X148090499Y-51619501D01*
X334340998Y-59614359D02*
X334340998Y-71465199D01*
X334340998Y-71465199D02*
X339810799Y-76935000D01*
X342837500Y-73855690D02*
X342837500Y-73220000D01*
X341516189Y-76203012D02*
X341516189Y-75177001D01*
%TO.N,GND*%
X344012500Y-72733299D02*
X343324701Y-72045500D01*
%TO.N,Net-(J17-Pad17)*%
X336150000Y-95147500D02*
X340297500Y-91000000D01*
X336150000Y-101370000D02*
X336150000Y-95147500D01*
X319880000Y-117640000D02*
X336150000Y-101370000D01*
X-128901Y-119413538D02*
X1644637Y-117640000D01*
X1644637Y-117640000D02*
X319880000Y-117640000D01*
X1057902Y-122427902D02*
X-128901Y-121241099D01*
X-128901Y-121241099D02*
X-128901Y-119413538D01*
X8162902Y-122437902D02*
X1057902Y-122437902D01*
X1057902Y-122437902D02*
X1057902Y-122427902D01*
X9980000Y-124255000D02*
X8162902Y-122437902D01*
%TO.N,Net-(J10-Pad2)*%
X341662500Y-92175000D02*
X342837500Y-91000000D01*
X336600000Y-95575799D02*
X340000799Y-92175000D01*
X336600000Y-102470000D02*
X336600000Y-95575799D01*
X319350499Y-118190499D02*
X320879501Y-118190499D01*
%TO.N,Net-(J12-Pad2)*%
X344012500Y-94715000D02*
X342837500Y-93540000D01*
X343324201Y-99795000D02*
X344012500Y-99106701D01*
X340000799Y-99795000D02*
X343324201Y-99795000D01*
X339122500Y-100673299D02*
X340000799Y-99795000D01*
X337999002Y-102770199D02*
X339122500Y-101646701D01*
X337999002Y-102978068D02*
X337999002Y-102770199D01*
X319257070Y-121720000D02*
X337999002Y-102978068D01*
X144850000Y-124470000D02*
X147600000Y-121720000D01*
%TO.N,Net-(J10-Pad2)*%
X320879501Y-118190499D02*
X336600000Y-102470000D01*
%TO.N,GND*%
X337549501Y-102776189D02*
X337549501Y-99706298D01*
X337499002Y-102826688D02*
X337549501Y-102776189D01*
%TO.N,Net-(J12-Pad2)*%
X147600000Y-121720000D02*
X319257070Y-121720000D01*
%TO.N,GND*%
X337499002Y-102842378D02*
X337499002Y-102826688D01*
X317000000Y-120319500D02*
X320021880Y-120319500D01*
%TO.N,Net-(J10-Pad2)*%
X340000799Y-92175000D02*
X341662500Y-92175000D01*
%TO.N,Net-(J11-Pad2)*%
X337049501Y-96787999D02*
X340297500Y-93540000D01*
X337049501Y-102656189D02*
X337049501Y-96787999D01*
X321065690Y-118640000D02*
X337049501Y-102656189D01*
X320739900Y-118950100D02*
X321050000Y-118640000D01*
X1496623Y-121538900D02*
X770600Y-120812877D01*
X321050000Y-118640000D02*
X321065690Y-118640000D01*
X99850000Y-124370000D02*
X97018900Y-121538900D01*
X1606623Y-118950100D02*
X320739900Y-118950100D01*
%TO.N,GND*%
X337549501Y-99706298D02*
X339815799Y-97440000D01*
%TO.N,Net-(J10-Pad2)*%
X319350499Y-118190499D02*
X319740499Y-118190499D01*
%TO.N,Net-(J11-Pad2)*%
X770600Y-119786123D02*
X1606623Y-118950100D01*
X97018900Y-121538900D02*
X1496623Y-121538900D01*
%TO.N,Net-(J10-Pad2)*%
X1730534Y-118190499D02*
X319350499Y-118190499D01*
%TO.N,Net-(J12-Pad2)*%
X339122500Y-101646701D02*
X339122500Y-100673299D01*
X344012500Y-99106701D02*
X344012500Y-94715000D01*
%TO.N,GND*%
X320021880Y-120319500D02*
X337499002Y-102842378D01*
%TO.N,Net-(J11-Pad2)*%
X770600Y-120812877D02*
X770600Y-119786123D01*
%TO.N,Net-(J10-Pad2)*%
X321099Y-119599934D02*
X1730534Y-118190499D01*
X321099Y-120999066D02*
X321099Y-119599934D01*
X1310434Y-121988401D02*
X321099Y-120999066D01*
X1991599Y-121988401D02*
X1310434Y-121988401D01*
%TO.N,Net-(J13-Pad2)*%
X338672999Y-103847001D02*
X338672999Y-102784501D01*
X320350499Y-122169501D02*
X338672999Y-103847001D01*
X192515499Y-122169501D02*
X320350499Y-122169501D01*
X190380000Y-124305000D02*
X192515499Y-122169501D01*
%TO.N,Net-(J14-Pad2)*%
X341662500Y-102335000D02*
X342837500Y-101160000D01*
X340000799Y-102335000D02*
X341662500Y-102335000D01*
X320535690Y-122620000D02*
X339122500Y-104033190D01*
%TO.N,Net-(J13-Pad2)*%
X338672999Y-102784501D02*
X340297500Y-101160000D01*
%TO.N,Net-(J14-Pad2)*%
X339122500Y-104033190D02*
X339122500Y-103213299D01*
X236895000Y-122620000D02*
X320535690Y-122620000D01*
X339122500Y-103213299D02*
X340000799Y-102335000D01*
X235080000Y-124435000D02*
X236895000Y-122620000D01*
%TO.N,Net-(J1-Pad2)*%
X336992500Y-59948526D02*
X336992500Y-63531474D01*
X-230000Y-49533931D02*
X1483931Y-47820000D01*
X2520500Y-54849500D02*
X1880500Y-54209500D01*
X337038503Y-57188503D02*
X337038503Y-59902523D01*
X2020000Y-54310000D02*
X9050000Y-54310000D01*
X327670000Y-47820000D02*
X337038503Y-57188503D01*
X340297500Y-66836474D02*
X340297500Y-70680000D01*
X337038503Y-59902523D02*
X336992500Y-59948526D01*
X3534931Y-54850000D02*
X-230000Y-51085069D01*
X1483931Y-47820000D02*
X327670000Y-47820000D01*
X336992500Y-63531474D02*
X340297500Y-66836474D01*
X9590000Y-54850000D02*
X3534931Y-54850000D01*
X9050000Y-54310000D02*
X9590000Y-54850000D01*
X-230000Y-51085069D02*
X-230000Y-49533931D01*
%TO.N,GND*%
X334790499Y-59427464D02*
X334790499Y-71030499D01*
X317010000Y-50269500D02*
X317020000Y-50259500D01*
X136940000Y-120299500D02*
X137050000Y-120409500D01*
X181780000Y-120409500D02*
X182000000Y-120189500D01*
X182060000Y-50289500D02*
X226940000Y-50289500D01*
X92060000Y-120299500D02*
X136940000Y-120299500D01*
X47000000Y-120239500D02*
X92000000Y-120239500D01*
X47200500Y-50049500D02*
X47310000Y-49940000D01*
X272000000Y-50269500D02*
X317010000Y-50269500D01*
X2010000Y-120299500D02*
X46940000Y-120299500D01*
X47030000Y-50299500D02*
X92080000Y-50299500D01*
X47020000Y-50309500D02*
X47030000Y-50299500D01*
X226780000Y-120189500D02*
X226990000Y-120399500D01*
X227010000Y-50359500D02*
X271910000Y-50359500D01*
X182000000Y-120189500D02*
X226780000Y-120189500D01*
X136950000Y-50269500D02*
X137020000Y-50339500D01*
X137020000Y-50339500D02*
X182010000Y-50339500D01*
X182010000Y-50339500D02*
X182060000Y-50289500D01*
X92110000Y-50269500D02*
X136950000Y-50269500D01*
X272080000Y-120319500D02*
X271990000Y-120409500D01*
X92000000Y-120239500D02*
X92060000Y-120299500D01*
X46940000Y-120299500D02*
X47000000Y-120239500D01*
X92080000Y-50299500D02*
X92110000Y-50269500D01*
X137050000Y-120409500D02*
X181780000Y-120409500D01*
X325622535Y-50259500D02*
X334790499Y-59427464D01*
X2020000Y-50309500D02*
X47020000Y-50309500D01*
X271910000Y-50359500D02*
X272000000Y-50269500D01*
X226990000Y-120399500D02*
X271980000Y-120399500D01*
X317000000Y-120319500D02*
X272080000Y-120319500D01*
X226940000Y-50289500D02*
X227010000Y-50359500D01*
X317020000Y-50259500D02*
X325622535Y-50259500D01*
X271980000Y-120399500D02*
X271990000Y-120409500D01*
%TO.N,Net-(J17-Pad2)*%
X47030000Y-54300000D02*
X54490000Y-54300000D01*
X336542999Y-63717663D02*
X336589002Y-63763666D01*
X52188900Y-51998900D02*
X1320227Y-51998900D01*
X336589002Y-63763666D02*
X336589002Y-70689002D01*
X330600Y-49609727D02*
X1670327Y-48270000D01*
X54520000Y-54330000D02*
X52188900Y-51998900D01*
X336542999Y-57328689D02*
X336542999Y-63717663D01*
X54490000Y-54300000D02*
X54520000Y-54330000D01*
X330600Y-51009273D02*
X330600Y-49609727D01*
X337755000Y-71855000D02*
X341662500Y-71855000D01*
X341662500Y-71855000D02*
X342837500Y-70680000D01*
X336589002Y-70689002D02*
X337755000Y-71855000D01*
X1320227Y-51998900D02*
X330600Y-51009273D01*
X1670327Y-48270000D02*
X327484310Y-48270000D01*
X327484310Y-48270000D02*
X336542999Y-57328689D01*
%TO.N,Net-(J17-Pad3)*%
X89388900Y-51548900D02*
X1506623Y-51548900D01*
X1856723Y-48720000D02*
X327298620Y-48720000D01*
X99650000Y-54270000D02*
X99700000Y-54220000D01*
X336093498Y-57514878D02*
X336093498Y-71697808D01*
X327298620Y-48720000D02*
X336093498Y-57514878D01*
X1506623Y-51548900D02*
X780600Y-50822877D01*
X336093498Y-71697808D02*
X337615690Y-73220000D01*
X337615690Y-73220000D02*
X340297500Y-73220000D01*
X780600Y-50822877D02*
X780600Y-49796123D01*
X92110000Y-54270000D02*
X89388900Y-51548900D01*
X780600Y-49796123D02*
X1856723Y-48720000D01*
X92110000Y-54270000D02*
X99650000Y-54270000D01*
%TO.N,Net-(J17-Pad9)*%
X333890998Y-60582378D02*
X333620998Y-60312378D01*
X333890998Y-74433498D02*
X333890998Y-60582378D01*
X182060000Y-54290000D02*
X189800000Y-54290000D01*
X333620998Y-60312378D02*
X333620998Y-59530049D01*
X189800000Y-54290000D02*
X189830000Y-54260000D01*
X326159951Y-52069002D02*
X192020998Y-52069002D01*
X192020998Y-52069002D02*
X189830000Y-54260000D01*
X340297500Y-80840000D02*
X333890998Y-74433498D01*
X333620998Y-59530049D02*
X326159951Y-52069002D01*
%TO.N,Net-(J17-Pad10)*%
X341472500Y-82205000D02*
X342837500Y-80840000D01*
X339758896Y-82205000D02*
X341472500Y-82205000D01*
X235080000Y-54360000D02*
X235100000Y-54340000D01*
X325973762Y-52518503D02*
X333171497Y-59716238D01*
X333171497Y-59716238D02*
X333171497Y-60498567D01*
X333441497Y-75887601D02*
X339758896Y-82205000D01*
X236921497Y-52518503D02*
X325973762Y-52518503D01*
X227010000Y-54360000D02*
X235080000Y-54360000D01*
X235100000Y-54340000D02*
X236921497Y-52518503D01*
X333171497Y-60498567D02*
X333441497Y-60768567D01*
X333441497Y-60768567D02*
X333441497Y-75887601D01*
%TO.N,Net-(J17-Pad11)*%
X281328544Y-52971456D02*
X279830000Y-54470000D01*
X326615000Y-53795431D02*
X325791025Y-52971456D01*
X325791025Y-52971456D02*
X281328544Y-52971456D01*
X332991996Y-76074496D02*
X332991996Y-60954756D01*
X326615000Y-54577760D02*
X326615000Y-53795431D01*
X340297500Y-83380000D02*
X332991996Y-76074496D01*
X272000000Y-54270000D02*
X279630000Y-54270000D01*
X332991996Y-60954756D02*
X326615000Y-54577760D01*
X279630000Y-54270000D02*
X279830000Y-54470000D01*
%TO.N,Net-(J17-Pad12)*%
X332542495Y-77286696D02*
X339810799Y-84555000D01*
X325590000Y-54220000D02*
X332542495Y-61172495D01*
X339810799Y-84555000D02*
X341662500Y-84555000D01*
X317020000Y-54260000D02*
X325550000Y-54260000D01*
X332542495Y-61172495D02*
X332542495Y-77286696D01*
X325550000Y-54260000D02*
X325590000Y-54220000D01*
X341662500Y-84555000D02*
X342837500Y-83380000D01*
%TO.N,Net-(J17-Pad17)*%
X9935000Y-124300000D02*
X9980000Y-124255000D01*
X2010000Y-124300000D02*
X9935000Y-124300000D01*
%TO.N,Net-(J10-Pad2)*%
X1991599Y-121988401D02*
X1274091Y-121988401D01*
X1274091Y-121988401D02*
X866189Y-121580499D01*
X47000000Y-124240000D02*
X47914399Y-125154399D01*
X55190000Y-124265000D02*
X52913401Y-121988401D01*
X52913401Y-121988401D02*
X1991599Y-121988401D01*
X54300601Y-125154399D02*
X55190000Y-124265000D01*
X47914399Y-125154399D02*
X54300601Y-125154399D01*
%TO.N,Net-(J11-Pad2)*%
X99780000Y-124300000D02*
X99850000Y-124370000D01*
X92060000Y-124300000D02*
X99780000Y-124300000D01*
%TO.N,Net-(J12-Pad2)*%
X137050000Y-124410000D02*
X144790000Y-124410000D01*
X144790000Y-124410000D02*
X144850000Y-124470000D01*
%TO.N,Net-(J14-Pad2)*%
X235045000Y-124400000D02*
X235080000Y-124435000D01*
X226990000Y-124400000D02*
X235045000Y-124400000D01*
%TO.N,Net-(J15-Pad2)*%
X320916900Y-123080600D02*
X340297500Y-103700000D01*
X279900000Y-124410000D02*
X280250000Y-124060000D01*
X315846470Y-123080600D02*
X320916900Y-123080600D01*
X314532070Y-124395000D02*
X315846470Y-123080600D01*
X279630000Y-124395000D02*
X314532070Y-124395000D01*
X271990000Y-124410000D02*
X279900000Y-124410000D01*
%TO.N,Net-(J16-Pad2)*%
X317000000Y-124320000D02*
X325355000Y-124320000D01*
X339615000Y-110060000D02*
X343219201Y-110060000D01*
X344050000Y-109229201D02*
X344050000Y-104912500D01*
X325410000Y-124265000D02*
X339615000Y-110060000D01*
X325355000Y-124320000D02*
X325410000Y-124265000D01*
X343219201Y-110060000D02*
X344050000Y-109229201D01*
X344050000Y-104912500D02*
X342837500Y-103700000D01*
%TO.N,+3.3V*%
X97819500Y-128300500D02*
X99850000Y-126270000D01*
X52449500Y-58300500D02*
X54520000Y-56230000D01*
X317000000Y-128320500D02*
X323254500Y-128320500D01*
X143269500Y-58340500D02*
X144570000Y-57040000D01*
X142809500Y-128410500D02*
X144850000Y-126370000D01*
X44914500Y-126155000D02*
X47000000Y-128240500D01*
X55190000Y-126165000D02*
X89924500Y-126165000D01*
X9590000Y-56750000D02*
X45479500Y-56750000D01*
X54520000Y-56230000D02*
X90069500Y-56230000D01*
X187699500Y-58290500D02*
X189830000Y-56160000D01*
X89924500Y-126165000D02*
X92060000Y-128300500D01*
X317020000Y-58260500D02*
X323449500Y-58260500D01*
X323449500Y-58260500D02*
X325590000Y-56120000D01*
X47000000Y-128240500D02*
X53114500Y-128240500D01*
X224794500Y-126205000D02*
X226990000Y-128400500D01*
X53114500Y-128240500D02*
X55190000Y-126165000D01*
X269969500Y-56240000D02*
X272000000Y-58270500D01*
X47030000Y-58300500D02*
X52449500Y-58300500D01*
X144570000Y-57040000D02*
X180809500Y-57040000D01*
X134909500Y-126270000D02*
X137050000Y-128410500D01*
X224809500Y-56160000D02*
X227010000Y-58360500D01*
X1791000Y-58299500D02*
X1880500Y-58210000D01*
X279830000Y-56370000D02*
X315129500Y-56370000D01*
X189830000Y-56160000D02*
X224809500Y-56160000D01*
X232979500Y-58360500D02*
X235100000Y-56240000D01*
X45479500Y-56750000D02*
X47030000Y-58300500D01*
X99700000Y-56120000D02*
X134799500Y-56120000D01*
X9980000Y-126155000D02*
X44914500Y-126155000D01*
X90069500Y-56230000D02*
X92110000Y-58270500D01*
X233014500Y-128400500D02*
X235080000Y-126335000D01*
X269914500Y-126335000D02*
X271990000Y-128410500D01*
X180179500Y-126370000D02*
X182000000Y-128190500D01*
X227010000Y-58360500D02*
X232979500Y-58360500D01*
X180809500Y-57040000D02*
X182060000Y-58290500D01*
X323254500Y-128320500D02*
X325410000Y-126165000D01*
X314974500Y-126295000D02*
X317000000Y-128320500D01*
X279630000Y-126295000D02*
X314974500Y-126295000D01*
X271990000Y-128410500D02*
X277514500Y-128410500D01*
X235100000Y-56240000D02*
X269969500Y-56240000D01*
X97549500Y-58270500D02*
X99700000Y-56120000D01*
X1914500Y-58205000D02*
X2020000Y-58310500D01*
X182000000Y-128190500D02*
X188394500Y-128190500D01*
X99850000Y-126270000D02*
X134909500Y-126270000D01*
X190380000Y-126205000D02*
X224794500Y-126205000D01*
X188394500Y-128190500D02*
X190380000Y-126205000D01*
X235080000Y-126335000D02*
X269914500Y-126335000D01*
X8029500Y-58310500D02*
X9590000Y-56750000D01*
X137020000Y-58340500D02*
X143269500Y-58340500D01*
X182060000Y-58290500D02*
X187699500Y-58290500D01*
X7834500Y-128300500D02*
X9980000Y-126155000D01*
X2010000Y-128300500D02*
X7834500Y-128300500D01*
X-16560000Y-58205000D02*
X1914500Y-58205000D01*
X134799500Y-56120000D02*
X137020000Y-58340500D01*
X92110000Y-58270500D02*
X97549500Y-58270500D01*
X272000000Y-58270500D02*
X277929500Y-58270500D01*
X137050000Y-128410500D02*
X142809500Y-128410500D01*
X315129500Y-56370000D02*
X317020000Y-58260500D01*
X92060000Y-128300500D02*
X97819500Y-128300500D01*
X277929500Y-58270500D02*
X279830000Y-56370000D01*
X144850000Y-126370000D02*
X180179500Y-126370000D01*
X277514500Y-128410500D02*
X279630000Y-126295000D01*
X2020000Y-58310500D02*
X8029500Y-58310500D01*
X226990000Y-128400500D02*
X233014500Y-128400500D01*
%TO.N,Net-(J13-Pad2)*%
X190265000Y-124190000D02*
X190380000Y-124305000D01*
X182000000Y-124190000D02*
X190265000Y-124190000D01*
%TO.N,Net-(J17-Pad4)*%
X137020000Y-54340000D02*
X143770000Y-54340000D01*
X143770000Y-54340000D02*
X144570000Y-55140000D01*
%TD*%
M02*
