%TF.GenerationSoftware,KiCad,Pcbnew,(6.0.9)*%
%TF.CreationDate,2022-12-09T14:19:55+01:00*%
%TF.ProjectId,seq,7365712e-6b69-4636-9164-5f7063625858,rev?*%
%TF.SameCoordinates,Original*%
%TF.FileFunction,Drillmap*%
%TF.FilePolarity,Positive*%
%FSLAX45Y45*%
G04 Gerber Fmt 4.5, Leading zero omitted, Abs format (unit mm)*
G04 Created by KiCad (PCBNEW (6.0.9)) date 2022-12-09 14:19:55*
%MOMM*%
%LPD*%
G01*
G04 APERTURE LIST*
%ADD10C,0.200000*%
%ADD11C,0.304800*%
%ADD12C,0.320000*%
G04 APERTURE END LIST*
D10*
D11*
X48600Y-11377424D02*
X353400Y-11682224D01*
X353400Y-11377424D02*
X48600Y-11682224D01*
X48600Y-13177776D02*
X353400Y-13482576D01*
X353400Y-13177776D02*
X48600Y-13482576D01*
X49600Y-4378424D02*
X354400Y-4683224D01*
X354400Y-4378424D02*
X49600Y-4683224D01*
X49600Y-6178776D02*
X354400Y-6483576D01*
X354400Y-6178776D02*
X49600Y-6483576D01*
X4547600Y-11371424D02*
X4852400Y-11676224D01*
X4852400Y-11371424D02*
X4547600Y-11676224D01*
X4547600Y-13171776D02*
X4852400Y-13476576D01*
X4852400Y-13171776D02*
X4547600Y-13476576D01*
X4550600Y-4377424D02*
X4855400Y-4682224D01*
X4855400Y-4377424D02*
X4550600Y-4682224D01*
X4550600Y-6177776D02*
X4855400Y-6482576D01*
X4855400Y-6177776D02*
X4550600Y-6482576D01*
X9053600Y-11377424D02*
X9358400Y-11682224D01*
X9358400Y-11377424D02*
X9053600Y-11682224D01*
X9053600Y-13177776D02*
X9358400Y-13482576D01*
X9358400Y-13177776D02*
X9053600Y-13482576D01*
X9058600Y-4374424D02*
X9363400Y-4679224D01*
X9363400Y-4374424D02*
X9058600Y-4679224D01*
X9058600Y-6174776D02*
X9363400Y-6479576D01*
X9363400Y-6174776D02*
X9058600Y-6479576D01*
X13549600Y-4381424D02*
X13854400Y-4686224D01*
X13854400Y-4381424D02*
X13549600Y-4686224D01*
X13549600Y-6181776D02*
X13854400Y-6486576D01*
X13854400Y-6181776D02*
X13549600Y-6486576D01*
X13552600Y-11388424D02*
X13857400Y-11693224D01*
X13857400Y-11388424D02*
X13552600Y-11693224D01*
X13552600Y-13188776D02*
X13857400Y-13493576D01*
X13857400Y-13188776D02*
X13552600Y-13493576D01*
X18047600Y-11366424D02*
X18352400Y-11671224D01*
X18352400Y-11366424D02*
X18047600Y-11671224D01*
X18047600Y-13166776D02*
X18352400Y-13471576D01*
X18352400Y-13166776D02*
X18047600Y-13471576D01*
X18053600Y-4376424D02*
X18358400Y-4681224D01*
X18358400Y-4376424D02*
X18053600Y-4681224D01*
X18053600Y-6176776D02*
X18358400Y-6481576D01*
X18358400Y-6176776D02*
X18053600Y-6481576D01*
X22546600Y-11387424D02*
X22851400Y-11692224D01*
X22851400Y-11387424D02*
X22546600Y-11692224D01*
X22546600Y-13187776D02*
X22851400Y-13492576D01*
X22851400Y-13187776D02*
X22546600Y-13492576D01*
X22548600Y-4383424D02*
X22853400Y-4688224D01*
X22853400Y-4383424D02*
X22548600Y-4688224D01*
X22548600Y-6183776D02*
X22853400Y-6488576D01*
X22853400Y-6183776D02*
X22548600Y-6488576D01*
X27046600Y-11388424D02*
X27351400Y-11693224D01*
X27351400Y-11388424D02*
X27046600Y-11693224D01*
X27046600Y-13188776D02*
X27351400Y-13493576D01*
X27351400Y-13188776D02*
X27046600Y-13493576D01*
X27047600Y-4374424D02*
X27352400Y-4679224D01*
X27352400Y-4374424D02*
X27047600Y-4679224D01*
X27047600Y-6174776D02*
X27352400Y-6479576D01*
X27352400Y-6174776D02*
X27047600Y-6479576D01*
X31547600Y-11379424D02*
X31852400Y-11684224D01*
X31852400Y-11379424D02*
X31547600Y-11684224D01*
X31547600Y-13179776D02*
X31852400Y-13484576D01*
X31852400Y-13179776D02*
X31547600Y-13484576D01*
X31549600Y-4373424D02*
X31854400Y-4678224D01*
X31854400Y-4373424D02*
X31549600Y-4678224D01*
X31549600Y-6173776D02*
X31854400Y-6478576D01*
X31854400Y-6173776D02*
X31549600Y-6478576D01*
D12*
X-1497000Y-13666000D02*
G75*
G03*
X-1497000Y-13666000I-160000J0D01*
G01*
X-1495000Y-4170000D02*
G75*
G03*
X-1495000Y-4170000I-160000J0D01*
G01*
X35005000Y-4170000D02*
G75*
G03*
X35005000Y-4170000I-160000J0D01*
G01*
X35005000Y-13670000D02*
G75*
G03*
X35005000Y-13670000I-160000J0D01*
G01*
D10*
X257619Y-310476D02*
X257619Y-110476D01*
X305238Y-110476D01*
X333810Y-120000D01*
X352857Y-139048D01*
X362381Y-158095D01*
X371905Y-196190D01*
X371905Y-224762D01*
X362381Y-262857D01*
X352857Y-281905D01*
X333810Y-300952D01*
X305238Y-310476D01*
X257619Y-310476D01*
X457619Y-310476D02*
X457619Y-177143D01*
X457619Y-215238D02*
X467143Y-196190D01*
X476667Y-186667D01*
X495714Y-177143D01*
X514762Y-177143D01*
X581429Y-310476D02*
X581429Y-177143D01*
X581429Y-110476D02*
X571905Y-120000D01*
X581429Y-129524D01*
X590952Y-120000D01*
X581429Y-110476D01*
X581429Y-129524D01*
X705238Y-310476D02*
X686190Y-300952D01*
X676667Y-281905D01*
X676667Y-110476D01*
X810000Y-310476D02*
X790952Y-300952D01*
X781428Y-281905D01*
X781428Y-110476D01*
X1038571Y-310476D02*
X1038571Y-110476D01*
X1105238Y-253333D01*
X1171905Y-110476D01*
X1171905Y-310476D01*
X1352857Y-310476D02*
X1352857Y-205714D01*
X1343333Y-186667D01*
X1324286Y-177143D01*
X1286190Y-177143D01*
X1267143Y-186667D01*
X1352857Y-300952D02*
X1333810Y-310476D01*
X1286190Y-310476D01*
X1267143Y-300952D01*
X1257619Y-281905D01*
X1257619Y-262857D01*
X1267143Y-243809D01*
X1286190Y-234286D01*
X1333810Y-234286D01*
X1352857Y-224762D01*
X1448095Y-177143D02*
X1448095Y-377143D01*
X1448095Y-186667D02*
X1467143Y-177143D01*
X1505238Y-177143D01*
X1524286Y-186667D01*
X1533809Y-196190D01*
X1543333Y-215238D01*
X1543333Y-272381D01*
X1533809Y-291429D01*
X1524286Y-300952D01*
X1505238Y-310476D01*
X1467143Y-310476D01*
X1448095Y-300952D01*
X1629048Y-291429D02*
X1638571Y-300952D01*
X1629048Y-310476D01*
X1619524Y-300952D01*
X1629048Y-291429D01*
X1629048Y-310476D01*
X1629048Y-186667D02*
X1638571Y-196190D01*
X1629048Y-205714D01*
X1619524Y-196190D01*
X1629048Y-186667D01*
X1629048Y-205714D01*
X-200000Y-540000D02*
X0Y-740000D01*
X0Y-540000D02*
X-200000Y-740000D01*
X238571Y-530476D02*
X362381Y-530476D01*
X295714Y-606667D01*
X324286Y-606667D01*
X343333Y-616190D01*
X352857Y-625714D01*
X362381Y-644762D01*
X362381Y-692381D01*
X352857Y-711428D01*
X343333Y-720952D01*
X324286Y-730476D01*
X267143Y-730476D01*
X248095Y-720952D01*
X238571Y-711428D01*
X448095Y-711428D02*
X457619Y-720952D01*
X448095Y-730476D01*
X438571Y-720952D01*
X448095Y-711428D01*
X448095Y-730476D01*
X581429Y-530476D02*
X600476Y-530476D01*
X619524Y-540000D01*
X629048Y-549524D01*
X638571Y-568571D01*
X648095Y-606667D01*
X648095Y-654286D01*
X638571Y-692381D01*
X629048Y-711428D01*
X619524Y-720952D01*
X600476Y-730476D01*
X581429Y-730476D01*
X562381Y-720952D01*
X552857Y-711428D01*
X543333Y-692381D01*
X533810Y-654286D01*
X533810Y-606667D01*
X543333Y-568571D01*
X552857Y-549524D01*
X562381Y-540000D01*
X581429Y-530476D01*
X819524Y-597143D02*
X819524Y-730476D01*
X771905Y-520952D02*
X724286Y-663810D01*
X848095Y-663810D01*
X952857Y-616190D02*
X933809Y-606667D01*
X924286Y-597143D01*
X914762Y-578095D01*
X914762Y-568571D01*
X924286Y-549524D01*
X933809Y-540000D01*
X952857Y-530476D01*
X990952Y-530476D01*
X1010000Y-540000D01*
X1019524Y-549524D01*
X1029048Y-568571D01*
X1029048Y-578095D01*
X1019524Y-597143D01*
X1010000Y-606667D01*
X990952Y-616190D01*
X952857Y-616190D01*
X933809Y-625714D01*
X924286Y-635238D01*
X914762Y-654286D01*
X914762Y-692381D01*
X924286Y-711428D01*
X933809Y-720952D01*
X952857Y-730476D01*
X990952Y-730476D01*
X1010000Y-720952D01*
X1019524Y-711428D01*
X1029048Y-692381D01*
X1029048Y-654286D01*
X1019524Y-635238D01*
X1010000Y-625714D01*
X990952Y-616190D01*
X1114762Y-730476D02*
X1114762Y-597143D01*
X1114762Y-616190D02*
X1124286Y-606667D01*
X1143333Y-597143D01*
X1171905Y-597143D01*
X1190952Y-606667D01*
X1200476Y-625714D01*
X1200476Y-730476D01*
X1200476Y-625714D02*
X1210000Y-606667D01*
X1229048Y-597143D01*
X1257619Y-597143D01*
X1276667Y-606667D01*
X1286190Y-625714D01*
X1286190Y-730476D01*
X1381429Y-730476D02*
X1381429Y-597143D01*
X1381429Y-616190D02*
X1390952Y-606667D01*
X1410000Y-597143D01*
X1438571Y-597143D01*
X1457619Y-606667D01*
X1467143Y-625714D01*
X1467143Y-730476D01*
X1467143Y-625714D02*
X1476667Y-606667D01*
X1495714Y-597143D01*
X1524286Y-597143D01*
X1543333Y-606667D01*
X1552857Y-625714D01*
X1552857Y-730476D01*
X1943333Y-520952D02*
X1771905Y-778095D01*
X2200476Y-530476D02*
X2219524Y-530476D01*
X2238571Y-540000D01*
X2248095Y-549524D01*
X2257619Y-568571D01*
X2267143Y-606667D01*
X2267143Y-654286D01*
X2257619Y-692381D01*
X2248095Y-711428D01*
X2238571Y-720952D01*
X2219524Y-730476D01*
X2200476Y-730476D01*
X2181429Y-720952D01*
X2171905Y-711428D01*
X2162381Y-692381D01*
X2152857Y-654286D01*
X2152857Y-606667D01*
X2162381Y-568571D01*
X2171905Y-549524D01*
X2181429Y-540000D01*
X2200476Y-530476D01*
X2352857Y-711428D02*
X2362381Y-720952D01*
X2352857Y-730476D01*
X2343333Y-720952D01*
X2352857Y-711428D01*
X2352857Y-730476D01*
X2552857Y-730476D02*
X2438571Y-730476D01*
X2495714Y-730476D02*
X2495714Y-530476D01*
X2476667Y-559048D01*
X2457619Y-578095D01*
X2438571Y-587619D01*
X2629048Y-549524D02*
X2638571Y-540000D01*
X2657619Y-530476D01*
X2705238Y-530476D01*
X2724286Y-540000D01*
X2733810Y-549524D01*
X2743333Y-568571D01*
X2743333Y-587619D01*
X2733810Y-616190D01*
X2619524Y-730476D01*
X2743333Y-730476D01*
X2867143Y-530476D02*
X2886190Y-530476D01*
X2905238Y-540000D01*
X2914762Y-549524D01*
X2924286Y-568571D01*
X2933809Y-606667D01*
X2933809Y-654286D01*
X2924286Y-692381D01*
X2914762Y-711428D01*
X2905238Y-720952D01*
X2886190Y-730476D01*
X2867143Y-730476D01*
X2848095Y-720952D01*
X2838571Y-711428D01*
X2829048Y-692381D01*
X2819524Y-654286D01*
X2819524Y-606667D01*
X2829048Y-568571D01*
X2838571Y-549524D01*
X2848095Y-540000D01*
X2867143Y-530476D01*
X3057619Y-530476D02*
X3076667Y-530476D01*
X3095714Y-540000D01*
X3105238Y-549524D01*
X3114762Y-568571D01*
X3124286Y-606667D01*
X3124286Y-654286D01*
X3114762Y-692381D01*
X3105238Y-711428D01*
X3095714Y-720952D01*
X3076667Y-730476D01*
X3057619Y-730476D01*
X3038571Y-720952D01*
X3029048Y-711428D01*
X3019524Y-692381D01*
X3010000Y-654286D01*
X3010000Y-606667D01*
X3019524Y-568571D01*
X3029048Y-549524D01*
X3038571Y-540000D01*
X3057619Y-530476D01*
X3200476Y-530476D02*
X3200476Y-568571D01*
X3276667Y-530476D02*
X3276667Y-568571D01*
X3571905Y-806667D02*
X3562381Y-797143D01*
X3543333Y-768571D01*
X3533809Y-749524D01*
X3524286Y-720952D01*
X3514762Y-673333D01*
X3514762Y-635238D01*
X3524286Y-587619D01*
X3533809Y-559048D01*
X3543333Y-540000D01*
X3562381Y-511428D01*
X3571905Y-501905D01*
X3629048Y-530476D02*
X3752857Y-530476D01*
X3686190Y-606667D01*
X3714762Y-606667D01*
X3733809Y-616190D01*
X3743333Y-625714D01*
X3752857Y-644762D01*
X3752857Y-692381D01*
X3743333Y-711428D01*
X3733809Y-720952D01*
X3714762Y-730476D01*
X3657619Y-730476D01*
X3638571Y-720952D01*
X3629048Y-711428D01*
X3829048Y-549524D02*
X3838571Y-540000D01*
X3857619Y-530476D01*
X3905238Y-530476D01*
X3924286Y-540000D01*
X3933809Y-549524D01*
X3943333Y-568571D01*
X3943333Y-587619D01*
X3933809Y-616190D01*
X3819524Y-730476D01*
X3943333Y-730476D01*
X4181428Y-730476D02*
X4181428Y-530476D01*
X4267143Y-730476D02*
X4267143Y-625714D01*
X4257619Y-606667D01*
X4238571Y-597143D01*
X4210000Y-597143D01*
X4190952Y-606667D01*
X4181428Y-616190D01*
X4390952Y-730476D02*
X4371905Y-720952D01*
X4362381Y-711428D01*
X4352857Y-692381D01*
X4352857Y-635238D01*
X4362381Y-616190D01*
X4371905Y-606667D01*
X4390952Y-597143D01*
X4419524Y-597143D01*
X4438571Y-606667D01*
X4448095Y-616190D01*
X4457619Y-635238D01*
X4457619Y-692381D01*
X4448095Y-711428D01*
X4438571Y-720952D01*
X4419524Y-730476D01*
X4390952Y-730476D01*
X4571905Y-730476D02*
X4552857Y-720952D01*
X4543333Y-701905D01*
X4543333Y-530476D01*
X4724286Y-720952D02*
X4705238Y-730476D01*
X4667143Y-730476D01*
X4648095Y-720952D01*
X4638571Y-701905D01*
X4638571Y-625714D01*
X4648095Y-606667D01*
X4667143Y-597143D01*
X4705238Y-597143D01*
X4724286Y-606667D01*
X4733810Y-625714D01*
X4733810Y-644762D01*
X4638571Y-663810D01*
X4810000Y-720952D02*
X4829048Y-730476D01*
X4867143Y-730476D01*
X4886190Y-720952D01*
X4895714Y-701905D01*
X4895714Y-692381D01*
X4886190Y-673333D01*
X4867143Y-663810D01*
X4838571Y-663810D01*
X4819524Y-654286D01*
X4810000Y-635238D01*
X4810000Y-625714D01*
X4819524Y-606667D01*
X4838571Y-597143D01*
X4867143Y-597143D01*
X4886190Y-606667D01*
X4962381Y-806667D02*
X4971905Y-797143D01*
X4990952Y-768571D01*
X5000476Y-749524D01*
X5010000Y-720952D01*
X5019524Y-673333D01*
X5019524Y-635238D01*
X5010000Y-587619D01*
X5000476Y-559048D01*
X4990952Y-540000D01*
X4971905Y-511428D01*
X4962381Y-501905D01*
X5324286Y-806667D02*
X5314762Y-797143D01*
X5295714Y-768571D01*
X5286190Y-749524D01*
X5276667Y-720952D01*
X5267143Y-673333D01*
X5267143Y-635238D01*
X5276667Y-587619D01*
X5286190Y-559048D01*
X5295714Y-540000D01*
X5314762Y-511428D01*
X5324286Y-501905D01*
X5400476Y-597143D02*
X5400476Y-730476D01*
X5400476Y-616190D02*
X5410000Y-606667D01*
X5429048Y-597143D01*
X5457619Y-597143D01*
X5476667Y-606667D01*
X5486190Y-625714D01*
X5486190Y-730476D01*
X5610000Y-730476D02*
X5590952Y-720952D01*
X5581429Y-711428D01*
X5571905Y-692381D01*
X5571905Y-635238D01*
X5581429Y-616190D01*
X5590952Y-606667D01*
X5610000Y-597143D01*
X5638571Y-597143D01*
X5657619Y-606667D01*
X5667143Y-616190D01*
X5676667Y-635238D01*
X5676667Y-692381D01*
X5667143Y-711428D01*
X5657619Y-720952D01*
X5638571Y-730476D01*
X5610000Y-730476D01*
X5733809Y-597143D02*
X5810000Y-597143D01*
X5762381Y-530476D02*
X5762381Y-701905D01*
X5771905Y-720952D01*
X5790952Y-730476D01*
X5810000Y-730476D01*
X6029048Y-597143D02*
X6029048Y-797143D01*
X6029048Y-606667D02*
X6048095Y-597143D01*
X6086190Y-597143D01*
X6105238Y-606667D01*
X6114762Y-616190D01*
X6124286Y-635238D01*
X6124286Y-692381D01*
X6114762Y-711428D01*
X6105238Y-720952D01*
X6086190Y-730476D01*
X6048095Y-730476D01*
X6029048Y-720952D01*
X6238571Y-730476D02*
X6219524Y-720952D01*
X6210000Y-701905D01*
X6210000Y-530476D01*
X6400476Y-730476D02*
X6400476Y-625714D01*
X6390952Y-606667D01*
X6371905Y-597143D01*
X6333809Y-597143D01*
X6314762Y-606667D01*
X6400476Y-720952D02*
X6381428Y-730476D01*
X6333809Y-730476D01*
X6314762Y-720952D01*
X6305238Y-701905D01*
X6305238Y-682857D01*
X6314762Y-663810D01*
X6333809Y-654286D01*
X6381428Y-654286D01*
X6400476Y-644762D01*
X6467143Y-597143D02*
X6543333Y-597143D01*
X6495714Y-530476D02*
X6495714Y-701905D01*
X6505238Y-720952D01*
X6524286Y-730476D01*
X6543333Y-730476D01*
X6686190Y-720952D02*
X6667143Y-730476D01*
X6629048Y-730476D01*
X6610000Y-720952D01*
X6600476Y-701905D01*
X6600476Y-625714D01*
X6610000Y-606667D01*
X6629048Y-597143D01*
X6667143Y-597143D01*
X6686190Y-606667D01*
X6695714Y-625714D01*
X6695714Y-644762D01*
X6600476Y-663810D01*
X6867143Y-730476D02*
X6867143Y-530476D01*
X6867143Y-720952D02*
X6848095Y-730476D01*
X6810000Y-730476D01*
X6790952Y-720952D01*
X6781428Y-711428D01*
X6771905Y-692381D01*
X6771905Y-635238D01*
X6781428Y-616190D01*
X6790952Y-606667D01*
X6810000Y-597143D01*
X6848095Y-597143D01*
X6867143Y-606667D01*
X6943333Y-806667D02*
X6952857Y-797143D01*
X6971905Y-768571D01*
X6981428Y-749524D01*
X6990952Y-720952D01*
X7000476Y-673333D01*
X7000476Y-635238D01*
X6990952Y-587619D01*
X6981428Y-559048D01*
X6971905Y-540000D01*
X6952857Y-511428D01*
X6943333Y-501905D01*
X0Y-960000D02*
G75*
G03*
X0Y-960000I-100000J0D01*
G01*
X238571Y-850476D02*
X362381Y-850476D01*
X295714Y-926667D01*
X324286Y-926667D01*
X343333Y-936190D01*
X352857Y-945714D01*
X362381Y-964762D01*
X362381Y-1012381D01*
X352857Y-1031428D01*
X343333Y-1040952D01*
X324286Y-1050476D01*
X267143Y-1050476D01*
X248095Y-1040952D01*
X238571Y-1031428D01*
X448095Y-1031428D02*
X457619Y-1040952D01*
X448095Y-1050476D01*
X438571Y-1040952D01*
X448095Y-1031428D01*
X448095Y-1050476D01*
X533810Y-869524D02*
X543333Y-860000D01*
X562381Y-850476D01*
X610000Y-850476D01*
X629048Y-860000D01*
X638571Y-869524D01*
X648095Y-888571D01*
X648095Y-907619D01*
X638571Y-936190D01*
X524286Y-1050476D01*
X648095Y-1050476D01*
X771905Y-850476D02*
X790952Y-850476D01*
X810000Y-860000D01*
X819524Y-869524D01*
X829048Y-888571D01*
X838571Y-926667D01*
X838571Y-974286D01*
X829048Y-1012381D01*
X819524Y-1031428D01*
X810000Y-1040952D01*
X790952Y-1050476D01*
X771905Y-1050476D01*
X752857Y-1040952D01*
X743333Y-1031428D01*
X733809Y-1012381D01*
X724286Y-974286D01*
X724286Y-926667D01*
X733809Y-888571D01*
X743333Y-869524D01*
X752857Y-860000D01*
X771905Y-850476D01*
X962381Y-850476D02*
X981428Y-850476D01*
X1000476Y-860000D01*
X1010000Y-869524D01*
X1019524Y-888571D01*
X1029048Y-926667D01*
X1029048Y-974286D01*
X1019524Y-1012381D01*
X1010000Y-1031428D01*
X1000476Y-1040952D01*
X981428Y-1050476D01*
X962381Y-1050476D01*
X943333Y-1040952D01*
X933809Y-1031428D01*
X924286Y-1012381D01*
X914762Y-974286D01*
X914762Y-926667D01*
X924286Y-888571D01*
X933809Y-869524D01*
X943333Y-860000D01*
X962381Y-850476D01*
X1114762Y-1050476D02*
X1114762Y-917143D01*
X1114762Y-936190D02*
X1124286Y-926667D01*
X1143333Y-917143D01*
X1171905Y-917143D01*
X1190952Y-926667D01*
X1200476Y-945714D01*
X1200476Y-1050476D01*
X1200476Y-945714D02*
X1210000Y-926667D01*
X1229048Y-917143D01*
X1257619Y-917143D01*
X1276667Y-926667D01*
X1286190Y-945714D01*
X1286190Y-1050476D01*
X1381429Y-1050476D02*
X1381429Y-917143D01*
X1381429Y-936190D02*
X1390952Y-926667D01*
X1410000Y-917143D01*
X1438571Y-917143D01*
X1457619Y-926667D01*
X1467143Y-945714D01*
X1467143Y-1050476D01*
X1467143Y-945714D02*
X1476667Y-926667D01*
X1495714Y-917143D01*
X1524286Y-917143D01*
X1543333Y-926667D01*
X1552857Y-945714D01*
X1552857Y-1050476D01*
X1943333Y-840952D02*
X1771905Y-1098095D01*
X2200476Y-850476D02*
X2219524Y-850476D01*
X2238571Y-860000D01*
X2248095Y-869524D01*
X2257619Y-888571D01*
X2267143Y-926667D01*
X2267143Y-974286D01*
X2257619Y-1012381D01*
X2248095Y-1031428D01*
X2238571Y-1040952D01*
X2219524Y-1050476D01*
X2200476Y-1050476D01*
X2181429Y-1040952D01*
X2171905Y-1031428D01*
X2162381Y-1012381D01*
X2152857Y-974286D01*
X2152857Y-926667D01*
X2162381Y-888571D01*
X2171905Y-869524D01*
X2181429Y-860000D01*
X2200476Y-850476D01*
X2352857Y-1031428D02*
X2362381Y-1040952D01*
X2352857Y-1050476D01*
X2343333Y-1040952D01*
X2352857Y-1031428D01*
X2352857Y-1050476D01*
X2552857Y-1050476D02*
X2438571Y-1050476D01*
X2495714Y-1050476D02*
X2495714Y-850476D01*
X2476667Y-879048D01*
X2457619Y-898095D01*
X2438571Y-907619D01*
X2629048Y-869524D02*
X2638571Y-860000D01*
X2657619Y-850476D01*
X2705238Y-850476D01*
X2724286Y-860000D01*
X2733810Y-869524D01*
X2743333Y-888571D01*
X2743333Y-907619D01*
X2733810Y-936190D01*
X2619524Y-1050476D01*
X2743333Y-1050476D01*
X2914762Y-850476D02*
X2876667Y-850476D01*
X2857619Y-860000D01*
X2848095Y-869524D01*
X2829048Y-898095D01*
X2819524Y-936190D01*
X2819524Y-1012381D01*
X2829048Y-1031428D01*
X2838571Y-1040952D01*
X2857619Y-1050476D01*
X2895714Y-1050476D01*
X2914762Y-1040952D01*
X2924286Y-1031428D01*
X2933809Y-1012381D01*
X2933809Y-964762D01*
X2924286Y-945714D01*
X2914762Y-936190D01*
X2895714Y-926667D01*
X2857619Y-926667D01*
X2838571Y-936190D01*
X2829048Y-945714D01*
X2819524Y-964762D01*
X3057619Y-850476D02*
X3076667Y-850476D01*
X3095714Y-860000D01*
X3105238Y-869524D01*
X3114762Y-888571D01*
X3124286Y-926667D01*
X3124286Y-974286D01*
X3114762Y-1012381D01*
X3105238Y-1031428D01*
X3095714Y-1040952D01*
X3076667Y-1050476D01*
X3057619Y-1050476D01*
X3038571Y-1040952D01*
X3029048Y-1031428D01*
X3019524Y-1012381D01*
X3010000Y-974286D01*
X3010000Y-926667D01*
X3019524Y-888571D01*
X3029048Y-869524D01*
X3038571Y-860000D01*
X3057619Y-850476D01*
X3200476Y-850476D02*
X3200476Y-888571D01*
X3276667Y-850476D02*
X3276667Y-888571D01*
X3571905Y-1126667D02*
X3562381Y-1117143D01*
X3543333Y-1088571D01*
X3533809Y-1069524D01*
X3524286Y-1040952D01*
X3514762Y-993333D01*
X3514762Y-955238D01*
X3524286Y-907619D01*
X3533809Y-879048D01*
X3543333Y-860000D01*
X3562381Y-831428D01*
X3571905Y-821905D01*
X3733809Y-917143D02*
X3733809Y-1050476D01*
X3686190Y-840952D02*
X3638571Y-983809D01*
X3762381Y-983809D01*
X3990952Y-1050476D02*
X3990952Y-850476D01*
X4076667Y-1050476D02*
X4076667Y-945714D01*
X4067143Y-926667D01*
X4048095Y-917143D01*
X4019524Y-917143D01*
X4000476Y-926667D01*
X3990952Y-936190D01*
X4200476Y-1050476D02*
X4181428Y-1040952D01*
X4171905Y-1031428D01*
X4162381Y-1012381D01*
X4162381Y-955238D01*
X4171905Y-936190D01*
X4181428Y-926667D01*
X4200476Y-917143D01*
X4229048Y-917143D01*
X4248095Y-926667D01*
X4257619Y-936190D01*
X4267143Y-955238D01*
X4267143Y-1012381D01*
X4257619Y-1031428D01*
X4248095Y-1040952D01*
X4229048Y-1050476D01*
X4200476Y-1050476D01*
X4381429Y-1050476D02*
X4362381Y-1040952D01*
X4352857Y-1021905D01*
X4352857Y-850476D01*
X4533810Y-1040952D02*
X4514762Y-1050476D01*
X4476667Y-1050476D01*
X4457619Y-1040952D01*
X4448095Y-1021905D01*
X4448095Y-945714D01*
X4457619Y-926667D01*
X4476667Y-917143D01*
X4514762Y-917143D01*
X4533810Y-926667D01*
X4543333Y-945714D01*
X4543333Y-964762D01*
X4448095Y-983809D01*
X4619524Y-1040952D02*
X4638571Y-1050476D01*
X4676667Y-1050476D01*
X4695714Y-1040952D01*
X4705238Y-1021905D01*
X4705238Y-1012381D01*
X4695714Y-993333D01*
X4676667Y-983809D01*
X4648095Y-983809D01*
X4629048Y-974286D01*
X4619524Y-955238D01*
X4619524Y-945714D01*
X4629048Y-926667D01*
X4648095Y-917143D01*
X4676667Y-917143D01*
X4695714Y-926667D01*
X4771905Y-1126667D02*
X4781429Y-1117143D01*
X4800476Y-1088571D01*
X4810000Y-1069524D01*
X4819524Y-1040952D01*
X4829048Y-993333D01*
X4829048Y-955238D01*
X4819524Y-907619D01*
X4810000Y-879048D01*
X4800476Y-860000D01*
X4781429Y-831428D01*
X4771905Y-821905D01*
X5133810Y-1126667D02*
X5124286Y-1117143D01*
X5105238Y-1088571D01*
X5095714Y-1069524D01*
X5086190Y-1040952D01*
X5076667Y-993333D01*
X5076667Y-955238D01*
X5086190Y-907619D01*
X5095714Y-879048D01*
X5105238Y-860000D01*
X5124286Y-831428D01*
X5133810Y-821905D01*
X5210000Y-917143D02*
X5210000Y-1050476D01*
X5210000Y-936190D02*
X5219524Y-926667D01*
X5238571Y-917143D01*
X5267143Y-917143D01*
X5286190Y-926667D01*
X5295714Y-945714D01*
X5295714Y-1050476D01*
X5419524Y-1050476D02*
X5400476Y-1040952D01*
X5390952Y-1031428D01*
X5381429Y-1012381D01*
X5381429Y-955238D01*
X5390952Y-936190D01*
X5400476Y-926667D01*
X5419524Y-917143D01*
X5448095Y-917143D01*
X5467143Y-926667D01*
X5476667Y-936190D01*
X5486190Y-955238D01*
X5486190Y-1012381D01*
X5476667Y-1031428D01*
X5467143Y-1040952D01*
X5448095Y-1050476D01*
X5419524Y-1050476D01*
X5543333Y-917143D02*
X5619524Y-917143D01*
X5571905Y-850476D02*
X5571905Y-1021905D01*
X5581429Y-1040952D01*
X5600476Y-1050476D01*
X5619524Y-1050476D01*
X5838571Y-917143D02*
X5838571Y-1117143D01*
X5838571Y-926667D02*
X5857619Y-917143D01*
X5895714Y-917143D01*
X5914762Y-926667D01*
X5924286Y-936190D01*
X5933809Y-955238D01*
X5933809Y-1012381D01*
X5924286Y-1031428D01*
X5914762Y-1040952D01*
X5895714Y-1050476D01*
X5857619Y-1050476D01*
X5838571Y-1040952D01*
X6048095Y-1050476D02*
X6029048Y-1040952D01*
X6019524Y-1021905D01*
X6019524Y-850476D01*
X6210000Y-1050476D02*
X6210000Y-945714D01*
X6200476Y-926667D01*
X6181428Y-917143D01*
X6143333Y-917143D01*
X6124286Y-926667D01*
X6210000Y-1040952D02*
X6190952Y-1050476D01*
X6143333Y-1050476D01*
X6124286Y-1040952D01*
X6114762Y-1021905D01*
X6114762Y-1002857D01*
X6124286Y-983809D01*
X6143333Y-974286D01*
X6190952Y-974286D01*
X6210000Y-964762D01*
X6276667Y-917143D02*
X6352857Y-917143D01*
X6305238Y-850476D02*
X6305238Y-1021905D01*
X6314762Y-1040952D01*
X6333809Y-1050476D01*
X6352857Y-1050476D01*
X6495714Y-1040952D02*
X6476667Y-1050476D01*
X6438571Y-1050476D01*
X6419524Y-1040952D01*
X6410000Y-1021905D01*
X6410000Y-945714D01*
X6419524Y-926667D01*
X6438571Y-917143D01*
X6476667Y-917143D01*
X6495714Y-926667D01*
X6505238Y-945714D01*
X6505238Y-964762D01*
X6410000Y-983809D01*
X6676667Y-1050476D02*
X6676667Y-850476D01*
X6676667Y-1040952D02*
X6657619Y-1050476D01*
X6619524Y-1050476D01*
X6600476Y-1040952D01*
X6590952Y-1031428D01*
X6581428Y-1012381D01*
X6581428Y-955238D01*
X6590952Y-936190D01*
X6600476Y-926667D01*
X6619524Y-917143D01*
X6657619Y-917143D01*
X6676667Y-926667D01*
X6752857Y-1126667D02*
X6762381Y-1117143D01*
X6781428Y-1088571D01*
X6790952Y-1069524D01*
X6800476Y-1040952D01*
X6810000Y-993333D01*
X6810000Y-955238D01*
X6800476Y-907619D01*
X6790952Y-879048D01*
X6781428Y-860000D01*
X6762381Y-831428D01*
X6752857Y-821905D01*
M02*
