%TF.GenerationSoftware,KiCad,Pcbnew,(6.0.9)*%
%TF.CreationDate,2022-12-09T14:18:12+01:00*%
%TF.ProjectId,seq,7365712e-6b69-4636-9164-5f7063625858,rev?*%
%TF.SameCoordinates,Original*%
%TF.FileFunction,Copper,L2,Bot*%
%TF.FilePolarity,Positive*%
%FSLAX46Y46*%
G04 Gerber Fmt 4.6, Leading zero omitted, Abs format (unit mm)*
G04 Created by KiCad (PCBNEW (6.0.9)) date 2022-12-09 14:18:12*
%MOMM*%
%LPD*%
G01*
G04 APERTURE LIST*
G04 Aperture macros list*
%AMRoundRect*
0 Rectangle with rounded corners*
0 $1 Rounding radius*
0 $2 $3 $4 $5 $6 $7 $8 $9 X,Y pos of 4 corners*
0 Add a 4 corners polygon primitive as box body*
4,1,4,$2,$3,$4,$5,$6,$7,$8,$9,$2,$3,0*
0 Add four circle primitives for the rounded corners*
1,1,$1+$1,$2,$3*
1,1,$1+$1,$4,$5*
1,1,$1+$1,$6,$7*
1,1,$1+$1,$8,$9*
0 Add four rect primitives between the rounded corners*
20,1,$1+$1,$2,$3,$4,$5,0*
20,1,$1+$1,$4,$5,$6,$7,0*
20,1,$1+$1,$6,$7,$8,$9,0*
20,1,$1+$1,$8,$9,$2,$3,0*%
G04 Aperture macros list end*
%TA.AperFunction,ComponentPad*%
%ADD10C,1.400000*%
%TD*%
%TA.AperFunction,ComponentPad*%
%ADD11R,1.828800X1.828800*%
%TD*%
%TA.AperFunction,ComponentPad*%
%ADD12C,1.828800*%
%TD*%
%TA.AperFunction,ComponentPad*%
%ADD13O,1.400000X1.400000*%
%TD*%
%TA.AperFunction,ComponentPad*%
%ADD14RoundRect,0.250000X-0.600000X-0.600000X0.600000X-0.600000X0.600000X0.600000X-0.600000X0.600000X0*%
%TD*%
%TA.AperFunction,ComponentPad*%
%ADD15C,1.700000*%
%TD*%
%TA.AperFunction,ComponentPad*%
%ADD16C,8.000000*%
%TD*%
G04 APERTURE END LIST*
D10*
%TO.P,3.3v1,1,Pin_1*%
%TO.N,+3.3V*%
X-16010000Y-58210000D03*
%TD*%
D11*
%TO.P,J5,1,1*%
%TO.N,+3.3V*%
X182060000Y-58290500D03*
D12*
%TO.P,J5,2,2*%
%TO.N,Net-(J17-Pad9)*%
X182060000Y-54290000D03*
%TO.P,J5,3,3*%
%TO.N,GND*%
X182060000Y-50289500D03*
%TD*%
D11*
%TO.P,J4,1,1*%
%TO.N,+3.3V*%
X137020000Y-58340500D03*
D12*
%TO.P,J4,2,2*%
%TO.N,Net-(J17-Pad4)*%
X137020000Y-54340000D03*
%TO.P,J4,3,3*%
%TO.N,GND*%
X137020000Y-50339500D03*
%TD*%
D11*
%TO.P,J8,1,1*%
%TO.N,+3.3V*%
X317020000Y-58260500D03*
D12*
%TO.P,J8,2,2*%
%TO.N,Net-(J17-Pad12)*%
X317020000Y-54260000D03*
%TO.P,J8,3,3*%
%TO.N,GND*%
X317020000Y-50259500D03*
%TD*%
D11*
%TO.P,J14,1,1*%
%TO.N,+3.3V*%
X226990000Y-128400500D03*
D12*
%TO.P,J14,2,2*%
%TO.N,Net-(J14-Pad2)*%
X226990000Y-124400000D03*
%TO.P,J14,3,3*%
%TO.N,GND*%
X226990000Y-120399500D03*
%TD*%
D11*
%TO.P,J11,1,1*%
%TO.N,+3.3V*%
X92060000Y-128300500D03*
D12*
%TO.P,J11,2,2*%
%TO.N,Net-(J11-Pad2)*%
X92060000Y-124300000D03*
%TO.P,J11,3,3*%
%TO.N,GND*%
X92060000Y-120299500D03*
%TD*%
D10*
%TO.P,R16,1*%
%TO.N,Net-(J16-Pad2)*%
X325410000Y-124265000D03*
D13*
%TO.P,R16,2*%
%TO.N,+3.3V*%
X325410000Y-126165000D03*
%TD*%
D14*
%TO.P,J17,1,Pin_1*%
%TO.N,Net-(J1-Pad2)*%
X340297500Y-70680000D03*
D15*
%TO.P,J17,2,Pin_2*%
%TO.N,Net-(J17-Pad2)*%
X342837500Y-70680000D03*
%TO.P,J17,3,Pin_3*%
%TO.N,Net-(J17-Pad3)*%
X340297500Y-73220000D03*
%TO.P,J17,4,Pin_4*%
%TO.N,Net-(J17-Pad4)*%
X342837500Y-73220000D03*
%TO.P,J17,5,Pin_5*%
%TO.N,GND*%
X340297500Y-75760000D03*
%TO.P,J17,6,Pin_6*%
%TO.N,unconnected-(J17-Pad6)*%
X342837500Y-75760000D03*
%TO.P,J17,7,Pin_7*%
%TO.N,unconnected-(J17-Pad7)*%
X340297500Y-78300000D03*
%TO.P,J17,8,Pin_8*%
%TO.N,unconnected-(J17-Pad8)*%
X342837500Y-78300000D03*
%TO.P,J17,9,Pin_9*%
%TO.N,Net-(J17-Pad9)*%
X340297500Y-80840000D03*
%TO.P,J17,10,Pin_10*%
%TO.N,Net-(J17-Pad10)*%
X342837500Y-80840000D03*
%TO.P,J17,11,Pin_11*%
%TO.N,Net-(J17-Pad11)*%
X340297500Y-83380000D03*
%TO.P,J17,12,Pin_12*%
%TO.N,Net-(J17-Pad12)*%
X342837500Y-83380000D03*
%TO.P,J17,13,Pin_13*%
%TO.N,unconnected-(J17-Pad13)*%
X340297500Y-85920000D03*
%TO.P,J17,14,Pin_14*%
%TO.N,unconnected-(J17-Pad14)*%
X342837500Y-85920000D03*
%TO.P,J17,15,Pin_15*%
%TO.N,unconnected-(J17-Pad15)*%
X340297500Y-88460000D03*
%TO.P,J17,16,Pin_16*%
%TO.N,unconnected-(J17-Pad16)*%
X342837500Y-88460000D03*
%TO.P,J17,17,Pin_17*%
%TO.N,Net-(J17-Pad17)*%
X340297500Y-91000000D03*
%TO.P,J17,18,Pin_18*%
%TO.N,Net-(J10-Pad2)*%
X342837500Y-91000000D03*
%TO.P,J17,19,Pin_19*%
%TO.N,Net-(J11-Pad2)*%
X340297500Y-93540000D03*
%TO.P,J17,20,Pin_20*%
%TO.N,Net-(J12-Pad2)*%
X342837500Y-93540000D03*
%TO.P,J17,21,Pin_21*%
%TO.N,unconnected-(J17-Pad21)*%
X340297500Y-96080000D03*
%TO.P,J17,22,Pin_22*%
%TO.N,unconnected-(J17-Pad22)*%
X342837500Y-96080000D03*
%TO.P,J17,23,Pin_23*%
%TO.N,unconnected-(J17-Pad23)*%
X340297500Y-98620000D03*
%TO.P,J17,24,Pin_24*%
%TO.N,unconnected-(J17-Pad24)*%
X342837500Y-98620000D03*
%TO.P,J17,25,Pin_25*%
%TO.N,Net-(J13-Pad2)*%
X340297500Y-101160000D03*
%TO.P,J17,26,Pin_26*%
%TO.N,Net-(J14-Pad2)*%
X342837500Y-101160000D03*
%TO.P,J17,27,Pin_27*%
%TO.N,Net-(J15-Pad2)*%
X340297500Y-103700000D03*
%TO.P,J17,28,Pin_28*%
%TO.N,Net-(J16-Pad2)*%
X342837500Y-103700000D03*
%TO.P,J17,29,Pin_29*%
%TO.N,unconnected-(J17-Pad29)*%
X340297500Y-106240000D03*
%TO.P,J17,30,Pin_30*%
%TO.N,unconnected-(J17-Pad30)*%
X342837500Y-106240000D03*
%TO.P,J17,31,Pin_31*%
%TO.N,unconnected-(J17-Pad31)*%
X340297500Y-108780000D03*
%TO.P,J17,32,Pin_32*%
%TO.N,unconnected-(J17-Pad32)*%
X342837500Y-108780000D03*
%TO.P,J17,33,Pin_33*%
%TO.N,unconnected-(J17-Pad33)*%
X340297500Y-111320000D03*
%TO.P,J17,34,Pin_34*%
%TO.N,unconnected-(J17-Pad34)*%
X342837500Y-111320000D03*
D16*
%TO.P,J17,MP*%
%TO.N,N/C*%
X341317500Y-61740000D03*
X341317500Y-120260000D03*
%TD*%
D10*
%TO.P,R15,1*%
%TO.N,Net-(J15-Pad2)*%
X279630000Y-124395000D03*
D13*
%TO.P,R15,2*%
%TO.N,+3.3V*%
X279630000Y-126295000D03*
%TD*%
D10*
%TO.P,R11,1*%
%TO.N,Net-(J11-Pad2)*%
X99850000Y-124370000D03*
D13*
%TO.P,R11,2*%
%TO.N,+3.3V*%
X99850000Y-126270000D03*
%TD*%
D11*
%TO.P,J13,1,1*%
%TO.N,+3.3V*%
X182000000Y-128190500D03*
D12*
%TO.P,J13,2,2*%
%TO.N,Net-(J13-Pad2)*%
X182000000Y-124190000D03*
%TO.P,J13,3,3*%
%TO.N,GND*%
X182000000Y-120189500D03*
%TD*%
D10*
%TO.P,R6,1*%
%TO.N,+3.3V*%
X235100000Y-56240000D03*
D13*
%TO.P,R6,2*%
%TO.N,Net-(J17-Pad10)*%
X235100000Y-54340000D03*
%TD*%
D10*
%TO.P,R3,1*%
%TO.N,+3.3V*%
X99700000Y-56120000D03*
D13*
%TO.P,R3,2*%
%TO.N,Net-(J17-Pad3)*%
X99700000Y-54220000D03*
%TD*%
D11*
%TO.P,J9,1,1*%
%TO.N,+3.3V*%
X2010000Y-128300500D03*
D12*
%TO.P,J9,2,2*%
%TO.N,Net-(J17-Pad17)*%
X2010000Y-124300000D03*
%TO.P,J9,3,3*%
%TO.N,GND*%
X2010000Y-120299500D03*
%TD*%
D11*
%TO.P,J3,1,1*%
%TO.N,+3.3V*%
X92110000Y-58270500D03*
D12*
%TO.P,J3,2,2*%
%TO.N,Net-(J17-Pad3)*%
X92110000Y-54270000D03*
%TO.P,J3,3,3*%
%TO.N,GND*%
X92110000Y-50269500D03*
%TD*%
D11*
%TO.P,J10,1,1*%
%TO.N,+3.3V*%
X47000000Y-128240500D03*
D12*
%TO.P,J10,2,2*%
%TO.N,Net-(J10-Pad2)*%
X47000000Y-124240000D03*
%TO.P,J10,3,3*%
%TO.N,GND*%
X47000000Y-120239500D03*
%TD*%
D10*
%TO.P,R5,1*%
%TO.N,Net-(J17-Pad9)*%
X189830000Y-54260000D03*
D13*
%TO.P,R5,2*%
%TO.N,+3.3V*%
X189830000Y-56160000D03*
%TD*%
D10*
%TO.P,R9,1*%
%TO.N,Net-(J17-Pad17)*%
X9980000Y-124255000D03*
D13*
%TO.P,R9,2*%
%TO.N,+3.3V*%
X9980000Y-126155000D03*
%TD*%
D10*
%TO.P,R12,1*%
%TO.N,Net-(J12-Pad2)*%
X144850000Y-124470000D03*
D13*
%TO.P,R12,2*%
%TO.N,+3.3V*%
X144850000Y-126370000D03*
%TD*%
D11*
%TO.P,J7,1,1*%
%TO.N,+3.3V*%
X272000000Y-58270500D03*
D12*
%TO.P,J7,2,2*%
%TO.N,Net-(J17-Pad11)*%
X272000000Y-54270000D03*
%TO.P,J7,3,3*%
%TO.N,GND*%
X272000000Y-50269500D03*
%TD*%
D10*
%TO.P,R7,1*%
%TO.N,Net-(J17-Pad11)*%
X279830000Y-54470000D03*
D13*
%TO.P,R7,2*%
%TO.N,+3.3V*%
X279830000Y-56370000D03*
%TD*%
D10*
%TO.P,R1,1*%
%TO.N,+3.3V*%
X9590000Y-56750000D03*
D13*
%TO.P,R1,2*%
%TO.N,Net-(J1-Pad2)*%
X9590000Y-54850000D03*
%TD*%
D10*
%TO.P,R14,1*%
%TO.N,Net-(J14-Pad2)*%
X235080000Y-124435000D03*
D13*
%TO.P,R14,2*%
%TO.N,+3.3V*%
X235080000Y-126335000D03*
%TD*%
D11*
%TO.P,J6,1,1*%
%TO.N,+3.3V*%
X227010000Y-58360500D03*
D12*
%TO.P,J6,2,2*%
%TO.N,Net-(J17-Pad10)*%
X227010000Y-54360000D03*
%TO.P,J6,3,3*%
%TO.N,GND*%
X227010000Y-50359500D03*
%TD*%
D11*
%TO.P,J16,1,1*%
%TO.N,+3.3V*%
X317000000Y-128320500D03*
D12*
%TO.P,J16,2,2*%
%TO.N,Net-(J16-Pad2)*%
X317000000Y-124320000D03*
%TO.P,J16,3,3*%
%TO.N,GND*%
X317000000Y-120319500D03*
%TD*%
D10*
%TO.P,R13,1*%
%TO.N,Net-(J13-Pad2)*%
X190380000Y-124305000D03*
D13*
%TO.P,R13,2*%
%TO.N,+3.3V*%
X190380000Y-126205000D03*
%TD*%
D11*
%TO.P,J15,1,1*%
%TO.N,+3.3V*%
X271990000Y-128410500D03*
D12*
%TO.P,J15,2,2*%
%TO.N,Net-(J15-Pad2)*%
X271990000Y-124410000D03*
%TO.P,J15,3,3*%
%TO.N,GND*%
X271990000Y-120409500D03*
%TD*%
D11*
%TO.P,J1,1,1*%
%TO.N,+3.3V*%
X2020000Y-58310500D03*
D12*
%TO.P,J1,2,2*%
%TO.N,Net-(J1-Pad2)*%
X2020000Y-54310000D03*
%TO.P,J1,3,3*%
%TO.N,GND*%
X2020000Y-50309500D03*
%TD*%
D10*
%TO.P,R10,1*%
%TO.N,Net-(J10-Pad2)*%
X55190000Y-124265000D03*
D13*
%TO.P,R10,2*%
%TO.N,+3.3V*%
X55190000Y-126165000D03*
%TD*%
D10*
%TO.P,R2,1*%
%TO.N,+3.3V*%
X54520000Y-56230000D03*
D13*
%TO.P,R2,2*%
%TO.N,Net-(J17-Pad2)*%
X54520000Y-54330000D03*
%TD*%
D11*
%TO.P,J2,1,1*%
%TO.N,+3.3V*%
X47030000Y-58300500D03*
D12*
%TO.P,J2,2,2*%
%TO.N,Net-(J17-Pad2)*%
X47030000Y-54300000D03*
%TO.P,J2,3,3*%
%TO.N,GND*%
X47030000Y-50299500D03*
%TD*%
D10*
%TO.P,R8,1*%
%TO.N,Net-(J17-Pad12)*%
X325590000Y-54220000D03*
D13*
%TO.P,R8,2*%
%TO.N,+3.3V*%
X325590000Y-56120000D03*
%TD*%
D10*
%TO.P,R4,1*%
%TO.N,+3.3V*%
X144570000Y-57040000D03*
D13*
%TO.P,R4,2*%
%TO.N,Net-(J17-Pad4)*%
X144570000Y-55140000D03*
%TD*%
D11*
%TO.P,J12,1,1*%
%TO.N,+3.3V*%
X137050000Y-128410500D03*
D12*
%TO.P,J12,2,2*%
%TO.N,Net-(J12-Pad2)*%
X137050000Y-124410000D03*
%TO.P,J12,3,3*%
%TO.N,GND*%
X137050000Y-120409500D03*
%TD*%
M02*
