M48
; DRILL file {KiCad (6.0.9)} date Fri Dec  9 14:19:53 2022
; FORMAT={-:-/ absolute / metric / decimal}
; #@! TF.CreationDate,2022-12-09T14:19:53+01:00
; #@! TF.GenerationSoftware,Kicad,Pcbnew,(6.0.9)
; #@! TF.FileFunction,NonPlated,1,2,NPTH
FMAT,2
METRIC
; #@! TA.AperFunction,NonPlated,NPTH,ComponentDrill
T1C3.048
; #@! TA.AperFunction,NonPlated,NPTH,ComponentDrill
T2C3.200
%
G90
G05
T1
X2.01Y-115.298
X2.01Y-133.302
X2.02Y-45.308
X2.02Y-63.312
X47.0Y-115.238
X47.0Y-133.242
X47.03Y-45.298
X47.03Y-63.302
X92.06Y-115.298
X92.06Y-133.302
X92.11Y-45.268
X92.11Y-63.272
X137.02Y-45.338
X137.02Y-63.342
X137.05Y-115.408
X137.05Y-133.412
X182.0Y-115.188
X182.0Y-133.192
X182.06Y-45.288
X182.06Y-63.292
X226.99Y-115.398
X226.99Y-133.402
X227.01Y-45.358
X227.01Y-63.362
X271.99Y-115.408
X271.99Y-133.412
X272.0Y-45.268
X272.0Y-63.272
X317.0Y-115.318
X317.0Y-133.322
X317.02Y-45.258
X317.02Y-63.262
T2
X-16.57Y-136.66
X-16.55Y-41.7
X348.45Y-41.7
X348.45Y-136.7
T0
M30
