M48
; DRILL file {KiCad (6.0.9)} date Fri Dec  9 14:19:53 2022
; FORMAT={-:-/ absolute / metric / decimal}
; #@! TF.CreationDate,2022-12-09T14:19:53+01:00
; #@! TF.GenerationSoftware,Kicad,Pcbnew,(6.0.9)
; #@! TF.FileFunction,Plated,1,2,PTH
FMAT,2
METRIC
; #@! TA.AperFunction,Plated,PTH,ComponentDrill
T1C0.700
; #@! TA.AperFunction,Plated,PTH,ComponentDrill
T2C1.000
; #@! TA.AperFunction,Plated,PTH,ComponentDrill
T3C1.219
; #@! TA.AperFunction,Plated,PTH,ComponentDrill
T4C2.690
%
G90
G05
T1
X-16.01Y-58.21
X9.59Y-54.85
X9.59Y-56.75
X9.98Y-124.255
X9.98Y-126.155
X54.52Y-54.33
X54.52Y-56.23
X55.19Y-124.265
X55.19Y-126.165
X99.7Y-54.22
X99.7Y-56.12
X99.85Y-124.37
X99.85Y-126.27
X144.57Y-55.14
X144.57Y-57.04
X144.85Y-124.47
X144.85Y-126.37
X189.83Y-54.26
X189.83Y-56.16
X190.38Y-124.305
X190.38Y-126.205
X235.08Y-124.435
X235.08Y-126.335
X235.1Y-54.34
X235.1Y-56.24
X279.63Y-124.395
X279.63Y-126.295
X279.83Y-54.47
X279.83Y-56.37
X325.41Y-124.265
X325.41Y-126.165
X325.59Y-54.22
X325.59Y-56.12
T2
X340.297Y-70.68
X340.297Y-73.22
X340.297Y-75.76
X340.297Y-78.3
X340.297Y-80.84
X340.297Y-83.38
X340.297Y-85.92
X340.297Y-88.46
X340.297Y-91.0
X340.297Y-93.54
X340.297Y-96.08
X340.297Y-98.62
X340.297Y-101.16
X340.297Y-103.7
X340.297Y-106.24
X340.297Y-108.78
X340.297Y-111.32
X342.837Y-70.68
X342.837Y-73.22
X342.837Y-75.76
X342.837Y-78.3
X342.837Y-80.84
X342.837Y-83.38
X342.837Y-85.92
X342.837Y-88.46
X342.837Y-91.0
X342.837Y-93.54
X342.837Y-96.08
X342.837Y-98.62
X342.837Y-101.16
X342.837Y-103.7
X342.837Y-106.24
X342.837Y-108.78
X342.837Y-111.32
T3
X2.01Y-120.299
X2.01Y-124.3
X2.01Y-128.3
X2.02Y-50.309
X2.02Y-54.31
X2.02Y-58.31
X47.0Y-120.239
X47.0Y-124.24
X47.0Y-128.24
X47.03Y-50.299
X47.03Y-54.3
X47.03Y-58.3
X92.06Y-120.299
X92.06Y-124.3
X92.06Y-128.3
X92.11Y-50.27
X92.11Y-54.27
X92.11Y-58.27
X137.02Y-50.34
X137.02Y-54.34
X137.02Y-58.34
X137.05Y-120.409
X137.05Y-124.41
X137.05Y-128.41
X182.0Y-120.189
X182.0Y-124.19
X182.0Y-128.19
X182.06Y-50.289
X182.06Y-54.29
X182.06Y-58.29
X226.99Y-120.399
X226.99Y-124.4
X226.99Y-128.4
X227.01Y-50.359
X227.01Y-54.36
X227.01Y-58.36
X271.99Y-120.409
X271.99Y-124.41
X271.99Y-128.41
X272.0Y-50.27
X272.0Y-54.27
X272.0Y-58.27
X317.0Y-120.319
X317.0Y-124.32
X317.0Y-128.32
X317.02Y-50.259
X317.02Y-54.26
X317.02Y-58.261
T4
X341.317Y-61.74
X341.317Y-120.26
T0
M30
