%TF.GenerationSoftware,KiCad,Pcbnew,(6.0.9)*%
%TF.CreationDate,2022-12-09T14:19:55+01:00*%
%TF.ProjectId,seq,7365712e-6b69-4636-9164-5f7063625858,rev?*%
%TF.SameCoordinates,Original*%
%TF.FileFunction,Drillmap*%
%TF.FilePolarity,Positive*%
%FSLAX45Y45*%
G04 Gerber Fmt 4.5, Leading zero omitted, Abs format (unit mm)*
G04 Created by KiCad (PCBNEW (6.0.9)) date 2022-12-09 14:19:55*
%MOMM*%
%LPD*%
G01*
G04 APERTURE LIST*
%ADD10C,0.200000*%
%ADD11C,0.070000*%
%ADD12C,0.100000*%
%ADD13C,0.121920*%
%ADD14C,0.269000*%
G04 APERTURE END LIST*
D10*
D11*
X-1636000Y-5786000D02*
X-1566000Y-5856000D01*
X-1566000Y-5786000D02*
X-1636000Y-5856000D01*
X924000Y-5450000D02*
X994000Y-5520000D01*
X994000Y-5450000D02*
X924000Y-5520000D01*
X924000Y-5640000D02*
X994000Y-5710000D01*
X994000Y-5640000D02*
X924000Y-5710000D01*
X963000Y-12390500D02*
X1033000Y-12460500D01*
X1033000Y-12390500D02*
X963000Y-12460500D01*
X963000Y-12580500D02*
X1033000Y-12650500D01*
X1033000Y-12580500D02*
X963000Y-12650500D01*
X5417000Y-5398000D02*
X5487000Y-5468000D01*
X5487000Y-5398000D02*
X5417000Y-5468000D01*
X5417000Y-5588000D02*
X5487000Y-5658000D01*
X5487000Y-5588000D02*
X5417000Y-5658000D01*
X5484000Y-12391500D02*
X5554000Y-12461500D01*
X5554000Y-12391500D02*
X5484000Y-12461500D01*
X5484000Y-12581500D02*
X5554000Y-12651500D01*
X5554000Y-12581500D02*
X5484000Y-12651500D01*
X9935000Y-5387000D02*
X10005000Y-5457000D01*
X10005000Y-5387000D02*
X9935000Y-5457000D01*
X9935000Y-5577000D02*
X10005000Y-5647000D01*
X10005000Y-5577000D02*
X9935000Y-5647000D01*
X9950000Y-12402000D02*
X10020000Y-12472000D01*
X10020000Y-12402000D02*
X9950000Y-12472000D01*
X9950000Y-12592000D02*
X10020000Y-12662000D01*
X10020000Y-12592000D02*
X9950000Y-12662000D01*
X14422000Y-5479000D02*
X14492000Y-5549000D01*
X14492000Y-5479000D02*
X14422000Y-5549000D01*
X14422000Y-5669000D02*
X14492000Y-5739000D01*
X14492000Y-5669000D02*
X14422000Y-5739000D01*
X14450000Y-12412000D02*
X14520000Y-12482000D01*
X14520000Y-12412000D02*
X14450000Y-12482000D01*
X14450000Y-12602000D02*
X14520000Y-12672000D01*
X14520000Y-12602000D02*
X14450000Y-12672000D01*
X18948000Y-5391000D02*
X19018000Y-5461000D01*
X19018000Y-5391000D02*
X18948000Y-5461000D01*
X18948000Y-5581000D02*
X19018000Y-5651000D01*
X19018000Y-5581000D02*
X18948000Y-5651000D01*
X19003000Y-12395500D02*
X19073000Y-12465500D01*
X19073000Y-12395500D02*
X19003000Y-12465500D01*
X19003000Y-12585500D02*
X19073000Y-12655500D01*
X19073000Y-12585500D02*
X19003000Y-12655500D01*
X23473000Y-12408500D02*
X23543000Y-12478500D01*
X23543000Y-12408500D02*
X23473000Y-12478500D01*
X23473000Y-12598500D02*
X23543000Y-12668500D01*
X23543000Y-12598500D02*
X23473000Y-12668500D01*
X23475000Y-5399000D02*
X23545000Y-5469000D01*
X23545000Y-5399000D02*
X23475000Y-5469000D01*
X23475000Y-5589000D02*
X23545000Y-5659000D01*
X23545000Y-5589000D02*
X23475000Y-5659000D01*
X27928000Y-12404500D02*
X27998000Y-12474500D01*
X27998000Y-12404500D02*
X27928000Y-12474500D01*
X27928000Y-12594500D02*
X27998000Y-12664500D01*
X27998000Y-12594500D02*
X27928000Y-12664500D01*
X27948000Y-5412000D02*
X28018000Y-5482000D01*
X28018000Y-5412000D02*
X27948000Y-5482000D01*
X27948000Y-5602000D02*
X28018000Y-5672000D01*
X28018000Y-5602000D02*
X27948000Y-5672000D01*
X32506000Y-12391500D02*
X32576000Y-12461500D01*
X32576000Y-12391500D02*
X32506000Y-12461500D01*
X32506000Y-12581500D02*
X32576000Y-12651500D01*
X32576000Y-12581500D02*
X32506000Y-12651500D01*
X32524000Y-5387000D02*
X32594000Y-5457000D01*
X32594000Y-5387000D02*
X32524000Y-5457000D01*
X32524000Y-5577000D02*
X32594000Y-5647000D01*
X32594000Y-5577000D02*
X32524000Y-5647000D01*
D12*
X34079750Y-7068000D02*
G75*
G03*
X34079750Y-7068000I-50000J0D01*
G01*
X34079750Y-7322000D02*
G75*
G03*
X34079750Y-7322000I-50000J0D01*
G01*
X34079750Y-7576000D02*
G75*
G03*
X34079750Y-7576000I-50000J0D01*
G01*
X34079750Y-7830000D02*
G75*
G03*
X34079750Y-7830000I-50000J0D01*
G01*
X34079750Y-8084000D02*
G75*
G03*
X34079750Y-8084000I-50000J0D01*
G01*
X34079750Y-8338000D02*
G75*
G03*
X34079750Y-8338000I-50000J0D01*
G01*
X34079750Y-8592000D02*
G75*
G03*
X34079750Y-8592000I-50000J0D01*
G01*
X34079750Y-8846000D02*
G75*
G03*
X34079750Y-8846000I-50000J0D01*
G01*
X34079750Y-9100000D02*
G75*
G03*
X34079750Y-9100000I-50000J0D01*
G01*
X34079750Y-9354000D02*
G75*
G03*
X34079750Y-9354000I-50000J0D01*
G01*
X34079750Y-9608000D02*
G75*
G03*
X34079750Y-9608000I-50000J0D01*
G01*
X34079750Y-9862000D02*
G75*
G03*
X34079750Y-9862000I-50000J0D01*
G01*
X34079750Y-10116000D02*
G75*
G03*
X34079750Y-10116000I-50000J0D01*
G01*
X34079750Y-10370000D02*
G75*
G03*
X34079750Y-10370000I-50000J0D01*
G01*
X34079750Y-10624000D02*
G75*
G03*
X34079750Y-10624000I-50000J0D01*
G01*
X34079750Y-10878000D02*
G75*
G03*
X34079750Y-10878000I-50000J0D01*
G01*
X34079750Y-11132000D02*
G75*
G03*
X34079750Y-11132000I-50000J0D01*
G01*
X34333750Y-7068000D02*
G75*
G03*
X34333750Y-7068000I-50000J0D01*
G01*
X34333750Y-7322000D02*
G75*
G03*
X34333750Y-7322000I-50000J0D01*
G01*
X34333750Y-7576000D02*
G75*
G03*
X34333750Y-7576000I-50000J0D01*
G01*
X34333750Y-7830000D02*
G75*
G03*
X34333750Y-7830000I-50000J0D01*
G01*
X34333750Y-8084000D02*
G75*
G03*
X34333750Y-8084000I-50000J0D01*
G01*
X34333750Y-8338000D02*
G75*
G03*
X34333750Y-8338000I-50000J0D01*
G01*
X34333750Y-8592000D02*
G75*
G03*
X34333750Y-8592000I-50000J0D01*
G01*
X34333750Y-8846000D02*
G75*
G03*
X34333750Y-8846000I-50000J0D01*
G01*
X34333750Y-9100000D02*
G75*
G03*
X34333750Y-9100000I-50000J0D01*
G01*
X34333750Y-9354000D02*
G75*
G03*
X34333750Y-9354000I-50000J0D01*
G01*
X34333750Y-9608000D02*
G75*
G03*
X34333750Y-9608000I-50000J0D01*
G01*
X34333750Y-9862000D02*
G75*
G03*
X34333750Y-9862000I-50000J0D01*
G01*
X34333750Y-10116000D02*
G75*
G03*
X34333750Y-10116000I-50000J0D01*
G01*
X34333750Y-10370000D02*
G75*
G03*
X34333750Y-10370000I-50000J0D01*
G01*
X34333750Y-10624000D02*
G75*
G03*
X34333750Y-10624000I-50000J0D01*
G01*
X34333750Y-10878000D02*
G75*
G03*
X34333750Y-10878000I-50000J0D01*
G01*
X34333750Y-11132000D02*
G75*
G03*
X34333750Y-11132000I-50000J0D01*
G01*
D13*
X201000Y-11968990D02*
X201000Y-12090910D01*
X140040Y-12029950D02*
X261960Y-12029950D01*
X201000Y-12369040D02*
X201000Y-12490960D01*
X140040Y-12430000D02*
X261960Y-12430000D01*
X201000Y-12769090D02*
X201000Y-12891010D01*
X140040Y-12830050D02*
X261960Y-12830050D01*
X202000Y-4969990D02*
X202000Y-5091910D01*
X141040Y-5030950D02*
X262960Y-5030950D01*
X202000Y-5370040D02*
X202000Y-5491960D01*
X141040Y-5431000D02*
X262960Y-5431000D01*
X202000Y-5770090D02*
X202000Y-5892010D01*
X141040Y-5831050D02*
X262960Y-5831050D01*
X4700000Y-11962990D02*
X4700000Y-12084910D01*
X4639040Y-12023950D02*
X4760960Y-12023950D01*
X4700000Y-12363040D02*
X4700000Y-12484960D01*
X4639040Y-12424000D02*
X4760960Y-12424000D01*
X4700000Y-12763090D02*
X4700000Y-12885010D01*
X4639040Y-12824050D02*
X4760960Y-12824050D01*
X4703000Y-4968990D02*
X4703000Y-5090910D01*
X4642040Y-5029950D02*
X4763960Y-5029950D01*
X4703000Y-5369040D02*
X4703000Y-5490960D01*
X4642040Y-5430000D02*
X4763960Y-5430000D01*
X4703000Y-5769090D02*
X4703000Y-5891010D01*
X4642040Y-5830050D02*
X4763960Y-5830050D01*
X9206000Y-11968990D02*
X9206000Y-12090910D01*
X9145040Y-12029950D02*
X9266960Y-12029950D01*
X9206000Y-12369040D02*
X9206000Y-12490960D01*
X9145040Y-12430000D02*
X9266960Y-12430000D01*
X9206000Y-12769090D02*
X9206000Y-12891010D01*
X9145040Y-12830050D02*
X9266960Y-12830050D01*
X9211000Y-4965990D02*
X9211000Y-5087910D01*
X9150040Y-5026950D02*
X9271960Y-5026950D01*
X9211000Y-5366040D02*
X9211000Y-5487960D01*
X9150040Y-5427000D02*
X9271960Y-5427000D01*
X9211000Y-5766090D02*
X9211000Y-5888010D01*
X9150040Y-5827050D02*
X9271960Y-5827050D01*
X13702000Y-4972990D02*
X13702000Y-5094910D01*
X13641040Y-5033950D02*
X13762960Y-5033950D01*
X13702000Y-5373040D02*
X13702000Y-5494960D01*
X13641040Y-5434000D02*
X13762960Y-5434000D01*
X13702000Y-5773090D02*
X13702000Y-5895010D01*
X13641040Y-5834050D02*
X13762960Y-5834050D01*
X13705000Y-11979990D02*
X13705000Y-12101910D01*
X13644040Y-12040950D02*
X13765960Y-12040950D01*
X13705000Y-12380040D02*
X13705000Y-12501960D01*
X13644040Y-12441000D02*
X13765960Y-12441000D01*
X13705000Y-12780090D02*
X13705000Y-12902010D01*
X13644040Y-12841050D02*
X13765960Y-12841050D01*
X18200000Y-11957990D02*
X18200000Y-12079910D01*
X18139040Y-12018950D02*
X18260960Y-12018950D01*
X18200000Y-12358040D02*
X18200000Y-12479960D01*
X18139040Y-12419000D02*
X18260960Y-12419000D01*
X18200000Y-12758090D02*
X18200000Y-12880010D01*
X18139040Y-12819050D02*
X18260960Y-12819050D01*
X18206000Y-4967990D02*
X18206000Y-5089910D01*
X18145040Y-5028950D02*
X18266960Y-5028950D01*
X18206000Y-5368040D02*
X18206000Y-5489960D01*
X18145040Y-5429000D02*
X18266960Y-5429000D01*
X18206000Y-5768090D02*
X18206000Y-5890010D01*
X18145040Y-5829050D02*
X18266960Y-5829050D01*
X22699000Y-11978990D02*
X22699000Y-12100910D01*
X22638040Y-12039950D02*
X22759960Y-12039950D01*
X22699000Y-12379040D02*
X22699000Y-12500960D01*
X22638040Y-12440000D02*
X22759960Y-12440000D01*
X22699000Y-12779090D02*
X22699000Y-12901010D01*
X22638040Y-12840050D02*
X22759960Y-12840050D01*
X22701000Y-4974990D02*
X22701000Y-5096910D01*
X22640040Y-5035950D02*
X22761960Y-5035950D01*
X22701000Y-5375040D02*
X22701000Y-5496960D01*
X22640040Y-5436000D02*
X22761960Y-5436000D01*
X22701000Y-5775090D02*
X22701000Y-5897010D01*
X22640040Y-5836050D02*
X22761960Y-5836050D01*
X27199000Y-11979990D02*
X27199000Y-12101910D01*
X27138040Y-12040950D02*
X27259960Y-12040950D01*
X27199000Y-12380040D02*
X27199000Y-12501960D01*
X27138040Y-12441000D02*
X27259960Y-12441000D01*
X27199000Y-12780090D02*
X27199000Y-12902010D01*
X27138040Y-12841050D02*
X27259960Y-12841050D01*
X27200000Y-4965990D02*
X27200000Y-5087910D01*
X27139040Y-5026950D02*
X27260960Y-5026950D01*
X27200000Y-5366040D02*
X27200000Y-5487960D01*
X27139040Y-5427000D02*
X27260960Y-5427000D01*
X27200000Y-5766090D02*
X27200000Y-5888010D01*
X27139040Y-5827050D02*
X27260960Y-5827050D01*
X31700000Y-11970990D02*
X31700000Y-12092910D01*
X31639040Y-12031950D02*
X31760960Y-12031950D01*
X31700000Y-12371040D02*
X31700000Y-12492960D01*
X31639040Y-12432000D02*
X31760960Y-12432000D01*
X31700000Y-12771090D02*
X31700000Y-12893010D01*
X31639040Y-12832050D02*
X31760960Y-12832050D01*
X31702000Y-4964990D02*
X31702000Y-5086910D01*
X31641040Y-5025950D02*
X31762960Y-5025950D01*
X31702000Y-5365040D02*
X31702000Y-5486960D01*
X31641040Y-5426000D02*
X31762960Y-5426000D01*
X31702000Y-5765090D02*
X31702000Y-5887010D01*
X31641040Y-5826050D02*
X31762960Y-5826050D01*
D14*
X34226857Y-6269107D02*
X34226857Y-6078893D01*
X34036643Y-6078893D01*
X34036643Y-6269107D01*
X34226857Y-6269107D01*
X34226857Y-12121107D02*
X34226857Y-11930893D01*
X34036643Y-11930893D01*
X34036643Y-12121107D01*
X34226857Y-12121107D01*
D10*
X257619Y-310476D02*
X257619Y-110476D01*
X305238Y-110476D01*
X333810Y-120000D01*
X352857Y-139048D01*
X362381Y-158095D01*
X371905Y-196190D01*
X371905Y-224762D01*
X362381Y-262857D01*
X352857Y-281905D01*
X333810Y-300952D01*
X305238Y-310476D01*
X257619Y-310476D01*
X457619Y-310476D02*
X457619Y-177143D01*
X457619Y-215238D02*
X467143Y-196190D01*
X476667Y-186667D01*
X495714Y-177143D01*
X514762Y-177143D01*
X581429Y-310476D02*
X581429Y-177143D01*
X581429Y-110476D02*
X571905Y-120000D01*
X581429Y-129524D01*
X590952Y-120000D01*
X581429Y-110476D01*
X581429Y-129524D01*
X705238Y-310476D02*
X686190Y-300952D01*
X676667Y-281905D01*
X676667Y-110476D01*
X810000Y-310476D02*
X790952Y-300952D01*
X781428Y-281905D01*
X781428Y-110476D01*
X1038571Y-310476D02*
X1038571Y-110476D01*
X1105238Y-253333D01*
X1171905Y-110476D01*
X1171905Y-310476D01*
X1352857Y-310476D02*
X1352857Y-205714D01*
X1343333Y-186667D01*
X1324286Y-177143D01*
X1286190Y-177143D01*
X1267143Y-186667D01*
X1352857Y-300952D02*
X1333810Y-310476D01*
X1286190Y-310476D01*
X1267143Y-300952D01*
X1257619Y-281905D01*
X1257619Y-262857D01*
X1267143Y-243809D01*
X1286190Y-234286D01*
X1333810Y-234286D01*
X1352857Y-224762D01*
X1448095Y-177143D02*
X1448095Y-377143D01*
X1448095Y-186667D02*
X1467143Y-177143D01*
X1505238Y-177143D01*
X1524286Y-186667D01*
X1533809Y-196190D01*
X1543333Y-215238D01*
X1543333Y-272381D01*
X1533809Y-291429D01*
X1524286Y-300952D01*
X1505238Y-310476D01*
X1467143Y-310476D01*
X1448095Y-300952D01*
X1629048Y-291429D02*
X1638571Y-300952D01*
X1629048Y-310476D01*
X1619524Y-300952D01*
X1629048Y-291429D01*
X1629048Y-310476D01*
X1629048Y-186667D02*
X1638571Y-196190D01*
X1629048Y-205714D01*
X1619524Y-196190D01*
X1629048Y-186667D01*
X1629048Y-205714D01*
D11*
X-70000Y-605000D02*
X0Y-675000D01*
X0Y-605000D02*
X-70000Y-675000D01*
D10*
X295714Y-530476D02*
X314762Y-530476D01*
X333810Y-540000D01*
X343333Y-549524D01*
X352857Y-568571D01*
X362381Y-606667D01*
X362381Y-654286D01*
X352857Y-692381D01*
X343333Y-711428D01*
X333810Y-720952D01*
X314762Y-730476D01*
X295714Y-730476D01*
X276667Y-720952D01*
X267143Y-711428D01*
X257619Y-692381D01*
X248095Y-654286D01*
X248095Y-606667D01*
X257619Y-568571D01*
X267143Y-549524D01*
X276667Y-540000D01*
X295714Y-530476D01*
X448095Y-711428D02*
X457619Y-720952D01*
X448095Y-730476D01*
X438571Y-720952D01*
X448095Y-711428D01*
X448095Y-730476D01*
X524286Y-530476D02*
X657619Y-530476D01*
X571905Y-730476D01*
X771905Y-530476D02*
X790952Y-530476D01*
X810000Y-540000D01*
X819524Y-549524D01*
X829048Y-568571D01*
X838571Y-606667D01*
X838571Y-654286D01*
X829048Y-692381D01*
X819524Y-711428D01*
X810000Y-720952D01*
X790952Y-730476D01*
X771905Y-730476D01*
X752857Y-720952D01*
X743333Y-711428D01*
X733809Y-692381D01*
X724286Y-654286D01*
X724286Y-606667D01*
X733809Y-568571D01*
X743333Y-549524D01*
X752857Y-540000D01*
X771905Y-530476D01*
X962381Y-530476D02*
X981428Y-530476D01*
X1000476Y-540000D01*
X1010000Y-549524D01*
X1019524Y-568571D01*
X1029048Y-606667D01*
X1029048Y-654286D01*
X1019524Y-692381D01*
X1010000Y-711428D01*
X1000476Y-720952D01*
X981428Y-730476D01*
X962381Y-730476D01*
X943333Y-720952D01*
X933809Y-711428D01*
X924286Y-692381D01*
X914762Y-654286D01*
X914762Y-606667D01*
X924286Y-568571D01*
X933809Y-549524D01*
X943333Y-540000D01*
X962381Y-530476D01*
X1114762Y-730476D02*
X1114762Y-597143D01*
X1114762Y-616190D02*
X1124286Y-606667D01*
X1143333Y-597143D01*
X1171905Y-597143D01*
X1190952Y-606667D01*
X1200476Y-625714D01*
X1200476Y-730476D01*
X1200476Y-625714D02*
X1210000Y-606667D01*
X1229048Y-597143D01*
X1257619Y-597143D01*
X1276667Y-606667D01*
X1286190Y-625714D01*
X1286190Y-730476D01*
X1381429Y-730476D02*
X1381429Y-597143D01*
X1381429Y-616190D02*
X1390952Y-606667D01*
X1410000Y-597143D01*
X1438571Y-597143D01*
X1457619Y-606667D01*
X1467143Y-625714D01*
X1467143Y-730476D01*
X1467143Y-625714D02*
X1476667Y-606667D01*
X1495714Y-597143D01*
X1524286Y-597143D01*
X1543333Y-606667D01*
X1552857Y-625714D01*
X1552857Y-730476D01*
X1943333Y-520952D02*
X1771905Y-778095D01*
X2200476Y-530476D02*
X2219524Y-530476D01*
X2238571Y-540000D01*
X2248095Y-549524D01*
X2257619Y-568571D01*
X2267143Y-606667D01*
X2267143Y-654286D01*
X2257619Y-692381D01*
X2248095Y-711428D01*
X2238571Y-720952D01*
X2219524Y-730476D01*
X2200476Y-730476D01*
X2181429Y-720952D01*
X2171905Y-711428D01*
X2162381Y-692381D01*
X2152857Y-654286D01*
X2152857Y-606667D01*
X2162381Y-568571D01*
X2171905Y-549524D01*
X2181429Y-540000D01*
X2200476Y-530476D01*
X2352857Y-711428D02*
X2362381Y-720952D01*
X2352857Y-730476D01*
X2343333Y-720952D01*
X2352857Y-711428D01*
X2352857Y-730476D01*
X2486190Y-530476D02*
X2505238Y-530476D01*
X2524286Y-540000D01*
X2533810Y-549524D01*
X2543333Y-568571D01*
X2552857Y-606667D01*
X2552857Y-654286D01*
X2543333Y-692381D01*
X2533810Y-711428D01*
X2524286Y-720952D01*
X2505238Y-730476D01*
X2486190Y-730476D01*
X2467143Y-720952D01*
X2457619Y-711428D01*
X2448095Y-692381D01*
X2438571Y-654286D01*
X2438571Y-606667D01*
X2448095Y-568571D01*
X2457619Y-549524D01*
X2467143Y-540000D01*
X2486190Y-530476D01*
X2629048Y-549524D02*
X2638571Y-540000D01*
X2657619Y-530476D01*
X2705238Y-530476D01*
X2724286Y-540000D01*
X2733810Y-549524D01*
X2743333Y-568571D01*
X2743333Y-587619D01*
X2733810Y-616190D01*
X2619524Y-730476D01*
X2743333Y-730476D01*
X2810000Y-530476D02*
X2943333Y-530476D01*
X2857619Y-730476D01*
X3105238Y-530476D02*
X3067143Y-530476D01*
X3048095Y-540000D01*
X3038571Y-549524D01*
X3019524Y-578095D01*
X3010000Y-616190D01*
X3010000Y-692381D01*
X3019524Y-711428D01*
X3029048Y-720952D01*
X3048095Y-730476D01*
X3086190Y-730476D01*
X3105238Y-720952D01*
X3114762Y-711428D01*
X3124286Y-692381D01*
X3124286Y-644762D01*
X3114762Y-625714D01*
X3105238Y-616190D01*
X3086190Y-606667D01*
X3048095Y-606667D01*
X3029048Y-616190D01*
X3019524Y-625714D01*
X3010000Y-644762D01*
X3200476Y-530476D02*
X3200476Y-568571D01*
X3276667Y-530476D02*
X3276667Y-568571D01*
X3571905Y-806667D02*
X3562381Y-797143D01*
X3543333Y-768571D01*
X3533809Y-749524D01*
X3524286Y-720952D01*
X3514762Y-673333D01*
X3514762Y-635238D01*
X3524286Y-587619D01*
X3533809Y-559048D01*
X3543333Y-540000D01*
X3562381Y-511428D01*
X3571905Y-501905D01*
X3629048Y-530476D02*
X3752857Y-530476D01*
X3686190Y-606667D01*
X3714762Y-606667D01*
X3733809Y-616190D01*
X3743333Y-625714D01*
X3752857Y-644762D01*
X3752857Y-692381D01*
X3743333Y-711428D01*
X3733809Y-720952D01*
X3714762Y-730476D01*
X3657619Y-730476D01*
X3638571Y-720952D01*
X3629048Y-711428D01*
X3819524Y-530476D02*
X3943333Y-530476D01*
X3876667Y-606667D01*
X3905238Y-606667D01*
X3924286Y-616190D01*
X3933809Y-625714D01*
X3943333Y-644762D01*
X3943333Y-692381D01*
X3933809Y-711428D01*
X3924286Y-720952D01*
X3905238Y-730476D01*
X3848095Y-730476D01*
X3829048Y-720952D01*
X3819524Y-711428D01*
X4181428Y-730476D02*
X4181428Y-530476D01*
X4267143Y-730476D02*
X4267143Y-625714D01*
X4257619Y-606667D01*
X4238571Y-597143D01*
X4210000Y-597143D01*
X4190952Y-606667D01*
X4181428Y-616190D01*
X4390952Y-730476D02*
X4371905Y-720952D01*
X4362381Y-711428D01*
X4352857Y-692381D01*
X4352857Y-635238D01*
X4362381Y-616190D01*
X4371905Y-606667D01*
X4390952Y-597143D01*
X4419524Y-597143D01*
X4438571Y-606667D01*
X4448095Y-616190D01*
X4457619Y-635238D01*
X4457619Y-692381D01*
X4448095Y-711428D01*
X4438571Y-720952D01*
X4419524Y-730476D01*
X4390952Y-730476D01*
X4571905Y-730476D02*
X4552857Y-720952D01*
X4543333Y-701905D01*
X4543333Y-530476D01*
X4724286Y-720952D02*
X4705238Y-730476D01*
X4667143Y-730476D01*
X4648095Y-720952D01*
X4638571Y-701905D01*
X4638571Y-625714D01*
X4648095Y-606667D01*
X4667143Y-597143D01*
X4705238Y-597143D01*
X4724286Y-606667D01*
X4733810Y-625714D01*
X4733810Y-644762D01*
X4638571Y-663810D01*
X4810000Y-720952D02*
X4829048Y-730476D01*
X4867143Y-730476D01*
X4886190Y-720952D01*
X4895714Y-701905D01*
X4895714Y-692381D01*
X4886190Y-673333D01*
X4867143Y-663810D01*
X4838571Y-663810D01*
X4819524Y-654286D01*
X4810000Y-635238D01*
X4810000Y-625714D01*
X4819524Y-606667D01*
X4838571Y-597143D01*
X4867143Y-597143D01*
X4886190Y-606667D01*
X4962381Y-806667D02*
X4971905Y-797143D01*
X4990952Y-768571D01*
X5000476Y-749524D01*
X5010000Y-720952D01*
X5019524Y-673333D01*
X5019524Y-635238D01*
X5010000Y-587619D01*
X5000476Y-559048D01*
X4990952Y-540000D01*
X4971905Y-511428D01*
X4962381Y-501905D01*
D12*
X0Y-904000D02*
G75*
G03*
X0Y-904000I-50000J0D01*
G01*
D10*
X362381Y-994476D02*
X248095Y-994476D01*
X305238Y-994476D02*
X305238Y-794476D01*
X286190Y-823048D01*
X267143Y-842095D01*
X248095Y-851619D01*
X448095Y-975428D02*
X457619Y-984952D01*
X448095Y-994476D01*
X438571Y-984952D01*
X448095Y-975428D01*
X448095Y-994476D01*
X581429Y-794476D02*
X600476Y-794476D01*
X619524Y-804000D01*
X629048Y-813524D01*
X638571Y-832571D01*
X648095Y-870667D01*
X648095Y-918286D01*
X638571Y-956381D01*
X629048Y-975428D01*
X619524Y-984952D01*
X600476Y-994476D01*
X581429Y-994476D01*
X562381Y-984952D01*
X552857Y-975428D01*
X543333Y-956381D01*
X533810Y-918286D01*
X533810Y-870667D01*
X543333Y-832571D01*
X552857Y-813524D01*
X562381Y-804000D01*
X581429Y-794476D01*
X771905Y-794476D02*
X790952Y-794476D01*
X810000Y-804000D01*
X819524Y-813524D01*
X829048Y-832571D01*
X838571Y-870667D01*
X838571Y-918286D01*
X829048Y-956381D01*
X819524Y-975428D01*
X810000Y-984952D01*
X790952Y-994476D01*
X771905Y-994476D01*
X752857Y-984952D01*
X743333Y-975428D01*
X733809Y-956381D01*
X724286Y-918286D01*
X724286Y-870667D01*
X733809Y-832571D01*
X743333Y-813524D01*
X752857Y-804000D01*
X771905Y-794476D01*
X962381Y-794476D02*
X981428Y-794476D01*
X1000476Y-804000D01*
X1010000Y-813524D01*
X1019524Y-832571D01*
X1029048Y-870667D01*
X1029048Y-918286D01*
X1019524Y-956381D01*
X1010000Y-975428D01*
X1000476Y-984952D01*
X981428Y-994476D01*
X962381Y-994476D01*
X943333Y-984952D01*
X933809Y-975428D01*
X924286Y-956381D01*
X914762Y-918286D01*
X914762Y-870667D01*
X924286Y-832571D01*
X933809Y-813524D01*
X943333Y-804000D01*
X962381Y-794476D01*
X1114762Y-994476D02*
X1114762Y-861143D01*
X1114762Y-880190D02*
X1124286Y-870667D01*
X1143333Y-861143D01*
X1171905Y-861143D01*
X1190952Y-870667D01*
X1200476Y-889714D01*
X1200476Y-994476D01*
X1200476Y-889714D02*
X1210000Y-870667D01*
X1229048Y-861143D01*
X1257619Y-861143D01*
X1276667Y-870667D01*
X1286190Y-889714D01*
X1286190Y-994476D01*
X1381429Y-994476D02*
X1381429Y-861143D01*
X1381429Y-880190D02*
X1390952Y-870667D01*
X1410000Y-861143D01*
X1438571Y-861143D01*
X1457619Y-870667D01*
X1467143Y-889714D01*
X1467143Y-994476D01*
X1467143Y-889714D02*
X1476667Y-870667D01*
X1495714Y-861143D01*
X1524286Y-861143D01*
X1543333Y-870667D01*
X1552857Y-889714D01*
X1552857Y-994476D01*
X1943333Y-784952D02*
X1771905Y-1042095D01*
X2200476Y-794476D02*
X2219524Y-794476D01*
X2238571Y-804000D01*
X2248095Y-813524D01*
X2257619Y-832571D01*
X2267143Y-870667D01*
X2267143Y-918286D01*
X2257619Y-956381D01*
X2248095Y-975428D01*
X2238571Y-984952D01*
X2219524Y-994476D01*
X2200476Y-994476D01*
X2181429Y-984952D01*
X2171905Y-975428D01*
X2162381Y-956381D01*
X2152857Y-918286D01*
X2152857Y-870667D01*
X2162381Y-832571D01*
X2171905Y-813524D01*
X2181429Y-804000D01*
X2200476Y-794476D01*
X2352857Y-975428D02*
X2362381Y-984952D01*
X2352857Y-994476D01*
X2343333Y-984952D01*
X2352857Y-975428D01*
X2352857Y-994476D01*
X2486190Y-794476D02*
X2505238Y-794476D01*
X2524286Y-804000D01*
X2533810Y-813524D01*
X2543333Y-832571D01*
X2552857Y-870667D01*
X2552857Y-918286D01*
X2543333Y-956381D01*
X2533810Y-975428D01*
X2524286Y-984952D01*
X2505238Y-994476D01*
X2486190Y-994476D01*
X2467143Y-984952D01*
X2457619Y-975428D01*
X2448095Y-956381D01*
X2438571Y-918286D01*
X2438571Y-870667D01*
X2448095Y-832571D01*
X2457619Y-813524D01*
X2467143Y-804000D01*
X2486190Y-794476D01*
X2619524Y-794476D02*
X2743333Y-794476D01*
X2676667Y-870667D01*
X2705238Y-870667D01*
X2724286Y-880190D01*
X2733810Y-889714D01*
X2743333Y-908762D01*
X2743333Y-956381D01*
X2733810Y-975428D01*
X2724286Y-984952D01*
X2705238Y-994476D01*
X2648095Y-994476D01*
X2629048Y-984952D01*
X2619524Y-975428D01*
X2838571Y-994476D02*
X2876667Y-994476D01*
X2895714Y-984952D01*
X2905238Y-975428D01*
X2924286Y-946857D01*
X2933809Y-908762D01*
X2933809Y-832571D01*
X2924286Y-813524D01*
X2914762Y-804000D01*
X2895714Y-794476D01*
X2857619Y-794476D01*
X2838571Y-804000D01*
X2829048Y-813524D01*
X2819524Y-832571D01*
X2819524Y-880190D01*
X2829048Y-899238D01*
X2838571Y-908762D01*
X2857619Y-918286D01*
X2895714Y-918286D01*
X2914762Y-908762D01*
X2924286Y-899238D01*
X2933809Y-880190D01*
X3105238Y-861143D02*
X3105238Y-994476D01*
X3057619Y-784952D02*
X3010000Y-927809D01*
X3133809Y-927809D01*
X3200476Y-794476D02*
X3200476Y-832571D01*
X3276667Y-794476D02*
X3276667Y-832571D01*
X3571905Y-1070667D02*
X3562381Y-1061143D01*
X3543333Y-1032571D01*
X3533809Y-1013524D01*
X3524286Y-984952D01*
X3514762Y-937333D01*
X3514762Y-899238D01*
X3524286Y-851619D01*
X3533809Y-823048D01*
X3543333Y-804000D01*
X3562381Y-775428D01*
X3571905Y-765905D01*
X3629048Y-794476D02*
X3752857Y-794476D01*
X3686190Y-870667D01*
X3714762Y-870667D01*
X3733809Y-880190D01*
X3743333Y-889714D01*
X3752857Y-908762D01*
X3752857Y-956381D01*
X3743333Y-975428D01*
X3733809Y-984952D01*
X3714762Y-994476D01*
X3657619Y-994476D01*
X3638571Y-984952D01*
X3629048Y-975428D01*
X3924286Y-861143D02*
X3924286Y-994476D01*
X3876667Y-784952D02*
X3829048Y-927809D01*
X3952857Y-927809D01*
X4181428Y-994476D02*
X4181428Y-794476D01*
X4267143Y-994476D02*
X4267143Y-889714D01*
X4257619Y-870667D01*
X4238571Y-861143D01*
X4210000Y-861143D01*
X4190952Y-870667D01*
X4181428Y-880190D01*
X4390952Y-994476D02*
X4371905Y-984952D01*
X4362381Y-975428D01*
X4352857Y-956381D01*
X4352857Y-899238D01*
X4362381Y-880190D01*
X4371905Y-870667D01*
X4390952Y-861143D01*
X4419524Y-861143D01*
X4438571Y-870667D01*
X4448095Y-880190D01*
X4457619Y-899238D01*
X4457619Y-956381D01*
X4448095Y-975428D01*
X4438571Y-984952D01*
X4419524Y-994476D01*
X4390952Y-994476D01*
X4571905Y-994476D02*
X4552857Y-984952D01*
X4543333Y-965905D01*
X4543333Y-794476D01*
X4724286Y-984952D02*
X4705238Y-994476D01*
X4667143Y-994476D01*
X4648095Y-984952D01*
X4638571Y-965905D01*
X4638571Y-889714D01*
X4648095Y-870667D01*
X4667143Y-861143D01*
X4705238Y-861143D01*
X4724286Y-870667D01*
X4733810Y-889714D01*
X4733810Y-908762D01*
X4638571Y-927809D01*
X4810000Y-984952D02*
X4829048Y-994476D01*
X4867143Y-994476D01*
X4886190Y-984952D01*
X4895714Y-965905D01*
X4895714Y-956381D01*
X4886190Y-937333D01*
X4867143Y-927809D01*
X4838571Y-927809D01*
X4819524Y-918286D01*
X4810000Y-899238D01*
X4810000Y-889714D01*
X4819524Y-870667D01*
X4838571Y-861143D01*
X4867143Y-861143D01*
X4886190Y-870667D01*
X4962381Y-1070667D02*
X4971905Y-1061143D01*
X4990952Y-1032571D01*
X5000476Y-1013524D01*
X5010000Y-984952D01*
X5019524Y-937333D01*
X5019524Y-899238D01*
X5010000Y-851619D01*
X5000476Y-823048D01*
X4990952Y-804000D01*
X4971905Y-775428D01*
X4962381Y-765905D01*
D13*
X-60960Y-1107040D02*
X-60960Y-1228960D01*
X-121920Y-1168000D02*
X0Y-1168000D01*
D10*
X362381Y-1258476D02*
X248095Y-1258476D01*
X305238Y-1258476D02*
X305238Y-1058476D01*
X286190Y-1087048D01*
X267143Y-1106095D01*
X248095Y-1115619D01*
X448095Y-1239429D02*
X457619Y-1248952D01*
X448095Y-1258476D01*
X438571Y-1248952D01*
X448095Y-1239429D01*
X448095Y-1258476D01*
X533810Y-1077524D02*
X543333Y-1068000D01*
X562381Y-1058476D01*
X610000Y-1058476D01*
X629048Y-1068000D01*
X638571Y-1077524D01*
X648095Y-1096571D01*
X648095Y-1115619D01*
X638571Y-1144190D01*
X524286Y-1258476D01*
X648095Y-1258476D01*
X838571Y-1258476D02*
X724286Y-1258476D01*
X781428Y-1258476D02*
X781428Y-1058476D01*
X762381Y-1087048D01*
X743333Y-1106095D01*
X724286Y-1115619D01*
X933809Y-1258476D02*
X971905Y-1258476D01*
X990952Y-1248952D01*
X1000476Y-1239429D01*
X1019524Y-1210857D01*
X1029048Y-1172762D01*
X1029048Y-1096571D01*
X1019524Y-1077524D01*
X1010000Y-1068000D01*
X990952Y-1058476D01*
X952857Y-1058476D01*
X933809Y-1068000D01*
X924286Y-1077524D01*
X914762Y-1096571D01*
X914762Y-1144190D01*
X924286Y-1163238D01*
X933809Y-1172762D01*
X952857Y-1182286D01*
X990952Y-1182286D01*
X1010000Y-1172762D01*
X1019524Y-1163238D01*
X1029048Y-1144190D01*
X1114762Y-1258476D02*
X1114762Y-1125143D01*
X1114762Y-1144190D02*
X1124286Y-1134667D01*
X1143333Y-1125143D01*
X1171905Y-1125143D01*
X1190952Y-1134667D01*
X1200476Y-1153714D01*
X1200476Y-1258476D01*
X1200476Y-1153714D02*
X1210000Y-1134667D01*
X1229048Y-1125143D01*
X1257619Y-1125143D01*
X1276667Y-1134667D01*
X1286190Y-1153714D01*
X1286190Y-1258476D01*
X1381429Y-1258476D02*
X1381429Y-1125143D01*
X1381429Y-1144190D02*
X1390952Y-1134667D01*
X1410000Y-1125143D01*
X1438571Y-1125143D01*
X1457619Y-1134667D01*
X1467143Y-1153714D01*
X1467143Y-1258476D01*
X1467143Y-1153714D02*
X1476667Y-1134667D01*
X1495714Y-1125143D01*
X1524286Y-1125143D01*
X1543333Y-1134667D01*
X1552857Y-1153714D01*
X1552857Y-1258476D01*
X1943333Y-1048952D02*
X1771905Y-1306095D01*
X2200476Y-1058476D02*
X2219524Y-1058476D01*
X2238571Y-1068000D01*
X2248095Y-1077524D01*
X2257619Y-1096571D01*
X2267143Y-1134667D01*
X2267143Y-1182286D01*
X2257619Y-1220381D01*
X2248095Y-1239429D01*
X2238571Y-1248952D01*
X2219524Y-1258476D01*
X2200476Y-1258476D01*
X2181429Y-1248952D01*
X2171905Y-1239429D01*
X2162381Y-1220381D01*
X2152857Y-1182286D01*
X2152857Y-1134667D01*
X2162381Y-1096571D01*
X2171905Y-1077524D01*
X2181429Y-1068000D01*
X2200476Y-1058476D01*
X2352857Y-1239429D02*
X2362381Y-1248952D01*
X2352857Y-1258476D01*
X2343333Y-1248952D01*
X2352857Y-1239429D01*
X2352857Y-1258476D01*
X2486190Y-1058476D02*
X2505238Y-1058476D01*
X2524286Y-1068000D01*
X2533810Y-1077524D01*
X2543333Y-1096571D01*
X2552857Y-1134667D01*
X2552857Y-1182286D01*
X2543333Y-1220381D01*
X2533810Y-1239429D01*
X2524286Y-1248952D01*
X2505238Y-1258476D01*
X2486190Y-1258476D01*
X2467143Y-1248952D01*
X2457619Y-1239429D01*
X2448095Y-1220381D01*
X2438571Y-1182286D01*
X2438571Y-1134667D01*
X2448095Y-1096571D01*
X2457619Y-1077524D01*
X2467143Y-1068000D01*
X2486190Y-1058476D01*
X2724286Y-1125143D02*
X2724286Y-1258476D01*
X2676667Y-1048952D02*
X2629048Y-1191810D01*
X2752857Y-1191810D01*
X2857619Y-1144190D02*
X2838571Y-1134667D01*
X2829048Y-1125143D01*
X2819524Y-1106095D01*
X2819524Y-1096571D01*
X2829048Y-1077524D01*
X2838571Y-1068000D01*
X2857619Y-1058476D01*
X2895714Y-1058476D01*
X2914762Y-1068000D01*
X2924286Y-1077524D01*
X2933809Y-1096571D01*
X2933809Y-1106095D01*
X2924286Y-1125143D01*
X2914762Y-1134667D01*
X2895714Y-1144190D01*
X2857619Y-1144190D01*
X2838571Y-1153714D01*
X2829048Y-1163238D01*
X2819524Y-1182286D01*
X2819524Y-1220381D01*
X2829048Y-1239429D01*
X2838571Y-1248952D01*
X2857619Y-1258476D01*
X2895714Y-1258476D01*
X2914762Y-1248952D01*
X2924286Y-1239429D01*
X2933809Y-1220381D01*
X2933809Y-1182286D01*
X2924286Y-1163238D01*
X2914762Y-1153714D01*
X2895714Y-1144190D01*
X3057619Y-1058476D02*
X3076667Y-1058476D01*
X3095714Y-1068000D01*
X3105238Y-1077524D01*
X3114762Y-1096571D01*
X3124286Y-1134667D01*
X3124286Y-1182286D01*
X3114762Y-1220381D01*
X3105238Y-1239429D01*
X3095714Y-1248952D01*
X3076667Y-1258476D01*
X3057619Y-1258476D01*
X3038571Y-1248952D01*
X3029048Y-1239429D01*
X3019524Y-1220381D01*
X3010000Y-1182286D01*
X3010000Y-1134667D01*
X3019524Y-1096571D01*
X3029048Y-1077524D01*
X3038571Y-1068000D01*
X3057619Y-1058476D01*
X3200476Y-1058476D02*
X3200476Y-1096571D01*
X3276667Y-1058476D02*
X3276667Y-1096571D01*
X3571905Y-1334667D02*
X3562381Y-1325143D01*
X3543333Y-1296571D01*
X3533809Y-1277524D01*
X3524286Y-1248952D01*
X3514762Y-1201333D01*
X3514762Y-1163238D01*
X3524286Y-1115619D01*
X3533809Y-1087048D01*
X3543333Y-1068000D01*
X3562381Y-1039428D01*
X3571905Y-1029905D01*
X3733809Y-1125143D02*
X3733809Y-1258476D01*
X3686190Y-1048952D02*
X3638571Y-1191810D01*
X3762381Y-1191810D01*
X3867143Y-1144190D02*
X3848095Y-1134667D01*
X3838571Y-1125143D01*
X3829048Y-1106095D01*
X3829048Y-1096571D01*
X3838571Y-1077524D01*
X3848095Y-1068000D01*
X3867143Y-1058476D01*
X3905238Y-1058476D01*
X3924286Y-1068000D01*
X3933809Y-1077524D01*
X3943333Y-1096571D01*
X3943333Y-1106095D01*
X3933809Y-1125143D01*
X3924286Y-1134667D01*
X3905238Y-1144190D01*
X3867143Y-1144190D01*
X3848095Y-1153714D01*
X3838571Y-1163238D01*
X3829048Y-1182286D01*
X3829048Y-1220381D01*
X3838571Y-1239429D01*
X3848095Y-1248952D01*
X3867143Y-1258476D01*
X3905238Y-1258476D01*
X3924286Y-1248952D01*
X3933809Y-1239429D01*
X3943333Y-1220381D01*
X3943333Y-1182286D01*
X3933809Y-1163238D01*
X3924286Y-1153714D01*
X3905238Y-1144190D01*
X4181428Y-1258476D02*
X4181428Y-1058476D01*
X4267143Y-1258476D02*
X4267143Y-1153714D01*
X4257619Y-1134667D01*
X4238571Y-1125143D01*
X4210000Y-1125143D01*
X4190952Y-1134667D01*
X4181428Y-1144190D01*
X4390952Y-1258476D02*
X4371905Y-1248952D01*
X4362381Y-1239429D01*
X4352857Y-1220381D01*
X4352857Y-1163238D01*
X4362381Y-1144190D01*
X4371905Y-1134667D01*
X4390952Y-1125143D01*
X4419524Y-1125143D01*
X4438571Y-1134667D01*
X4448095Y-1144190D01*
X4457619Y-1163238D01*
X4457619Y-1220381D01*
X4448095Y-1239429D01*
X4438571Y-1248952D01*
X4419524Y-1258476D01*
X4390952Y-1258476D01*
X4571905Y-1258476D02*
X4552857Y-1248952D01*
X4543333Y-1229905D01*
X4543333Y-1058476D01*
X4724286Y-1248952D02*
X4705238Y-1258476D01*
X4667143Y-1258476D01*
X4648095Y-1248952D01*
X4638571Y-1229905D01*
X4638571Y-1153714D01*
X4648095Y-1134667D01*
X4667143Y-1125143D01*
X4705238Y-1125143D01*
X4724286Y-1134667D01*
X4733810Y-1153714D01*
X4733810Y-1172762D01*
X4638571Y-1191810D01*
X4810000Y-1248952D02*
X4829048Y-1258476D01*
X4867143Y-1258476D01*
X4886190Y-1248952D01*
X4895714Y-1229905D01*
X4895714Y-1220381D01*
X4886190Y-1201333D01*
X4867143Y-1191810D01*
X4838571Y-1191810D01*
X4819524Y-1182286D01*
X4810000Y-1163238D01*
X4810000Y-1153714D01*
X4819524Y-1134667D01*
X4838571Y-1125143D01*
X4867143Y-1125143D01*
X4886190Y-1134667D01*
X4962381Y-1334667D02*
X4971905Y-1325143D01*
X4990952Y-1296571D01*
X5000476Y-1277524D01*
X5010000Y-1248952D01*
X5019524Y-1201333D01*
X5019524Y-1163238D01*
X5010000Y-1115619D01*
X5000476Y-1087048D01*
X4990952Y-1068000D01*
X4971905Y-1039428D01*
X4962381Y-1029905D01*
X-29289Y-1502711D02*
X-29289Y-1361289D01*
X-170711Y-1361289D01*
X-170711Y-1502711D01*
X-29289Y-1502711D01*
X248095Y-1341524D02*
X257619Y-1332000D01*
X276667Y-1322476D01*
X324286Y-1322476D01*
X343333Y-1332000D01*
X352857Y-1341524D01*
X362381Y-1360571D01*
X362381Y-1379619D01*
X352857Y-1408190D01*
X238571Y-1522476D01*
X362381Y-1522476D01*
X448095Y-1503428D02*
X457619Y-1512952D01*
X448095Y-1522476D01*
X438571Y-1512952D01*
X448095Y-1503428D01*
X448095Y-1522476D01*
X629048Y-1322476D02*
X590952Y-1322476D01*
X571905Y-1332000D01*
X562381Y-1341524D01*
X543333Y-1370095D01*
X533810Y-1408190D01*
X533810Y-1484381D01*
X543333Y-1503428D01*
X552857Y-1512952D01*
X571905Y-1522476D01*
X610000Y-1522476D01*
X629048Y-1512952D01*
X638571Y-1503428D01*
X648095Y-1484381D01*
X648095Y-1436762D01*
X638571Y-1417714D01*
X629048Y-1408190D01*
X610000Y-1398667D01*
X571905Y-1398667D01*
X552857Y-1408190D01*
X543333Y-1417714D01*
X533810Y-1436762D01*
X743333Y-1522476D02*
X781428Y-1522476D01*
X800476Y-1512952D01*
X810000Y-1503428D01*
X829048Y-1474857D01*
X838571Y-1436762D01*
X838571Y-1360571D01*
X829048Y-1341524D01*
X819524Y-1332000D01*
X800476Y-1322476D01*
X762381Y-1322476D01*
X743333Y-1332000D01*
X733809Y-1341524D01*
X724286Y-1360571D01*
X724286Y-1408190D01*
X733809Y-1427238D01*
X743333Y-1436762D01*
X762381Y-1446286D01*
X800476Y-1446286D01*
X819524Y-1436762D01*
X829048Y-1427238D01*
X838571Y-1408190D01*
X962381Y-1322476D02*
X981428Y-1322476D01*
X1000476Y-1332000D01*
X1010000Y-1341524D01*
X1019524Y-1360571D01*
X1029048Y-1398667D01*
X1029048Y-1446286D01*
X1019524Y-1484381D01*
X1010000Y-1503428D01*
X1000476Y-1512952D01*
X981428Y-1522476D01*
X962381Y-1522476D01*
X943333Y-1512952D01*
X933809Y-1503428D01*
X924286Y-1484381D01*
X914762Y-1446286D01*
X914762Y-1398667D01*
X924286Y-1360571D01*
X933809Y-1341524D01*
X943333Y-1332000D01*
X962381Y-1322476D01*
X1114762Y-1522476D02*
X1114762Y-1389143D01*
X1114762Y-1408190D02*
X1124286Y-1398667D01*
X1143333Y-1389143D01*
X1171905Y-1389143D01*
X1190952Y-1398667D01*
X1200476Y-1417714D01*
X1200476Y-1522476D01*
X1200476Y-1417714D02*
X1210000Y-1398667D01*
X1229048Y-1389143D01*
X1257619Y-1389143D01*
X1276667Y-1398667D01*
X1286190Y-1417714D01*
X1286190Y-1522476D01*
X1381429Y-1522476D02*
X1381429Y-1389143D01*
X1381429Y-1408190D02*
X1390952Y-1398667D01*
X1410000Y-1389143D01*
X1438571Y-1389143D01*
X1457619Y-1398667D01*
X1467143Y-1417714D01*
X1467143Y-1522476D01*
X1467143Y-1417714D02*
X1476667Y-1398667D01*
X1495714Y-1389143D01*
X1524286Y-1389143D01*
X1543333Y-1398667D01*
X1552857Y-1417714D01*
X1552857Y-1522476D01*
X1943333Y-1312952D02*
X1771905Y-1570095D01*
X2200476Y-1322476D02*
X2219524Y-1322476D01*
X2238571Y-1332000D01*
X2248095Y-1341524D01*
X2257619Y-1360571D01*
X2267143Y-1398667D01*
X2267143Y-1446286D01*
X2257619Y-1484381D01*
X2248095Y-1503428D01*
X2238571Y-1512952D01*
X2219524Y-1522476D01*
X2200476Y-1522476D01*
X2181429Y-1512952D01*
X2171905Y-1503428D01*
X2162381Y-1484381D01*
X2152857Y-1446286D01*
X2152857Y-1398667D01*
X2162381Y-1360571D01*
X2171905Y-1341524D01*
X2181429Y-1332000D01*
X2200476Y-1322476D01*
X2352857Y-1503428D02*
X2362381Y-1512952D01*
X2352857Y-1522476D01*
X2343333Y-1512952D01*
X2352857Y-1503428D01*
X2352857Y-1522476D01*
X2552857Y-1522476D02*
X2438571Y-1522476D01*
X2495714Y-1522476D02*
X2495714Y-1322476D01*
X2476667Y-1351048D01*
X2457619Y-1370095D01*
X2438571Y-1379619D01*
X2676667Y-1322476D02*
X2695714Y-1322476D01*
X2714762Y-1332000D01*
X2724286Y-1341524D01*
X2733810Y-1360571D01*
X2743333Y-1398667D01*
X2743333Y-1446286D01*
X2733810Y-1484381D01*
X2724286Y-1503428D01*
X2714762Y-1512952D01*
X2695714Y-1522476D01*
X2676667Y-1522476D01*
X2657619Y-1512952D01*
X2648095Y-1503428D01*
X2638571Y-1484381D01*
X2629048Y-1446286D01*
X2629048Y-1398667D01*
X2638571Y-1360571D01*
X2648095Y-1341524D01*
X2657619Y-1332000D01*
X2676667Y-1322476D01*
X2924286Y-1322476D02*
X2829048Y-1322476D01*
X2819524Y-1417714D01*
X2829048Y-1408190D01*
X2848095Y-1398667D01*
X2895714Y-1398667D01*
X2914762Y-1408190D01*
X2924286Y-1417714D01*
X2933809Y-1436762D01*
X2933809Y-1484381D01*
X2924286Y-1503428D01*
X2914762Y-1512952D01*
X2895714Y-1522476D01*
X2848095Y-1522476D01*
X2829048Y-1512952D01*
X2819524Y-1503428D01*
X3029048Y-1522476D02*
X3067143Y-1522476D01*
X3086190Y-1512952D01*
X3095714Y-1503428D01*
X3114762Y-1474857D01*
X3124286Y-1436762D01*
X3124286Y-1360571D01*
X3114762Y-1341524D01*
X3105238Y-1332000D01*
X3086190Y-1322476D01*
X3048095Y-1322476D01*
X3029048Y-1332000D01*
X3019524Y-1341524D01*
X3010000Y-1360571D01*
X3010000Y-1408190D01*
X3019524Y-1427238D01*
X3029048Y-1436762D01*
X3048095Y-1446286D01*
X3086190Y-1446286D01*
X3105238Y-1436762D01*
X3114762Y-1427238D01*
X3124286Y-1408190D01*
X3200476Y-1322476D02*
X3200476Y-1360571D01*
X3276667Y-1322476D02*
X3276667Y-1360571D01*
X3571905Y-1598667D02*
X3562381Y-1589143D01*
X3543333Y-1560571D01*
X3533809Y-1541524D01*
X3524286Y-1512952D01*
X3514762Y-1465333D01*
X3514762Y-1427238D01*
X3524286Y-1379619D01*
X3533809Y-1351048D01*
X3543333Y-1332000D01*
X3562381Y-1303429D01*
X3571905Y-1293905D01*
X3638571Y-1341524D02*
X3648095Y-1332000D01*
X3667143Y-1322476D01*
X3714762Y-1322476D01*
X3733809Y-1332000D01*
X3743333Y-1341524D01*
X3752857Y-1360571D01*
X3752857Y-1379619D01*
X3743333Y-1408190D01*
X3629048Y-1522476D01*
X3752857Y-1522476D01*
X3990952Y-1522476D02*
X3990952Y-1322476D01*
X4076667Y-1522476D02*
X4076667Y-1417714D01*
X4067143Y-1398667D01*
X4048095Y-1389143D01*
X4019524Y-1389143D01*
X4000476Y-1398667D01*
X3990952Y-1408190D01*
X4200476Y-1522476D02*
X4181428Y-1512952D01*
X4171905Y-1503428D01*
X4162381Y-1484381D01*
X4162381Y-1427238D01*
X4171905Y-1408190D01*
X4181428Y-1398667D01*
X4200476Y-1389143D01*
X4229048Y-1389143D01*
X4248095Y-1398667D01*
X4257619Y-1408190D01*
X4267143Y-1427238D01*
X4267143Y-1484381D01*
X4257619Y-1503428D01*
X4248095Y-1512952D01*
X4229048Y-1522476D01*
X4200476Y-1522476D01*
X4381429Y-1522476D02*
X4362381Y-1512952D01*
X4352857Y-1493905D01*
X4352857Y-1322476D01*
X4533810Y-1512952D02*
X4514762Y-1522476D01*
X4476667Y-1522476D01*
X4457619Y-1512952D01*
X4448095Y-1493905D01*
X4448095Y-1417714D01*
X4457619Y-1398667D01*
X4476667Y-1389143D01*
X4514762Y-1389143D01*
X4533810Y-1398667D01*
X4543333Y-1417714D01*
X4543333Y-1436762D01*
X4448095Y-1455809D01*
X4619524Y-1512952D02*
X4638571Y-1522476D01*
X4676667Y-1522476D01*
X4695714Y-1512952D01*
X4705238Y-1493905D01*
X4705238Y-1484381D01*
X4695714Y-1465333D01*
X4676667Y-1455809D01*
X4648095Y-1455809D01*
X4629048Y-1446286D01*
X4619524Y-1427238D01*
X4619524Y-1417714D01*
X4629048Y-1398667D01*
X4648095Y-1389143D01*
X4676667Y-1389143D01*
X4695714Y-1398667D01*
X4771905Y-1598667D02*
X4781429Y-1589143D01*
X4800476Y-1560571D01*
X4810000Y-1541524D01*
X4819524Y-1512952D01*
X4829048Y-1465333D01*
X4829048Y-1427238D01*
X4819524Y-1379619D01*
X4810000Y-1351048D01*
X4800476Y-1332000D01*
X4781429Y-1303429D01*
X4771905Y-1293905D01*
M02*
