%TF.GenerationSoftware,KiCad,Pcbnew,(6.0.9)*%
%TF.CreationDate,2022-12-09T14:18:13+01:00*%
%TF.ProjectId,seq,7365712e-6b69-4636-9164-5f7063625858,rev?*%
%TF.SameCoordinates,Original*%
%TF.FileFunction,Legend,Top*%
%TF.FilePolarity,Positive*%
%FSLAX46Y46*%
G04 Gerber Fmt 4.6, Leading zero omitted, Abs format (unit mm)*
G04 Created by KiCad (PCBNEW (6.0.9)) date 2022-12-09 14:18:13*
%MOMM*%
%LPD*%
G01*
G04 APERTURE LIST*
%ADD10C,0.150000*%
%ADD11C,0.120000*%
%ADD12C,0.127000*%
%ADD13C,0.200000*%
G04 APERTURE END LIST*
D10*
%TO.C,3.3v1*%
X-17914761Y-59462380D02*
X-17295714Y-59462380D01*
X-17629047Y-59843333D01*
X-17486190Y-59843333D01*
X-17390952Y-59890952D01*
X-17343333Y-59938571D01*
X-17295714Y-60033809D01*
X-17295714Y-60271904D01*
X-17343333Y-60367142D01*
X-17390952Y-60414761D01*
X-17486190Y-60462380D01*
X-17771904Y-60462380D01*
X-17867142Y-60414761D01*
X-17914761Y-60367142D01*
X-16867142Y-60367142D02*
X-16819523Y-60414761D01*
X-16867142Y-60462380D01*
X-16914761Y-60414761D01*
X-16867142Y-60367142D01*
X-16867142Y-60462380D01*
X-16486190Y-59462380D02*
X-15867142Y-59462380D01*
X-16200476Y-59843333D01*
X-16057619Y-59843333D01*
X-15962380Y-59890952D01*
X-15914761Y-59938571D01*
X-15867142Y-60033809D01*
X-15867142Y-60271904D01*
X-15914761Y-60367142D01*
X-15962380Y-60414761D01*
X-16057619Y-60462380D01*
X-16343333Y-60462380D01*
X-16438571Y-60414761D01*
X-16486190Y-60367142D01*
X-15533809Y-59795714D02*
X-15295714Y-60462380D01*
X-15057619Y-59795714D01*
X-14152857Y-60462380D02*
X-14724285Y-60462380D01*
X-14438571Y-60462380D02*
X-14438571Y-59462380D01*
X-14533809Y-59605238D01*
X-14629047Y-59700476D01*
X-14724285Y-59748095D01*
%TO.C,J5*%
X176127380Y-64373833D02*
X176841666Y-64373833D01*
X176984523Y-64421452D01*
X177079761Y-64516690D01*
X177127380Y-64659547D01*
X177127380Y-64754785D01*
X176127380Y-63421452D02*
X176127380Y-63897642D01*
X176603571Y-63945261D01*
X176555952Y-63897642D01*
X176508333Y-63802404D01*
X176508333Y-63564309D01*
X176555952Y-63469071D01*
X176603571Y-63421452D01*
X176698809Y-63373833D01*
X176936904Y-63373833D01*
X177032142Y-63421452D01*
X177079761Y-63469071D01*
X177127380Y-63564309D01*
X177127380Y-63802404D01*
X177079761Y-63897642D01*
X177032142Y-63945261D01*
%TO.C,J4*%
X131087380Y-64423833D02*
X131801666Y-64423833D01*
X131944523Y-64471452D01*
X132039761Y-64566690D01*
X132087380Y-64709547D01*
X132087380Y-64804785D01*
X131420714Y-63519071D02*
X132087380Y-63519071D01*
X131039761Y-63757166D02*
X131754047Y-63995261D01*
X131754047Y-63376214D01*
%TO.C,J8*%
X311087380Y-64343833D02*
X311801666Y-64343833D01*
X311944523Y-64391452D01*
X312039761Y-64486690D01*
X312087380Y-64629547D01*
X312087380Y-64724785D01*
X311515952Y-63724785D02*
X311468333Y-63820023D01*
X311420714Y-63867642D01*
X311325476Y-63915261D01*
X311277857Y-63915261D01*
X311182619Y-63867642D01*
X311135000Y-63820023D01*
X311087380Y-63724785D01*
X311087380Y-63534309D01*
X311135000Y-63439071D01*
X311182619Y-63391452D01*
X311277857Y-63343833D01*
X311325476Y-63343833D01*
X311420714Y-63391452D01*
X311468333Y-63439071D01*
X311515952Y-63534309D01*
X311515952Y-63724785D01*
X311563571Y-63820023D01*
X311611190Y-63867642D01*
X311706428Y-63915261D01*
X311896904Y-63915261D01*
X311992142Y-63867642D01*
X312039761Y-63820023D01*
X312087380Y-63724785D01*
X312087380Y-63534309D01*
X312039761Y-63439071D01*
X311992142Y-63391452D01*
X311896904Y-63343833D01*
X311706428Y-63343833D01*
X311611190Y-63391452D01*
X311563571Y-63439071D01*
X311515952Y-63534309D01*
%TO.C,J14*%
X221057380Y-134960023D02*
X221771666Y-134960023D01*
X221914523Y-135007642D01*
X222009761Y-135102880D01*
X222057380Y-135245738D01*
X222057380Y-135340976D01*
X222057380Y-133960023D02*
X222057380Y-134531452D01*
X222057380Y-134245738D02*
X221057380Y-134245738D01*
X221200238Y-134340976D01*
X221295476Y-134436214D01*
X221343095Y-134531452D01*
X221390714Y-133102880D02*
X222057380Y-133102880D01*
X221009761Y-133340976D02*
X221724047Y-133579071D01*
X221724047Y-132960023D01*
%TO.C,J11*%
X86127380Y-134860023D02*
X86841666Y-134860023D01*
X86984523Y-134907642D01*
X87079761Y-135002880D01*
X87127380Y-135145738D01*
X87127380Y-135240976D01*
X87127380Y-133860023D02*
X87127380Y-134431452D01*
X87127380Y-134145738D02*
X86127380Y-134145738D01*
X86270238Y-134240976D01*
X86365476Y-134336214D01*
X86413095Y-134431452D01*
X87127380Y-132907642D02*
X87127380Y-133479071D01*
X87127380Y-133193357D02*
X86127380Y-133193357D01*
X86270238Y-133288595D01*
X86365476Y-133383833D01*
X86413095Y-133479071D01*
%TO.C,R16*%
X327782380Y-125857857D02*
X327306190Y-126191190D01*
X327782380Y-126429285D02*
X326782380Y-126429285D01*
X326782380Y-126048333D01*
X326830000Y-125953095D01*
X326877619Y-125905476D01*
X326972857Y-125857857D01*
X327115714Y-125857857D01*
X327210952Y-125905476D01*
X327258571Y-125953095D01*
X327306190Y-126048333D01*
X327306190Y-126429285D01*
X327782380Y-124905476D02*
X327782380Y-125476904D01*
X327782380Y-125191190D02*
X326782380Y-125191190D01*
X326925238Y-125286428D01*
X327020476Y-125381666D01*
X327068095Y-125476904D01*
X326782380Y-124048333D02*
X326782380Y-124238809D01*
X326830000Y-124334047D01*
X326877619Y-124381666D01*
X327020476Y-124476904D01*
X327210952Y-124524523D01*
X327591904Y-124524523D01*
X327687142Y-124476904D01*
X327734761Y-124429285D01*
X327782380Y-124334047D01*
X327782380Y-124143571D01*
X327734761Y-124048333D01*
X327687142Y-124000714D01*
X327591904Y-123953095D01*
X327353809Y-123953095D01*
X327258571Y-124000714D01*
X327210952Y-124048333D01*
X327163333Y-124143571D01*
X327163333Y-124334047D01*
X327210952Y-124429285D01*
X327258571Y-124476904D01*
X327353809Y-124524523D01*
%TO.C,REF\u002A\u002A*%
X347116666Y-132952380D02*
X346783333Y-132476190D01*
X346545238Y-132952380D02*
X346545238Y-131952380D01*
X346926190Y-131952380D01*
X347021428Y-132000000D01*
X347069047Y-132047619D01*
X347116666Y-132142857D01*
X347116666Y-132285714D01*
X347069047Y-132380952D01*
X347021428Y-132428571D01*
X346926190Y-132476190D01*
X346545238Y-132476190D01*
X347545238Y-132428571D02*
X347878571Y-132428571D01*
X348021428Y-132952380D02*
X347545238Y-132952380D01*
X347545238Y-131952380D01*
X348021428Y-131952380D01*
X348783333Y-132428571D02*
X348450000Y-132428571D01*
X348450000Y-132952380D02*
X348450000Y-131952380D01*
X348926190Y-131952380D01*
X349450000Y-131952380D02*
X349450000Y-132190476D01*
X349211904Y-132095238D02*
X349450000Y-132190476D01*
X349688095Y-132095238D01*
X349307142Y-132380952D02*
X349450000Y-132190476D01*
X349592857Y-132380952D01*
X350211904Y-131952380D02*
X350211904Y-132190476D01*
X349973809Y-132095238D02*
X350211904Y-132190476D01*
X350450000Y-132095238D01*
X350069047Y-132380952D02*
X350211904Y-132190476D01*
X350354761Y-132380952D01*
%TO.C,J17*%
X340757976Y-48662380D02*
X340757976Y-49376666D01*
X340710357Y-49519523D01*
X340615119Y-49614761D01*
X340472261Y-49662380D01*
X340377023Y-49662380D01*
X341757976Y-49662380D02*
X341186547Y-49662380D01*
X341472261Y-49662380D02*
X341472261Y-48662380D01*
X341377023Y-48805238D01*
X341281785Y-48900476D01*
X341186547Y-48948095D01*
X342091309Y-48662380D02*
X342757976Y-48662380D01*
X342329404Y-49662380D01*
%TO.C,R15*%
X282002380Y-125987857D02*
X281526190Y-126321190D01*
X282002380Y-126559285D02*
X281002380Y-126559285D01*
X281002380Y-126178333D01*
X281050000Y-126083095D01*
X281097619Y-126035476D01*
X281192857Y-125987857D01*
X281335714Y-125987857D01*
X281430952Y-126035476D01*
X281478571Y-126083095D01*
X281526190Y-126178333D01*
X281526190Y-126559285D01*
X282002380Y-125035476D02*
X282002380Y-125606904D01*
X282002380Y-125321190D02*
X281002380Y-125321190D01*
X281145238Y-125416428D01*
X281240476Y-125511666D01*
X281288095Y-125606904D01*
X281002380Y-124130714D02*
X281002380Y-124606904D01*
X281478571Y-124654523D01*
X281430952Y-124606904D01*
X281383333Y-124511666D01*
X281383333Y-124273571D01*
X281430952Y-124178333D01*
X281478571Y-124130714D01*
X281573809Y-124083095D01*
X281811904Y-124083095D01*
X281907142Y-124130714D01*
X281954761Y-124178333D01*
X282002380Y-124273571D01*
X282002380Y-124511666D01*
X281954761Y-124606904D01*
X281907142Y-124654523D01*
%TO.C,REF\u002A\u002A*%
X347116666Y-37952380D02*
X346783333Y-37476190D01*
X346545238Y-37952380D02*
X346545238Y-36952380D01*
X346926190Y-36952380D01*
X347021428Y-37000000D01*
X347069047Y-37047619D01*
X347116666Y-37142857D01*
X347116666Y-37285714D01*
X347069047Y-37380952D01*
X347021428Y-37428571D01*
X346926190Y-37476190D01*
X346545238Y-37476190D01*
X347545238Y-37428571D02*
X347878571Y-37428571D01*
X348021428Y-37952380D02*
X347545238Y-37952380D01*
X347545238Y-36952380D01*
X348021428Y-36952380D01*
X348783333Y-37428571D02*
X348450000Y-37428571D01*
X348450000Y-37952380D02*
X348450000Y-36952380D01*
X348926190Y-36952380D01*
X349450000Y-36952380D02*
X349450000Y-37190476D01*
X349211904Y-37095238D02*
X349450000Y-37190476D01*
X349688095Y-37095238D01*
X349307142Y-37380952D02*
X349450000Y-37190476D01*
X349592857Y-37380952D01*
X350211904Y-36952380D02*
X350211904Y-37190476D01*
X349973809Y-37095238D02*
X350211904Y-37190476D01*
X350450000Y-37095238D01*
X350069047Y-37380952D02*
X350211904Y-37190476D01*
X350354761Y-37380952D01*
%TO.C,R11*%
X102222380Y-125962857D02*
X101746190Y-126296190D01*
X102222380Y-126534285D02*
X101222380Y-126534285D01*
X101222380Y-126153333D01*
X101270000Y-126058095D01*
X101317619Y-126010476D01*
X101412857Y-125962857D01*
X101555714Y-125962857D01*
X101650952Y-126010476D01*
X101698571Y-126058095D01*
X101746190Y-126153333D01*
X101746190Y-126534285D01*
X102222380Y-125010476D02*
X102222380Y-125581904D01*
X102222380Y-125296190D02*
X101222380Y-125296190D01*
X101365238Y-125391428D01*
X101460476Y-125486666D01*
X101508095Y-125581904D01*
X102222380Y-124058095D02*
X102222380Y-124629523D01*
X102222380Y-124343809D02*
X101222380Y-124343809D01*
X101365238Y-124439047D01*
X101460476Y-124534285D01*
X101508095Y-124629523D01*
%TO.C,J13*%
X176067380Y-134750023D02*
X176781666Y-134750023D01*
X176924523Y-134797642D01*
X177019761Y-134892880D01*
X177067380Y-135035738D01*
X177067380Y-135130976D01*
X177067380Y-133750023D02*
X177067380Y-134321452D01*
X177067380Y-134035738D02*
X176067380Y-134035738D01*
X176210238Y-134130976D01*
X176305476Y-134226214D01*
X176353095Y-134321452D01*
X176067380Y-133416690D02*
X176067380Y-132797642D01*
X176448333Y-133130976D01*
X176448333Y-132988119D01*
X176495952Y-132892880D01*
X176543571Y-132845261D01*
X176638809Y-132797642D01*
X176876904Y-132797642D01*
X176972142Y-132845261D01*
X177019761Y-132892880D01*
X177067380Y-132988119D01*
X177067380Y-133273833D01*
X177019761Y-133369071D01*
X176972142Y-133416690D01*
%TO.C,R6*%
X233632380Y-55456666D02*
X233156190Y-55790000D01*
X233632380Y-56028095D02*
X232632380Y-56028095D01*
X232632380Y-55647142D01*
X232680000Y-55551904D01*
X232727619Y-55504285D01*
X232822857Y-55456666D01*
X232965714Y-55456666D01*
X233060952Y-55504285D01*
X233108571Y-55551904D01*
X233156190Y-55647142D01*
X233156190Y-56028095D01*
X232632380Y-54599523D02*
X232632380Y-54790000D01*
X232680000Y-54885238D01*
X232727619Y-54932857D01*
X232870476Y-55028095D01*
X233060952Y-55075714D01*
X233441904Y-55075714D01*
X233537142Y-55028095D01*
X233584761Y-54980476D01*
X233632380Y-54885238D01*
X233632380Y-54694761D01*
X233584761Y-54599523D01*
X233537142Y-54551904D01*
X233441904Y-54504285D01*
X233203809Y-54504285D01*
X233108571Y-54551904D01*
X233060952Y-54599523D01*
X233013333Y-54694761D01*
X233013333Y-54885238D01*
X233060952Y-54980476D01*
X233108571Y-55028095D01*
X233203809Y-55075714D01*
%TO.C,R3*%
X98232380Y-55336666D02*
X97756190Y-55670000D01*
X98232380Y-55908095D02*
X97232380Y-55908095D01*
X97232380Y-55527142D01*
X97280000Y-55431904D01*
X97327619Y-55384285D01*
X97422857Y-55336666D01*
X97565714Y-55336666D01*
X97660952Y-55384285D01*
X97708571Y-55431904D01*
X97756190Y-55527142D01*
X97756190Y-55908095D01*
X97232380Y-55003333D02*
X97232380Y-54384285D01*
X97613333Y-54717619D01*
X97613333Y-54574761D01*
X97660952Y-54479523D01*
X97708571Y-54431904D01*
X97803809Y-54384285D01*
X98041904Y-54384285D01*
X98137142Y-54431904D01*
X98184761Y-54479523D01*
X98232380Y-54574761D01*
X98232380Y-54860476D01*
X98184761Y-54955714D01*
X98137142Y-55003333D01*
%TO.C,J9*%
X-3922619Y-134383833D02*
X-3208333Y-134383833D01*
X-3065476Y-134431452D01*
X-2970238Y-134526690D01*
X-2922619Y-134669547D01*
X-2922619Y-134764785D01*
X-2922619Y-133860023D02*
X-2922619Y-133669547D01*
X-2970238Y-133574309D01*
X-3017857Y-133526690D01*
X-3160714Y-133431452D01*
X-3351190Y-133383833D01*
X-3732142Y-133383833D01*
X-3827380Y-133431452D01*
X-3875000Y-133479071D01*
X-3922619Y-133574309D01*
X-3922619Y-133764785D01*
X-3875000Y-133860023D01*
X-3827380Y-133907642D01*
X-3732142Y-133955261D01*
X-3494047Y-133955261D01*
X-3398809Y-133907642D01*
X-3351190Y-133860023D01*
X-3303571Y-133764785D01*
X-3303571Y-133574309D01*
X-3351190Y-133479071D01*
X-3398809Y-133431452D01*
X-3494047Y-133383833D01*
%TO.C,J3*%
X86177380Y-64353833D02*
X86891666Y-64353833D01*
X87034523Y-64401452D01*
X87129761Y-64496690D01*
X87177380Y-64639547D01*
X87177380Y-64734785D01*
X86177380Y-63972880D02*
X86177380Y-63353833D01*
X86558333Y-63687166D01*
X86558333Y-63544309D01*
X86605952Y-63449071D01*
X86653571Y-63401452D01*
X86748809Y-63353833D01*
X86986904Y-63353833D01*
X87082142Y-63401452D01*
X87129761Y-63449071D01*
X87177380Y-63544309D01*
X87177380Y-63830023D01*
X87129761Y-63925261D01*
X87082142Y-63972880D01*
%TO.C,J10*%
X41067380Y-134800023D02*
X41781666Y-134800023D01*
X41924523Y-134847642D01*
X42019761Y-134942880D01*
X42067380Y-135085738D01*
X42067380Y-135180976D01*
X42067380Y-133800023D02*
X42067380Y-134371452D01*
X42067380Y-134085738D02*
X41067380Y-134085738D01*
X41210238Y-134180976D01*
X41305476Y-134276214D01*
X41353095Y-134371452D01*
X41067380Y-133180976D02*
X41067380Y-133085738D01*
X41115000Y-132990500D01*
X41162619Y-132942880D01*
X41257857Y-132895261D01*
X41448333Y-132847642D01*
X41686428Y-132847642D01*
X41876904Y-132895261D01*
X41972142Y-132942880D01*
X42019761Y-132990500D01*
X42067380Y-133085738D01*
X42067380Y-133180976D01*
X42019761Y-133276214D01*
X41972142Y-133323833D01*
X41876904Y-133371452D01*
X41686428Y-133419071D01*
X41448333Y-133419071D01*
X41257857Y-133371452D01*
X41162619Y-133323833D01*
X41115000Y-133276214D01*
X41067380Y-133180976D01*
%TO.C,R5*%
X192202380Y-55376666D02*
X191726190Y-55710000D01*
X192202380Y-55948095D02*
X191202380Y-55948095D01*
X191202380Y-55567142D01*
X191250000Y-55471904D01*
X191297619Y-55424285D01*
X191392857Y-55376666D01*
X191535714Y-55376666D01*
X191630952Y-55424285D01*
X191678571Y-55471904D01*
X191726190Y-55567142D01*
X191726190Y-55948095D01*
X191202380Y-54471904D02*
X191202380Y-54948095D01*
X191678571Y-54995714D01*
X191630952Y-54948095D01*
X191583333Y-54852857D01*
X191583333Y-54614761D01*
X191630952Y-54519523D01*
X191678571Y-54471904D01*
X191773809Y-54424285D01*
X192011904Y-54424285D01*
X192107142Y-54471904D01*
X192154761Y-54519523D01*
X192202380Y-54614761D01*
X192202380Y-54852857D01*
X192154761Y-54948095D01*
X192107142Y-54995714D01*
%TO.C,R9*%
X12352380Y-125371666D02*
X11876190Y-125705000D01*
X12352380Y-125943095D02*
X11352380Y-125943095D01*
X11352380Y-125562142D01*
X11400000Y-125466904D01*
X11447619Y-125419285D01*
X11542857Y-125371666D01*
X11685714Y-125371666D01*
X11780952Y-125419285D01*
X11828571Y-125466904D01*
X11876190Y-125562142D01*
X11876190Y-125943095D01*
X12352380Y-124895476D02*
X12352380Y-124705000D01*
X12304761Y-124609761D01*
X12257142Y-124562142D01*
X12114285Y-124466904D01*
X11923809Y-124419285D01*
X11542857Y-124419285D01*
X11447619Y-124466904D01*
X11400000Y-124514523D01*
X11352380Y-124609761D01*
X11352380Y-124800238D01*
X11400000Y-124895476D01*
X11447619Y-124943095D01*
X11542857Y-124990714D01*
X11780952Y-124990714D01*
X11876190Y-124943095D01*
X11923809Y-124895476D01*
X11971428Y-124800238D01*
X11971428Y-124609761D01*
X11923809Y-124514523D01*
X11876190Y-124466904D01*
X11780952Y-124419285D01*
%TO.C,R12*%
X147222380Y-126062857D02*
X146746190Y-126396190D01*
X147222380Y-126634285D02*
X146222380Y-126634285D01*
X146222380Y-126253333D01*
X146270000Y-126158095D01*
X146317619Y-126110476D01*
X146412857Y-126062857D01*
X146555714Y-126062857D01*
X146650952Y-126110476D01*
X146698571Y-126158095D01*
X146746190Y-126253333D01*
X146746190Y-126634285D01*
X147222380Y-125110476D02*
X147222380Y-125681904D01*
X147222380Y-125396190D02*
X146222380Y-125396190D01*
X146365238Y-125491428D01*
X146460476Y-125586666D01*
X146508095Y-125681904D01*
X146317619Y-124729523D02*
X146270000Y-124681904D01*
X146222380Y-124586666D01*
X146222380Y-124348571D01*
X146270000Y-124253333D01*
X146317619Y-124205714D01*
X146412857Y-124158095D01*
X146508095Y-124158095D01*
X146650952Y-124205714D01*
X147222380Y-124777142D01*
X147222380Y-124158095D01*
%TO.C,J7*%
X266067380Y-64353833D02*
X266781666Y-64353833D01*
X266924523Y-64401452D01*
X267019761Y-64496690D01*
X267067380Y-64639547D01*
X267067380Y-64734785D01*
X266067380Y-63972880D02*
X266067380Y-63306214D01*
X267067380Y-63734785D01*
%TO.C,R7*%
X282202380Y-55586666D02*
X281726190Y-55920000D01*
X282202380Y-56158095D02*
X281202380Y-56158095D01*
X281202380Y-55777142D01*
X281250000Y-55681904D01*
X281297619Y-55634285D01*
X281392857Y-55586666D01*
X281535714Y-55586666D01*
X281630952Y-55634285D01*
X281678571Y-55681904D01*
X281726190Y-55777142D01*
X281726190Y-56158095D01*
X281202380Y-55253333D02*
X281202380Y-54586666D01*
X282202380Y-55015238D01*
%TO.C,R1*%
X7542880Y-52366166D02*
X7066690Y-52699500D01*
X7542880Y-52937595D02*
X6542880Y-52937595D01*
X6542880Y-52556642D01*
X6590500Y-52461404D01*
X6638119Y-52413785D01*
X6733357Y-52366166D01*
X6876214Y-52366166D01*
X6971452Y-52413785D01*
X7019071Y-52461404D01*
X7066690Y-52556642D01*
X7066690Y-52937595D01*
X7542880Y-51413785D02*
X7542880Y-51985214D01*
X7542880Y-51699500D02*
X6542880Y-51699500D01*
X6685738Y-51794738D01*
X6780976Y-51889976D01*
X6828595Y-51985214D01*
%TO.C,R14*%
X237452380Y-126027857D02*
X236976190Y-126361190D01*
X237452380Y-126599285D02*
X236452380Y-126599285D01*
X236452380Y-126218333D01*
X236500000Y-126123095D01*
X236547619Y-126075476D01*
X236642857Y-126027857D01*
X236785714Y-126027857D01*
X236880952Y-126075476D01*
X236928571Y-126123095D01*
X236976190Y-126218333D01*
X236976190Y-126599285D01*
X237452380Y-125075476D02*
X237452380Y-125646904D01*
X237452380Y-125361190D02*
X236452380Y-125361190D01*
X236595238Y-125456428D01*
X236690476Y-125551666D01*
X236738095Y-125646904D01*
X236785714Y-124218333D02*
X237452380Y-124218333D01*
X236404761Y-124456428D02*
X237119047Y-124694523D01*
X237119047Y-124075476D01*
%TO.C,J6*%
X221077380Y-64443833D02*
X221791666Y-64443833D01*
X221934523Y-64491452D01*
X222029761Y-64586690D01*
X222077380Y-64729547D01*
X222077380Y-64824785D01*
X221077380Y-63539071D02*
X221077380Y-63729547D01*
X221125000Y-63824785D01*
X221172619Y-63872404D01*
X221315476Y-63967642D01*
X221505952Y-64015261D01*
X221886904Y-64015261D01*
X221982142Y-63967642D01*
X222029761Y-63920023D01*
X222077380Y-63824785D01*
X222077380Y-63634309D01*
X222029761Y-63539071D01*
X221982142Y-63491452D01*
X221886904Y-63443833D01*
X221648809Y-63443833D01*
X221553571Y-63491452D01*
X221505952Y-63539071D01*
X221458333Y-63634309D01*
X221458333Y-63824785D01*
X221505952Y-63920023D01*
X221553571Y-63967642D01*
X221648809Y-64015261D01*
%TO.C,J16*%
X311067380Y-134880023D02*
X311781666Y-134880023D01*
X311924523Y-134927642D01*
X312019761Y-135022880D01*
X312067380Y-135165738D01*
X312067380Y-135260976D01*
X312067380Y-133880023D02*
X312067380Y-134451452D01*
X312067380Y-134165738D02*
X311067380Y-134165738D01*
X311210238Y-134260976D01*
X311305476Y-134356214D01*
X311353095Y-134451452D01*
X311067380Y-133022880D02*
X311067380Y-133213357D01*
X311115000Y-133308595D01*
X311162619Y-133356214D01*
X311305476Y-133451452D01*
X311495952Y-133499071D01*
X311876904Y-133499071D01*
X311972142Y-133451452D01*
X312019761Y-133403833D01*
X312067380Y-133308595D01*
X312067380Y-133118119D01*
X312019761Y-133022880D01*
X311972142Y-132975261D01*
X311876904Y-132927642D01*
X311638809Y-132927642D01*
X311543571Y-132975261D01*
X311495952Y-133022880D01*
X311448333Y-133118119D01*
X311448333Y-133308595D01*
X311495952Y-133403833D01*
X311543571Y-133451452D01*
X311638809Y-133499071D01*
%TO.C,R13*%
X192752380Y-125897857D02*
X192276190Y-126231190D01*
X192752380Y-126469285D02*
X191752380Y-126469285D01*
X191752380Y-126088333D01*
X191800000Y-125993095D01*
X191847619Y-125945476D01*
X191942857Y-125897857D01*
X192085714Y-125897857D01*
X192180952Y-125945476D01*
X192228571Y-125993095D01*
X192276190Y-126088333D01*
X192276190Y-126469285D01*
X192752380Y-124945476D02*
X192752380Y-125516904D01*
X192752380Y-125231190D02*
X191752380Y-125231190D01*
X191895238Y-125326428D01*
X191990476Y-125421666D01*
X192038095Y-125516904D01*
X191752380Y-124612142D02*
X191752380Y-123993095D01*
X192133333Y-124326428D01*
X192133333Y-124183571D01*
X192180952Y-124088333D01*
X192228571Y-124040714D01*
X192323809Y-123993095D01*
X192561904Y-123993095D01*
X192657142Y-124040714D01*
X192704761Y-124088333D01*
X192752380Y-124183571D01*
X192752380Y-124469285D01*
X192704761Y-124564523D01*
X192657142Y-124612142D01*
%TO.C,J15*%
X266057380Y-134970023D02*
X266771666Y-134970023D01*
X266914523Y-135017642D01*
X267009761Y-135112880D01*
X267057380Y-135255738D01*
X267057380Y-135350976D01*
X267057380Y-133970023D02*
X267057380Y-134541452D01*
X267057380Y-134255738D02*
X266057380Y-134255738D01*
X266200238Y-134350976D01*
X266295476Y-134446214D01*
X266343095Y-134541452D01*
X266057380Y-133065261D02*
X266057380Y-133541452D01*
X266533571Y-133589071D01*
X266485952Y-133541452D01*
X266438333Y-133446214D01*
X266438333Y-133208119D01*
X266485952Y-133112880D01*
X266533571Y-133065261D01*
X266628809Y-133017642D01*
X266866904Y-133017642D01*
X266962142Y-133065261D01*
X267009761Y-133112880D01*
X267057380Y-133208119D01*
X267057380Y-133446214D01*
X267009761Y-133541452D01*
X266962142Y-133589071D01*
%TO.C,J1*%
X-3912619Y-64393833D02*
X-3198333Y-64393833D01*
X-3055476Y-64441452D01*
X-2960238Y-64536690D01*
X-2912619Y-64679547D01*
X-2912619Y-64774785D01*
X-2912619Y-63393833D02*
X-2912619Y-63965261D01*
X-2912619Y-63679547D02*
X-3912619Y-63679547D01*
X-3769761Y-63774785D01*
X-3674523Y-63870023D01*
X-3626904Y-63965261D01*
%TO.C,REF\u002A\u002A*%
X-17903333Y-132912380D02*
X-18236666Y-132436190D01*
X-18474761Y-132912380D02*
X-18474761Y-131912380D01*
X-18093809Y-131912380D01*
X-17998571Y-131960000D01*
X-17950952Y-132007619D01*
X-17903333Y-132102857D01*
X-17903333Y-132245714D01*
X-17950952Y-132340952D01*
X-17998571Y-132388571D01*
X-18093809Y-132436190D01*
X-18474761Y-132436190D01*
X-17474761Y-132388571D02*
X-17141428Y-132388571D01*
X-16998571Y-132912380D02*
X-17474761Y-132912380D01*
X-17474761Y-131912380D01*
X-16998571Y-131912380D01*
X-16236666Y-132388571D02*
X-16570000Y-132388571D01*
X-16570000Y-132912380D02*
X-16570000Y-131912380D01*
X-16093809Y-131912380D01*
X-15570000Y-131912380D02*
X-15570000Y-132150476D01*
X-15808095Y-132055238D02*
X-15570000Y-132150476D01*
X-15331904Y-132055238D01*
X-15712857Y-132340952D02*
X-15570000Y-132150476D01*
X-15427142Y-132340952D01*
X-14808095Y-131912380D02*
X-14808095Y-132150476D01*
X-15046190Y-132055238D02*
X-14808095Y-132150476D01*
X-14570000Y-132055238D01*
X-14950952Y-132340952D02*
X-14808095Y-132150476D01*
X-14665238Y-132340952D01*
%TO.C,R10*%
X57562380Y-125857857D02*
X57086190Y-126191190D01*
X57562380Y-126429285D02*
X56562380Y-126429285D01*
X56562380Y-126048333D01*
X56610000Y-125953095D01*
X56657619Y-125905476D01*
X56752857Y-125857857D01*
X56895714Y-125857857D01*
X56990952Y-125905476D01*
X57038571Y-125953095D01*
X57086190Y-126048333D01*
X57086190Y-126429285D01*
X57562380Y-124905476D02*
X57562380Y-125476904D01*
X57562380Y-125191190D02*
X56562380Y-125191190D01*
X56705238Y-125286428D01*
X56800476Y-125381666D01*
X56848095Y-125476904D01*
X56562380Y-124286428D02*
X56562380Y-124191190D01*
X56610000Y-124095952D01*
X56657619Y-124048333D01*
X56752857Y-124000714D01*
X56943333Y-123953095D01*
X57181428Y-123953095D01*
X57371904Y-124000714D01*
X57467142Y-124048333D01*
X57514761Y-124095952D01*
X57562380Y-124191190D01*
X57562380Y-124286428D01*
X57514761Y-124381666D01*
X57467142Y-124429285D01*
X57371904Y-124476904D01*
X57181428Y-124524523D01*
X56943333Y-124524523D01*
X56752857Y-124476904D01*
X56657619Y-124429285D01*
X56610000Y-124381666D01*
X56562380Y-124286428D01*
%TO.C,R2*%
X53052380Y-55446666D02*
X52576190Y-55780000D01*
X53052380Y-56018095D02*
X52052380Y-56018095D01*
X52052380Y-55637142D01*
X52100000Y-55541904D01*
X52147619Y-55494285D01*
X52242857Y-55446666D01*
X52385714Y-55446666D01*
X52480952Y-55494285D01*
X52528571Y-55541904D01*
X52576190Y-55637142D01*
X52576190Y-56018095D01*
X52147619Y-55065714D02*
X52100000Y-55018095D01*
X52052380Y-54922857D01*
X52052380Y-54684761D01*
X52100000Y-54589523D01*
X52147619Y-54541904D01*
X52242857Y-54494285D01*
X52338095Y-54494285D01*
X52480952Y-54541904D01*
X53052380Y-55113333D01*
X53052380Y-54494285D01*
%TO.C,J2*%
X41097380Y-64383833D02*
X41811666Y-64383833D01*
X41954523Y-64431452D01*
X42049761Y-64526690D01*
X42097380Y-64669547D01*
X42097380Y-64764785D01*
X41192619Y-63955261D02*
X41145000Y-63907642D01*
X41097380Y-63812404D01*
X41097380Y-63574309D01*
X41145000Y-63479071D01*
X41192619Y-63431452D01*
X41287857Y-63383833D01*
X41383095Y-63383833D01*
X41525952Y-63431452D01*
X42097380Y-64002880D01*
X42097380Y-63383833D01*
%TO.C,REF\u002A\u002A*%
X-17883333Y-37952380D02*
X-18216666Y-37476190D01*
X-18454761Y-37952380D02*
X-18454761Y-36952380D01*
X-18073809Y-36952380D01*
X-17978571Y-37000000D01*
X-17930952Y-37047619D01*
X-17883333Y-37142857D01*
X-17883333Y-37285714D01*
X-17930952Y-37380952D01*
X-17978571Y-37428571D01*
X-18073809Y-37476190D01*
X-18454761Y-37476190D01*
X-17454761Y-37428571D02*
X-17121428Y-37428571D01*
X-16978571Y-37952380D02*
X-17454761Y-37952380D01*
X-17454761Y-36952380D01*
X-16978571Y-36952380D01*
X-16216666Y-37428571D02*
X-16550000Y-37428571D01*
X-16550000Y-37952380D02*
X-16550000Y-36952380D01*
X-16073809Y-36952380D01*
X-15550000Y-36952380D02*
X-15550000Y-37190476D01*
X-15788095Y-37095238D02*
X-15550000Y-37190476D01*
X-15311904Y-37095238D01*
X-15692857Y-37380952D02*
X-15550000Y-37190476D01*
X-15407142Y-37380952D01*
X-14788095Y-36952380D02*
X-14788095Y-37190476D01*
X-15026190Y-37095238D02*
X-14788095Y-37190476D01*
X-14550000Y-37095238D01*
X-14930952Y-37380952D02*
X-14788095Y-37190476D01*
X-14645238Y-37380952D01*
%TO.C,R8*%
X327962380Y-55336666D02*
X327486190Y-55670000D01*
X327962380Y-55908095D02*
X326962380Y-55908095D01*
X326962380Y-55527142D01*
X327010000Y-55431904D01*
X327057619Y-55384285D01*
X327152857Y-55336666D01*
X327295714Y-55336666D01*
X327390952Y-55384285D01*
X327438571Y-55431904D01*
X327486190Y-55527142D01*
X327486190Y-55908095D01*
X327390952Y-54765238D02*
X327343333Y-54860476D01*
X327295714Y-54908095D01*
X327200476Y-54955714D01*
X327152857Y-54955714D01*
X327057619Y-54908095D01*
X327010000Y-54860476D01*
X326962380Y-54765238D01*
X326962380Y-54574761D01*
X327010000Y-54479523D01*
X327057619Y-54431904D01*
X327152857Y-54384285D01*
X327200476Y-54384285D01*
X327295714Y-54431904D01*
X327343333Y-54479523D01*
X327390952Y-54574761D01*
X327390952Y-54765238D01*
X327438571Y-54860476D01*
X327486190Y-54908095D01*
X327581428Y-54955714D01*
X327771904Y-54955714D01*
X327867142Y-54908095D01*
X327914761Y-54860476D01*
X327962380Y-54765238D01*
X327962380Y-54574761D01*
X327914761Y-54479523D01*
X327867142Y-54431904D01*
X327771904Y-54384285D01*
X327581428Y-54384285D01*
X327486190Y-54431904D01*
X327438571Y-54479523D01*
X327390952Y-54574761D01*
%TO.C,R4*%
X143102380Y-56256666D02*
X142626190Y-56590000D01*
X143102380Y-56828095D02*
X142102380Y-56828095D01*
X142102380Y-56447142D01*
X142150000Y-56351904D01*
X142197619Y-56304285D01*
X142292857Y-56256666D01*
X142435714Y-56256666D01*
X142530952Y-56304285D01*
X142578571Y-56351904D01*
X142626190Y-56447142D01*
X142626190Y-56828095D01*
X142435714Y-55399523D02*
X143102380Y-55399523D01*
X142054761Y-55637619D02*
X142769047Y-55875714D01*
X142769047Y-55256666D01*
%TO.C,J12*%
X131117380Y-134970023D02*
X131831666Y-134970023D01*
X131974523Y-135017642D01*
X132069761Y-135112880D01*
X132117380Y-135255738D01*
X132117380Y-135350976D01*
X132117380Y-133970023D02*
X132117380Y-134541452D01*
X132117380Y-134255738D02*
X131117380Y-134255738D01*
X131260238Y-134350976D01*
X131355476Y-134446214D01*
X131403095Y-134541452D01*
X131212619Y-133589071D02*
X131165000Y-133541452D01*
X131117380Y-133446214D01*
X131117380Y-133208119D01*
X131165000Y-133112880D01*
X131212619Y-133065261D01*
X131307857Y-133017642D01*
X131403095Y-133017642D01*
X131545952Y-133065261D01*
X132117380Y-133636690D01*
X132117380Y-133017642D01*
D11*
%TO.C,3.3v1*%
X-15110000Y-57310000D02*
X-15110000Y-57260000D01*
X-15110000Y-57260000D02*
X-16960000Y-57260000D01*
X-15110000Y-59160000D02*
X-15110000Y-57310000D01*
X-16960000Y-59160000D02*
X-15110000Y-59160000D01*
X-16960000Y-57260000D02*
X-16960000Y-59160000D01*
D12*
%TO.C,J5*%
X186060500Y-67292300D02*
X178059500Y-67292300D01*
X178059500Y-67292300D02*
X178059500Y-41287700D01*
X178059500Y-41287700D02*
X186060500Y-41287700D01*
X186060500Y-41287700D02*
X186060500Y-67292300D01*
D13*
X177285000Y-58865500D02*
G75*
G03*
X177285000Y-58865500I-100000J0D01*
G01*
D12*
%TO.C,J4*%
X141020500Y-67342300D02*
X133019500Y-67342300D01*
X133019500Y-67342300D02*
X133019500Y-41337700D01*
X141020500Y-41337700D02*
X141020500Y-67342300D01*
X133019500Y-41337700D02*
X141020500Y-41337700D01*
D13*
X132245000Y-58915500D02*
G75*
G03*
X132245000Y-58915500I-100000J0D01*
G01*
D12*
%TO.C,J8*%
X321020500Y-41257700D02*
X321020500Y-67262300D01*
X313019500Y-67262300D02*
X313019500Y-41257700D01*
X321020500Y-67262300D02*
X313019500Y-67262300D01*
X313019500Y-41257700D02*
X321020500Y-41257700D01*
D13*
X312245000Y-58835500D02*
G75*
G03*
X312245000Y-58835500I-100000J0D01*
G01*
D12*
%TO.C,J14*%
X222989500Y-137402300D02*
X222989500Y-111397700D01*
X222989500Y-111397700D02*
X230990500Y-111397700D01*
X230990500Y-137402300D02*
X222989500Y-137402300D01*
X230990500Y-111397700D02*
X230990500Y-137402300D01*
D13*
X222215000Y-128975500D02*
G75*
G03*
X222215000Y-128975500I-100000J0D01*
G01*
D12*
%TO.C,J11*%
X96060500Y-111297700D02*
X96060500Y-137302300D01*
X88059500Y-111297700D02*
X96060500Y-111297700D01*
X96060500Y-137302300D02*
X88059500Y-137302300D01*
X88059500Y-137302300D02*
X88059500Y-111297700D01*
D13*
X87285000Y-128875500D02*
G75*
G03*
X87285000Y-128875500I-100000J0D01*
G01*
D11*
%TO.C,R16*%
X326110000Y-124682133D02*
G75*
G03*
X324660641Y-124585095I-700000J417133D01*
G01*
%TO.C,J17*%
X335667500Y-71180000D02*
X336667500Y-70680000D01*
X335667500Y-70180000D02*
X335667500Y-71180000D01*
X339257500Y-50100000D02*
X343877500Y-50100000D01*
X344767500Y-115240000D02*
X338367500Y-115240000D01*
X337427500Y-59600000D02*
X337057500Y-59600000D01*
X338367500Y-93050000D02*
X337057500Y-93050000D01*
X339257500Y-57850000D02*
X339257500Y-50100000D01*
X336667500Y-70680000D02*
X335667500Y-70180000D01*
X338367500Y-66760000D02*
X344767500Y-66760000D01*
X343877500Y-131900000D02*
X343877500Y-124150000D01*
X338367500Y-88950000D02*
X338367500Y-66760000D01*
X337057500Y-122400000D02*
X337427500Y-122400000D01*
X343877500Y-50100000D02*
X343877500Y-57850000D01*
X346077500Y-122400000D02*
X345207500Y-122400000D01*
X337057500Y-88950000D02*
X338367500Y-88950000D01*
X339257500Y-131900000D02*
X343877500Y-131900000D01*
X337057500Y-59600000D02*
X337057500Y-122400000D01*
X345207500Y-59600000D02*
X346077500Y-59600000D01*
X344767500Y-66760000D02*
X344767500Y-115240000D01*
X338367500Y-93050000D02*
X338367500Y-93050000D01*
X339257500Y-124150000D02*
X339257500Y-131900000D01*
X338367500Y-115240000D02*
X338367500Y-93050000D01*
X346077500Y-59600000D02*
X346077500Y-122400000D01*
%TO.C,R15*%
X280330000Y-124812133D02*
G75*
G03*
X278880641Y-124715095I-700000J417133D01*
G01*
%TO.C,R11*%
X100550000Y-124787133D02*
G75*
G03*
X99100641Y-124690095I-700000J417133D01*
G01*
D12*
%TO.C,J13*%
X177999500Y-111187700D02*
X186000500Y-111187700D01*
X186000500Y-111187700D02*
X186000500Y-137192300D01*
X186000500Y-137192300D02*
X177999500Y-137192300D01*
X177999500Y-137192300D02*
X177999500Y-111187700D01*
D13*
X177225000Y-128765500D02*
G75*
G03*
X177225000Y-128765500I-100000J0D01*
G01*
D11*
%TO.C,R6*%
X234400000Y-55822867D02*
G75*
G03*
X235849359Y-55919905I700000J-417133D01*
G01*
%TO.C,R3*%
X99000000Y-55702867D02*
G75*
G03*
X100449359Y-55799905I700000J-417133D01*
G01*
D12*
%TO.C,J9*%
X-1990500Y-137302300D02*
X-1990500Y-111297700D01*
X6010500Y-111297700D02*
X6010500Y-137302300D01*
X6010500Y-137302300D02*
X-1990500Y-137302300D01*
X-1990500Y-111297700D02*
X6010500Y-111297700D01*
D13*
X-2765000Y-128875500D02*
G75*
G03*
X-2765000Y-128875500I-100000J0D01*
G01*
D12*
%TO.C,J3*%
X88109500Y-67272300D02*
X88109500Y-41267700D01*
X88109500Y-41267700D02*
X96110500Y-41267700D01*
X96110500Y-67272300D02*
X88109500Y-67272300D01*
X96110500Y-41267700D02*
X96110500Y-67272300D01*
D13*
X87335000Y-58845500D02*
G75*
G03*
X87335000Y-58845500I-100000J0D01*
G01*
D12*
%TO.C,J10*%
X51000500Y-137242300D02*
X42999500Y-137242300D01*
X42999500Y-137242300D02*
X42999500Y-111237700D01*
X51000500Y-111237700D02*
X51000500Y-137242300D01*
X42999500Y-111237700D02*
X51000500Y-111237700D01*
D13*
X42225000Y-128815500D02*
G75*
G03*
X42225000Y-128815500I-100000J0D01*
G01*
D11*
%TO.C,R5*%
X190530000Y-54677133D02*
G75*
G03*
X189080641Y-54580095I-700000J417133D01*
G01*
%TO.C,R9*%
X10680000Y-124672133D02*
G75*
G03*
X9230641Y-124575095I-700000J417133D01*
G01*
%TO.C,R12*%
X145550000Y-124887133D02*
G75*
G03*
X144100641Y-124790095I-700000J417133D01*
G01*
D12*
%TO.C,J7*%
X276000500Y-67272300D02*
X267999500Y-67272300D01*
X267999500Y-41267700D02*
X276000500Y-41267700D01*
X276000500Y-41267700D02*
X276000500Y-67272300D01*
X267999500Y-67272300D02*
X267999500Y-41267700D01*
D13*
X267225000Y-58845500D02*
G75*
G03*
X267225000Y-58845500I-100000J0D01*
G01*
D11*
%TO.C,R7*%
X280530000Y-54887133D02*
G75*
G03*
X279080641Y-54790095I-700000J417133D01*
G01*
%TO.C,R1*%
X8890000Y-56332867D02*
G75*
G03*
X10339359Y-56429905I700000J-417133D01*
G01*
%TO.C,R14*%
X235780000Y-124852133D02*
G75*
G03*
X234330641Y-124755095I-700000J417133D01*
G01*
D12*
%TO.C,J6*%
X231010500Y-67362300D02*
X223009500Y-67362300D01*
X231010500Y-41357700D02*
X231010500Y-67362300D01*
X223009500Y-41357700D02*
X231010500Y-41357700D01*
X223009500Y-67362300D02*
X223009500Y-41357700D01*
D13*
X222235000Y-58935500D02*
G75*
G03*
X222235000Y-58935500I-100000J0D01*
G01*
D12*
%TO.C,J16*%
X312999500Y-137322300D02*
X312999500Y-111317700D01*
X321000500Y-111317700D02*
X321000500Y-137322300D01*
X321000500Y-137322300D02*
X312999500Y-137322300D01*
X312999500Y-111317700D02*
X321000500Y-111317700D01*
D13*
X312225000Y-128895500D02*
G75*
G03*
X312225000Y-128895500I-100000J0D01*
G01*
D11*
%TO.C,R13*%
X191080000Y-124722133D02*
G75*
G03*
X189630641Y-124625095I-700000J417133D01*
G01*
D12*
%TO.C,J15*%
X267989500Y-111407700D02*
X275990500Y-111407700D01*
X275990500Y-137412300D02*
X267989500Y-137412300D01*
X267989500Y-137412300D02*
X267989500Y-111407700D01*
X275990500Y-111407700D02*
X275990500Y-137412300D01*
D13*
X267215000Y-128985500D02*
G75*
G03*
X267215000Y-128985500I-100000J0D01*
G01*
D12*
%TO.C,J1*%
X-1980500Y-41307700D02*
X6020500Y-41307700D01*
X6020500Y-41307700D02*
X6020500Y-67312300D01*
X6020500Y-67312300D02*
X-1980500Y-67312300D01*
X-1980500Y-67312300D02*
X-1980500Y-41307700D01*
D13*
X-2755000Y-58885500D02*
G75*
G03*
X-2755000Y-58885500I-100000J0D01*
G01*
D11*
%TO.C,R10*%
X55890000Y-124682133D02*
G75*
G03*
X54440641Y-124585095I-700000J417133D01*
G01*
%TO.C,R2*%
X53820000Y-55812867D02*
G75*
G03*
X55269359Y-55909905I700000J-417133D01*
G01*
D12*
%TO.C,J2*%
X51030500Y-67302300D02*
X43029500Y-67302300D01*
X43029500Y-41297700D02*
X51030500Y-41297700D01*
X51030500Y-41297700D02*
X51030500Y-67302300D01*
X43029500Y-67302300D02*
X43029500Y-41297700D01*
D13*
X42255000Y-58875500D02*
G75*
G03*
X42255000Y-58875500I-100000J0D01*
G01*
D11*
%TO.C,R8*%
X326290000Y-54637133D02*
G75*
G03*
X324840641Y-54540095I-700000J417133D01*
G01*
%TO.C,R4*%
X143870000Y-56622867D02*
G75*
G03*
X145319359Y-56719905I700000J-417133D01*
G01*
D12*
%TO.C,J12*%
X141050500Y-111407700D02*
X141050500Y-137412300D01*
X133049500Y-137412300D02*
X133049500Y-111407700D01*
X133049500Y-111407700D02*
X141050500Y-111407700D01*
X141050500Y-137412300D02*
X133049500Y-137412300D01*
D13*
X132275000Y-128985500D02*
G75*
G03*
X132275000Y-128985500I-100000J0D01*
G01*
%TD*%
M02*
